M48
;DRILL file {KiCad 4.0.4-stable} date 05/15/17 15:10:58
;FORMAT={-:-/ absolute / metric / decimal}
FMAT,2
METRIC,TZ
T1C1.000
%
G90
G05
M71
T1
X124.46Y-97.79
X127.Y-97.79
X129.54Y-97.79
X132.08Y-97.79
X134.62Y-97.79
X137.16Y-97.79
X139.7Y-97.79
X142.24Y-97.79
X144.78Y-97.79
X147.32Y-97.79
X149.86Y-97.79
X152.4Y-97.79
X154.94Y-97.79
X157.48Y-97.79
X160.02Y-97.79
X162.56Y-97.79
X165.1Y-97.79
X167.64Y-97.79
X170.18Y-97.79
X172.72Y-97.79
T0
M30
