G04 #@! TF.FileFunction,Copper,L1,Top,Signal*
%FSLAX46Y46*%
G04 Gerber Fmt 4.6, Leading zero omitted, Abs format (unit mm)*
G04 Created by KiCad (PCBNEW 4.0.4-stable) date 05/15/17 15:10:48*
%MOMM*%
%LPD*%
G01*
G04 APERTURE LIST*
%ADD10C,0.100000*%
%ADD11R,1.700000X1.700000*%
%ADD12O,1.700000X1.700000*%
%ADD13R,2.450000X7.700000*%
%ADD14R,2.450000X7.000000*%
%ADD15C,0.500000*%
G04 APERTURE END LIST*
D10*
D11*
X172720000Y-97790000D03*
D12*
X170180000Y-97790000D03*
X167640000Y-97790000D03*
X165100000Y-97790000D03*
X162560000Y-97790000D03*
X160020000Y-97790000D03*
X157480000Y-97790000D03*
X154940000Y-97790000D03*
X152400000Y-97790000D03*
X149860000Y-97790000D03*
X147320000Y-97790000D03*
X144780000Y-97790000D03*
X142240000Y-97790000D03*
X139700000Y-97790000D03*
X137160000Y-97790000D03*
X134620000Y-97790000D03*
X132080000Y-97790000D03*
X129540000Y-97790000D03*
X127000000Y-97790000D03*
X124460000Y-97790000D03*
D13*
X130890000Y-89380000D03*
X134790000Y-89380000D03*
X138790000Y-89380000D03*
X142790000Y-89380000D03*
X146790000Y-89380000D03*
X150790000Y-89380000D03*
X154790000Y-89380000D03*
X158790000Y-89380000D03*
X162790000Y-89280000D03*
D14*
X166790000Y-89680000D03*
D15*
X172720000Y-97790000D02*
X168910000Y-93980000D01*
X168910000Y-91800000D02*
X166790000Y-89680000D01*
X168910000Y-93980000D02*
X168910000Y-91800000D01*
X167640000Y-97790000D02*
X167640000Y-96520000D01*
X167640000Y-96520000D02*
X162790000Y-91670000D01*
X162790000Y-91670000D02*
X162790000Y-89280000D01*
X162560000Y-97790000D02*
X162560000Y-96520000D01*
X162560000Y-96520000D02*
X158790000Y-92750000D01*
X158790000Y-92750000D02*
X158790000Y-89380000D01*
X157480000Y-97790000D02*
X157480000Y-96520000D01*
X154790000Y-93830000D02*
X154790000Y-89380000D01*
X157480000Y-96520000D02*
X154790000Y-93830000D01*
X152400000Y-97790000D02*
X152400000Y-95250000D01*
X150790000Y-93640000D02*
X150790000Y-89380000D01*
X152400000Y-95250000D02*
X150790000Y-93640000D01*
X147320000Y-97790000D02*
X147320000Y-89910000D01*
X147320000Y-89910000D02*
X146790000Y-89380000D01*
X142240000Y-97790000D02*
X142240000Y-89930000D01*
X142240000Y-89930000D02*
X142790000Y-89380000D01*
X137160000Y-97790000D02*
X137160000Y-95250000D01*
X138790000Y-93620000D02*
X138790000Y-89380000D01*
X137160000Y-95250000D02*
X138790000Y-93620000D01*
X132080000Y-97790000D02*
X134620000Y-95250000D01*
X134620000Y-95250000D02*
X134620000Y-89550000D01*
X134620000Y-89550000D02*
X134790000Y-89380000D01*
X127000000Y-97790000D02*
X130810000Y-93980000D01*
X130810000Y-93980000D02*
X130810000Y-89460000D01*
X130810000Y-89460000D02*
X130890000Y-89380000D01*
M02*
