G04 #@! TF.FileFunction,Copper,L2,Bot,Signal*
%FSLAX46Y46*%
G04 Gerber Fmt 4.6, Leading zero omitted, Abs format (unit mm)*
G04 Created by KiCad (PCBNEW 4.0.4-stable) date 05/15/17 15:10:48*
%MOMM*%
%LPD*%
G01*
G04 APERTURE LIST*
%ADD10C,0.100000*%
%ADD11R,1.700000X1.700000*%
%ADD12O,1.700000X1.700000*%
%ADD13R,2.450000X7.700000*%
%ADD14C,0.500000*%
%ADD15C,0.250000*%
G04 APERTURE END LIST*
D10*
D11*
X172720000Y-97790000D03*
D12*
X170180000Y-97790000D03*
X167640000Y-97790000D03*
X165100000Y-97790000D03*
X162560000Y-97790000D03*
X160020000Y-97790000D03*
X157480000Y-97790000D03*
X154940000Y-97790000D03*
X152400000Y-97790000D03*
X149860000Y-97790000D03*
X147320000Y-97790000D03*
X144780000Y-97790000D03*
X142240000Y-97790000D03*
X139700000Y-97790000D03*
X137160000Y-97790000D03*
X134620000Y-97790000D03*
X132080000Y-97790000D03*
X129540000Y-97790000D03*
X127000000Y-97790000D03*
X124460000Y-97790000D03*
D13*
X166790000Y-89280000D03*
X162790000Y-89280000D03*
X158790000Y-89380000D03*
X154790000Y-89380000D03*
X150790000Y-89380000D03*
X146790000Y-89380000D03*
X142790000Y-89380000D03*
X138790000Y-89380000D03*
X134790000Y-89380000D03*
X130890000Y-89380000D03*
D14*
X170180000Y-97790000D02*
X170180000Y-96520000D01*
X170180000Y-96520000D02*
X166790000Y-93130000D01*
X166790000Y-93130000D02*
X166790000Y-89280000D01*
X165100000Y-97790000D02*
X165100000Y-95250000D01*
X165100000Y-95250000D02*
X162790000Y-92940000D01*
X162790000Y-92940000D02*
X162790000Y-89280000D01*
X160020000Y-97790000D02*
X160020000Y-90610000D01*
X160020000Y-90610000D02*
X158790000Y-89380000D01*
X154940000Y-97790000D02*
X154940000Y-89530000D01*
X154940000Y-89530000D02*
X154790000Y-89380000D01*
X149860000Y-97790000D02*
X149860000Y-90310000D01*
X149860000Y-90310000D02*
X150790000Y-89380000D01*
X144780000Y-97790000D02*
X144780000Y-95250000D01*
X146790000Y-93240000D02*
X146790000Y-89380000D01*
X144780000Y-95250000D02*
X146790000Y-93240000D01*
X139700000Y-97790000D02*
X139700000Y-96520000D01*
X142790000Y-93430000D02*
X142790000Y-89380000D01*
X139700000Y-96520000D02*
X142790000Y-93430000D01*
X134620000Y-97790000D02*
X134620000Y-96520000D01*
X134620000Y-96520000D02*
X138790000Y-92350000D01*
X138790000Y-92350000D02*
X138790000Y-89380000D01*
D15*
X138790000Y-92350000D02*
X138790000Y-89380000D01*
D14*
X129540000Y-97790000D02*
X133350000Y-93980000D01*
X133350000Y-90820000D02*
X134790000Y-89380000D01*
X133350000Y-93980000D02*
X133350000Y-90820000D01*
X124460000Y-97790000D02*
X128270000Y-93980000D01*
X128270000Y-92000000D02*
X130890000Y-89380000D01*
X128270000Y-93980000D02*
X128270000Y-92000000D01*
M02*
