G04 #@! TF.FileFunction,Copper,L1,Top,Signal*
%FSLAX46Y46*%
G04 Gerber Fmt 4.6, Leading zero omitted, Abs format (unit mm)*
G04 Created by KiCad (PCBNEW 4.0.6) date 06/28/17 12:26:05*
%MOMM*%
%LPD*%
G01*
G04 APERTURE LIST*
%ADD10C,0.100000*%
%ADD11R,2.200000X6.600000*%
%ADD12R,1.700000X1.700000*%
%ADD13O,1.700000X1.700000*%
%ADD14R,1.998980X2.999740*%
%ADD15R,2.999740X1.998980*%
%ADD16R,2.500000X0.900000*%
%ADD17R,3.300000X2.000000*%
%ADD18R,0.900000X2.500000*%
%ADD19R,2.000000X3.300000*%
%ADD20R,1.270000X0.970000*%
%ADD21C,1.200000*%
%ADD22C,1.200000*%
%ADD23C,0.500000*%
%ADD24C,1.500000*%
%ADD25C,0.254000*%
G04 APERTURE END LIST*
D10*
D11*
X165850000Y-91150000D03*
X162050000Y-91150000D03*
X154450000Y-91150000D03*
X158250000Y-91150000D03*
X143050000Y-91150000D03*
X139250000Y-91150000D03*
X146850000Y-91150000D03*
X150650000Y-91150000D03*
X131650000Y-91150000D03*
X135450000Y-91150000D03*
D12*
X138700000Y-149450000D03*
D13*
X136160000Y-149450000D03*
D12*
X173050000Y-113500000D03*
D13*
X173050000Y-116040000D03*
D12*
X161350000Y-97550000D03*
D13*
X158810000Y-97550000D03*
D14*
X140249740Y-154400000D03*
X134250260Y-154400000D03*
D12*
X161400000Y-112650000D03*
D13*
X158860000Y-112650000D03*
D15*
X177025000Y-112125260D03*
X177025000Y-118124740D03*
D14*
X163099740Y-102000000D03*
X157100260Y-102000000D03*
X163124740Y-116775000D03*
X157125260Y-116775000D03*
D16*
X177350000Y-114425000D03*
X177350000Y-115925000D03*
D17*
X182400000Y-111825000D03*
X182400000Y-118525000D03*
D18*
X138000000Y-155925000D03*
X136500000Y-155925000D03*
D19*
X140600000Y-160975000D03*
X133900000Y-160975000D03*
D18*
X160825000Y-102250000D03*
X159325000Y-102250000D03*
D19*
X163425000Y-107300000D03*
X156725000Y-107300000D03*
D18*
X160875000Y-117050000D03*
X159375000Y-117050000D03*
D19*
X163475000Y-122100000D03*
X156775000Y-122100000D03*
D12*
X172850000Y-127050000D03*
D13*
X172850000Y-129590000D03*
D12*
X172900000Y-136550000D03*
D13*
X172900000Y-139090000D03*
D12*
X172350000Y-146350000D03*
D13*
X172350000Y-148890000D03*
D12*
X172850000Y-156050000D03*
D13*
X172850000Y-158590000D03*
D15*
X177850000Y-124700260D03*
X177850000Y-130699740D03*
X177950000Y-134600260D03*
X177950000Y-140599740D03*
X177800000Y-144350260D03*
X177800000Y-150349740D03*
X177800000Y-154650260D03*
X177800000Y-160649740D03*
D16*
X177875000Y-127000000D03*
X177875000Y-128500000D03*
D17*
X182925000Y-124400000D03*
X182925000Y-131100000D03*
D16*
X177975000Y-136900000D03*
X177975000Y-138400000D03*
D17*
X183025000Y-134300000D03*
X183025000Y-141000000D03*
D16*
X177975000Y-146650000D03*
X177975000Y-148150000D03*
D17*
X183025000Y-144050000D03*
X183025000Y-150750000D03*
D16*
X178075000Y-156850000D03*
X178075000Y-158350000D03*
D17*
X183125000Y-154250000D03*
X183125000Y-160950000D03*
D12*
X149975000Y-150075000D03*
D13*
X147435000Y-150075000D03*
D14*
X153174740Y-154825000D03*
X147175260Y-154825000D03*
D18*
X150825000Y-155100000D03*
X149325000Y-155100000D03*
D19*
X153425000Y-160150000D03*
X146725000Y-160150000D03*
D12*
X126600000Y-148400000D03*
D13*
X126600000Y-145860000D03*
X126600000Y-143320000D03*
D12*
X126550000Y-134250000D03*
D13*
X126550000Y-131710000D03*
X126550000Y-129170000D03*
D12*
X126400000Y-120550000D03*
D13*
X126400000Y-118010000D03*
X126400000Y-115470000D03*
D12*
X126550000Y-106900000D03*
D13*
X126550000Y-104360000D03*
X126550000Y-101820000D03*
D16*
X122925000Y-147350000D03*
X122925000Y-145850000D03*
X122925000Y-144350000D03*
D17*
X117875000Y-149950000D03*
X117875000Y-141750000D03*
D16*
X122975000Y-133300000D03*
X122975000Y-131800000D03*
X122975000Y-130300000D03*
D17*
X117925000Y-135900000D03*
X117925000Y-127700000D03*
D16*
X122825000Y-119450000D03*
X122825000Y-117950000D03*
X122825000Y-116450000D03*
D17*
X117775000Y-122050000D03*
X117775000Y-113850000D03*
D16*
X122825000Y-105750000D03*
X122825000Y-104250000D03*
X122825000Y-102750000D03*
D17*
X117775000Y-108350000D03*
X117775000Y-100150000D03*
D20*
X145400000Y-98690000D03*
X145400000Y-97410000D03*
X143200000Y-98690000D03*
X143200000Y-97410000D03*
X141000000Y-98690000D03*
X141000000Y-97410000D03*
X138800000Y-98690000D03*
X138800000Y-97410000D03*
D12*
X172425000Y-103675000D03*
D13*
X172425000Y-106215000D03*
D15*
X176625000Y-101975260D03*
X176625000Y-107974740D03*
D16*
X176800000Y-104225000D03*
X176800000Y-105725000D03*
D17*
X181850000Y-101625000D03*
X181850000Y-108325000D03*
D21*
X176450000Y-97650000D03*
X169700000Y-114500000D03*
X168000000Y-124000000D03*
X168600000Y-144000000D03*
X169050000Y-153600000D03*
X153450000Y-146250000D03*
X139200000Y-145950000D03*
X127300000Y-110500000D03*
X129400000Y-122050000D03*
X130800000Y-147500000D03*
X130550000Y-135100000D03*
X156300000Y-129000000D03*
X154600000Y-136800000D03*
X147500000Y-114700000D03*
X149100000Y-95950000D03*
X144900000Y-112250000D03*
X143050000Y-145400000D03*
X142100000Y-112500000D03*
X144500000Y-95500000D03*
X140150000Y-95600000D03*
X136650000Y-106250000D03*
X134250000Y-139700000D03*
X131650000Y-129800000D03*
X133800000Y-104450000D03*
X129800000Y-117700000D03*
X130050000Y-103800000D03*
D22*
X173050000Y-113500000D02*
X170700000Y-113500000D01*
X170700000Y-113500000D02*
X169700000Y-114500000D01*
X172350000Y-146350000D02*
X170950000Y-146350000D01*
X170950000Y-146350000D02*
X168600000Y-144000000D01*
X149975000Y-150075000D02*
X149975000Y-149725000D01*
X149975000Y-149725000D02*
X153450000Y-146250000D01*
X126550000Y-106900000D02*
X126550000Y-109750000D01*
X126550000Y-109750000D02*
X127300000Y-110500000D01*
X126600000Y-148400000D02*
X129900000Y-148400000D01*
X129900000Y-148400000D02*
X130800000Y-147500000D01*
X126550000Y-134250000D02*
X129700000Y-134250000D01*
X129700000Y-134250000D02*
X130550000Y-135100000D01*
X172425000Y-103675000D02*
X176250000Y-103675000D01*
X176250000Y-103675000D02*
X176800000Y-104225000D01*
X172425000Y-103675000D02*
X174925260Y-103675000D01*
X174925260Y-103675000D02*
X176625000Y-101975260D01*
X175250000Y-113500000D02*
X176425000Y-113500000D01*
X176425000Y-113500000D02*
X177350000Y-114425000D01*
X173050000Y-113500000D02*
X175250000Y-113500000D01*
X175250000Y-113500000D02*
X175650260Y-113500000D01*
X175650260Y-113500000D02*
X177025000Y-112125260D01*
X175500000Y-127050000D02*
X177825000Y-127050000D01*
X177825000Y-127050000D02*
X177875000Y-127000000D01*
X172850000Y-127050000D02*
X175500000Y-127050000D01*
X175500000Y-127050000D02*
X175500260Y-127050000D01*
X175500260Y-127050000D02*
X177850000Y-124700260D01*
X176000260Y-136550000D02*
X177625000Y-136550000D01*
X177625000Y-136550000D02*
X177975000Y-136900000D01*
X172900000Y-136550000D02*
X176000260Y-136550000D01*
X176000260Y-136550000D02*
X177950000Y-134600260D01*
X175800260Y-146350000D02*
X177675000Y-146350000D01*
X177675000Y-146350000D02*
X177975000Y-146650000D01*
X172350000Y-146350000D02*
X175800260Y-146350000D01*
X175800260Y-146350000D02*
X177800000Y-144350260D01*
X177800000Y-154650260D02*
X177800000Y-156575000D01*
X177800000Y-156575000D02*
X178075000Y-156850000D01*
X172850000Y-156050000D02*
X176400260Y-156050000D01*
X176400260Y-156050000D02*
X177800000Y-154650260D01*
X153174740Y-154825000D02*
X152875000Y-154825000D01*
X152875000Y-154825000D02*
X149975000Y-151925000D01*
X149975000Y-151925000D02*
X149975000Y-150075000D01*
X153174740Y-154825000D02*
X151100000Y-154825000D01*
X151100000Y-154825000D02*
X150825000Y-155100000D01*
X138700000Y-149450000D02*
X138700000Y-152850260D01*
X138700000Y-152850260D02*
X140249740Y-154400000D01*
X140249740Y-154400000D02*
X139525000Y-154400000D01*
X139525000Y-154400000D02*
X138000000Y-155925000D01*
D23*
X122925000Y-147350000D02*
X125550000Y-147350000D01*
X125550000Y-147350000D02*
X126600000Y-148400000D01*
X122975000Y-133300000D02*
X125600000Y-133300000D01*
X125600000Y-133300000D02*
X126550000Y-134250000D01*
X122825000Y-105750000D02*
X125400000Y-105750000D01*
X125400000Y-105750000D02*
X126550000Y-106900000D01*
X125300000Y-119450000D02*
X126400000Y-120550000D01*
X122825000Y-119450000D02*
X125300000Y-119450000D01*
X176800000Y-102150260D02*
X176625000Y-101975260D01*
D22*
X123200000Y-154400000D02*
X123200000Y-157250000D01*
X180300260Y-121400000D02*
X177025000Y-118124740D01*
X185750000Y-121400000D02*
X180300260Y-121400000D01*
X187700000Y-123350000D02*
X185750000Y-121400000D01*
X187700000Y-162550000D02*
X187700000Y-123350000D01*
X185300000Y-164950000D02*
X187700000Y-162550000D01*
X130900000Y-164950000D02*
X185300000Y-164950000D01*
X123200000Y-157250000D02*
X130900000Y-164950000D01*
X173050000Y-116040000D02*
X174940260Y-116040000D01*
X174940260Y-116040000D02*
X177025000Y-118124740D01*
X173050000Y-116040000D02*
X177235000Y-116040000D01*
X177235000Y-116040000D02*
X177350000Y-115925000D01*
X134250260Y-154400000D02*
X134975000Y-154400000D01*
X134975000Y-154400000D02*
X136500000Y-155925000D01*
X136160000Y-149450000D02*
X136160000Y-152490260D01*
X136160000Y-152490260D02*
X134250260Y-154400000D01*
X113050000Y-138700000D02*
X121980000Y-138700000D01*
X121980000Y-138700000D02*
X126600000Y-143320000D01*
X113050000Y-125100000D02*
X122480000Y-125100000D01*
X122480000Y-125100000D02*
X126550000Y-129170000D01*
X113050000Y-111150000D02*
X122080000Y-111150000D01*
X122080000Y-111150000D02*
X126400000Y-115470000D01*
D24*
X131650000Y-91150000D02*
X131650000Y-92950000D01*
D22*
X131650000Y-92950000D02*
X128600000Y-96000000D01*
X115400000Y-154400000D02*
X123200000Y-154400000D01*
X123200000Y-154400000D02*
X134250260Y-154400000D01*
X113050000Y-152050000D02*
X115400000Y-154400000D01*
X113050000Y-98850000D02*
X113050000Y-111150000D01*
X113050000Y-111150000D02*
X113050000Y-125100000D01*
X113050000Y-125100000D02*
X113050000Y-138700000D01*
X113050000Y-138700000D02*
X113050000Y-152050000D01*
X115900000Y-96000000D02*
X113050000Y-98850000D01*
X128600000Y-96000000D02*
X115900000Y-96000000D01*
X131650000Y-91150000D02*
X131650000Y-96720000D01*
X131650000Y-96720000D02*
X126550000Y-101820000D01*
D24*
X131650000Y-91150000D02*
X131650000Y-93750000D01*
D23*
X122925000Y-144350000D02*
X125570000Y-144350000D01*
X125570000Y-144350000D02*
X126600000Y-143320000D01*
X122975000Y-130300000D02*
X125420000Y-130300000D01*
X125420000Y-130300000D02*
X126550000Y-129170000D01*
X122825000Y-102750000D02*
X125620000Y-102750000D01*
X125620000Y-102750000D02*
X126550000Y-101820000D01*
X122825000Y-116450000D02*
X125420000Y-116450000D01*
X125420000Y-116450000D02*
X126400000Y-115470000D01*
X157100260Y-102000000D02*
X157100260Y-101999740D01*
X157100260Y-101999740D02*
X159325000Y-99775000D01*
X158250000Y-91150000D02*
X158250000Y-96990000D01*
X158250000Y-96990000D02*
X159325000Y-98065000D01*
X159325000Y-98065000D02*
X159325000Y-99775000D01*
X159325000Y-99775000D02*
X159325000Y-102250000D01*
X159325000Y-102250000D02*
X159075000Y-102000000D01*
X163099740Y-102000000D02*
X163099740Y-101999740D01*
X163099740Y-101999740D02*
X160825000Y-99725000D01*
X162050000Y-91150000D02*
X162050000Y-96850000D01*
X162050000Y-96850000D02*
X160825000Y-98075000D01*
X160825000Y-98075000D02*
X160825000Y-99725000D01*
X160825000Y-99725000D02*
X160825000Y-102250000D01*
X160825000Y-102250000D02*
X161075000Y-102000000D01*
X157125260Y-116775000D02*
X157125260Y-116774740D01*
X157125260Y-116774740D02*
X159375000Y-114525000D01*
X158860000Y-112650000D02*
X158860000Y-112810000D01*
X158860000Y-112810000D02*
X159375000Y-113325000D01*
X159375000Y-113325000D02*
X159375000Y-114525000D01*
X159375000Y-114525000D02*
X159375000Y-117050000D01*
X163124740Y-116775000D02*
X163124740Y-116774740D01*
X163124740Y-116774740D02*
X160875000Y-114525000D01*
X161400000Y-112650000D02*
X161400000Y-112950000D01*
X161400000Y-112950000D02*
X160875000Y-113475000D01*
X160875000Y-113475000D02*
X160875000Y-114525000D01*
X160875000Y-114525000D02*
X160875000Y-117050000D01*
X162349740Y-116000000D02*
X163124740Y-116775000D01*
X156890000Y-129590000D02*
X172850000Y-129590000D01*
X156300000Y-129000000D02*
X156890000Y-129590000D01*
X176050000Y-129590000D02*
X176740260Y-129590000D01*
X176740260Y-129590000D02*
X177850000Y-130699740D01*
X172850000Y-129590000D02*
X176050000Y-129590000D01*
X176050000Y-129590000D02*
X176785000Y-129590000D01*
X176785000Y-129590000D02*
X177875000Y-128500000D01*
X154450000Y-91150000D02*
X154450000Y-94750000D01*
X152350000Y-134550000D02*
X154600000Y-136800000D01*
X152350000Y-96850000D02*
X152350000Y-134550000D01*
X154450000Y-94750000D02*
X152350000Y-96850000D01*
X175700000Y-139090000D02*
X176440260Y-139090000D01*
X176440260Y-139090000D02*
X177950000Y-140599740D01*
X172900000Y-139090000D02*
X175700000Y-139090000D01*
X175700000Y-139090000D02*
X177285000Y-139090000D01*
X177285000Y-139090000D02*
X177975000Y-138400000D01*
X163350000Y-148650000D02*
X172110000Y-148650000D01*
X147500000Y-132800000D02*
X163350000Y-148650000D01*
X147500000Y-114700000D02*
X147500000Y-132800000D01*
X172110000Y-148650000D02*
X172350000Y-148890000D01*
X175750000Y-148890000D02*
X176340260Y-148890000D01*
X176340260Y-148890000D02*
X177800000Y-150349740D01*
X172350000Y-148890000D02*
X175750000Y-148890000D01*
X175750000Y-148890000D02*
X177235000Y-148890000D01*
X177235000Y-148890000D02*
X177975000Y-148150000D01*
X172850000Y-158590000D02*
X169890000Y-158590000D01*
X149100000Y-95950000D02*
X150650000Y-94400000D01*
X144900000Y-133600000D02*
X144900000Y-112250000D01*
X169890000Y-158590000D02*
X144900000Y-133600000D01*
X150650000Y-94400000D02*
X150650000Y-91150000D01*
X175550000Y-158590000D02*
X177835000Y-158590000D01*
X177835000Y-158590000D02*
X178075000Y-158350000D01*
X172850000Y-158590000D02*
X175550000Y-158590000D01*
X175550000Y-158590000D02*
X175740260Y-158590000D01*
X175740260Y-158590000D02*
X177800000Y-160649740D01*
X143050000Y-113450000D02*
X143050000Y-145400000D01*
X142100000Y-112500000D02*
X143050000Y-113450000D01*
X147175260Y-154825000D02*
X149050000Y-154825000D01*
X149050000Y-154825000D02*
X149325000Y-155100000D01*
X147435000Y-150075000D02*
X147435000Y-154565260D01*
X147435000Y-154565260D02*
X147175260Y-154825000D01*
X146850000Y-91150000D02*
X146850000Y-95960000D01*
X146850000Y-95960000D02*
X145400000Y-97410000D01*
X144500000Y-95500000D02*
X143200000Y-96800000D01*
X143200000Y-96800000D02*
X143200000Y-97410000D01*
X141000000Y-97410000D02*
X141000000Y-96850000D01*
X143050000Y-94800000D02*
X143050000Y-91150000D01*
X141000000Y-96850000D02*
X143050000Y-94800000D01*
X140150000Y-95600000D02*
X138800000Y-96950000D01*
X138800000Y-96950000D02*
X138800000Y-97410000D01*
X139250000Y-91150000D02*
X139250000Y-93650000D01*
X139250000Y-93650000D02*
X136650000Y-96250000D01*
X136650000Y-96250000D02*
X136650000Y-106250000D01*
X134250000Y-139700000D02*
X128090000Y-145860000D01*
X128090000Y-145860000D02*
X126600000Y-145860000D01*
X122925000Y-145850000D02*
X126590000Y-145850000D01*
X126590000Y-145850000D02*
X126600000Y-145860000D01*
X131650000Y-106600000D02*
X131650000Y-129800000D01*
X133800000Y-104450000D02*
X131650000Y-106600000D01*
X122975000Y-131800000D02*
X126460000Y-131800000D01*
X126460000Y-131800000D02*
X126550000Y-131710000D01*
X135450000Y-91150000D02*
X135450000Y-98400000D01*
X129490000Y-118010000D02*
X126400000Y-118010000D01*
X129800000Y-117700000D02*
X129490000Y-118010000D01*
X135450000Y-98400000D02*
X130050000Y-103800000D01*
X122825000Y-117950000D02*
X126340000Y-117950000D01*
X126340000Y-117950000D02*
X126400000Y-118010000D01*
X122825000Y-104250000D02*
X126440000Y-104250000D01*
X126440000Y-104250000D02*
X126550000Y-104360000D01*
X174200000Y-106215000D02*
X174865260Y-106215000D01*
X174865260Y-106215000D02*
X176625000Y-107974740D01*
X172425000Y-106215000D02*
X174200000Y-106215000D01*
X174200000Y-106215000D02*
X176310000Y-106215000D01*
X176310000Y-106215000D02*
X176800000Y-105725000D01*
X165850000Y-91150000D02*
X165850000Y-95050000D01*
X171015000Y-106215000D02*
X172425000Y-106215000D01*
X169850000Y-105050000D02*
X171015000Y-106215000D01*
X169850000Y-99050000D02*
X169850000Y-105050000D01*
X165850000Y-95050000D02*
X169850000Y-99050000D01*
D25*
G36*
X133759679Y-94705272D02*
X133885910Y-94901441D01*
X134098110Y-95046431D01*
X134350000Y-95097440D01*
X134565000Y-95097440D01*
X134565000Y-98033421D01*
X130033435Y-102564985D01*
X129805421Y-102564786D01*
X129351343Y-102752408D01*
X129003629Y-103099515D01*
X128815215Y-103553266D01*
X128814786Y-104044579D01*
X129002408Y-104498657D01*
X129349515Y-104846371D01*
X129803266Y-105034785D01*
X130294579Y-105035214D01*
X130748657Y-104847592D01*
X131096371Y-104500485D01*
X131284785Y-104046734D01*
X131284986Y-103816594D01*
X135765000Y-99336579D01*
X135765000Y-105388426D01*
X135603629Y-105549515D01*
X135415215Y-106003266D01*
X135414786Y-106494579D01*
X135602408Y-106948657D01*
X135949515Y-107296371D01*
X136403266Y-107484785D01*
X136894579Y-107485214D01*
X137348657Y-107297592D01*
X137696371Y-106950485D01*
X137884785Y-106496734D01*
X137885214Y-106005421D01*
X137697592Y-105551343D01*
X137535000Y-105388467D01*
X137535000Y-99313381D01*
X137626673Y-99534699D01*
X137805302Y-99713327D01*
X138038691Y-99810000D01*
X138514250Y-99810000D01*
X138673000Y-99651250D01*
X138673000Y-98817000D01*
X138927000Y-98817000D01*
X138927000Y-99651250D01*
X139085750Y-99810000D01*
X139561309Y-99810000D01*
X139794698Y-99713327D01*
X139900000Y-99608026D01*
X140005302Y-99713327D01*
X140238691Y-99810000D01*
X140714250Y-99810000D01*
X140873000Y-99651250D01*
X140873000Y-98817000D01*
X141127000Y-98817000D01*
X141127000Y-99651250D01*
X141285750Y-99810000D01*
X141761309Y-99810000D01*
X141994698Y-99713327D01*
X142100000Y-99608026D01*
X142205302Y-99713327D01*
X142438691Y-99810000D01*
X142914250Y-99810000D01*
X143073000Y-99651250D01*
X143073000Y-98817000D01*
X143327000Y-98817000D01*
X143327000Y-99651250D01*
X143485750Y-99810000D01*
X143961309Y-99810000D01*
X144194698Y-99713327D01*
X144300000Y-99608026D01*
X144405302Y-99713327D01*
X144638691Y-99810000D01*
X145114250Y-99810000D01*
X145273000Y-99651250D01*
X145273000Y-98817000D01*
X145527000Y-98817000D01*
X145527000Y-99651250D01*
X145685750Y-99810000D01*
X146161309Y-99810000D01*
X146394698Y-99713327D01*
X146573327Y-99534699D01*
X146670000Y-99301310D01*
X146670000Y-98975750D01*
X146511250Y-98817000D01*
X145527000Y-98817000D01*
X145273000Y-98817000D01*
X143327000Y-98817000D01*
X143073000Y-98817000D01*
X141127000Y-98817000D01*
X140873000Y-98817000D01*
X138927000Y-98817000D01*
X138673000Y-98817000D01*
X138653000Y-98817000D01*
X138653000Y-98563000D01*
X138673000Y-98563000D01*
X138673000Y-98543000D01*
X138927000Y-98543000D01*
X138927000Y-98563000D01*
X140873000Y-98563000D01*
X140873000Y-98543000D01*
X141127000Y-98543000D01*
X141127000Y-98563000D01*
X143073000Y-98563000D01*
X143073000Y-98543000D01*
X143327000Y-98543000D01*
X143327000Y-98563000D01*
X145273000Y-98563000D01*
X145273000Y-98543000D01*
X145527000Y-98543000D01*
X145527000Y-98563000D01*
X146511250Y-98563000D01*
X146670000Y-98404250D01*
X146670000Y-98078690D01*
X146653371Y-98038545D01*
X146682440Y-97895000D01*
X146682440Y-97379140D01*
X147475787Y-96585792D01*
X147475790Y-96585790D01*
X147667633Y-96298675D01*
X147687528Y-96198657D01*
X147735001Y-95960000D01*
X147735000Y-95959995D01*
X147735000Y-95097440D01*
X147950000Y-95097440D01*
X148185317Y-95053162D01*
X148368237Y-94935456D01*
X148053629Y-95249515D01*
X147865215Y-95703266D01*
X147864786Y-96194579D01*
X148052408Y-96648657D01*
X148399515Y-96996371D01*
X148853266Y-97184785D01*
X149344579Y-97185214D01*
X149798657Y-96997592D01*
X150146371Y-96650485D01*
X150334785Y-96196734D01*
X150334986Y-95966594D01*
X151204139Y-95097440D01*
X151750000Y-95097440D01*
X151985317Y-95053162D01*
X152201441Y-94914090D01*
X152325547Y-94732455D01*
X152777596Y-94733117D01*
X152885910Y-94901441D01*
X152981598Y-94966822D01*
X151724210Y-96224210D01*
X151532367Y-96511325D01*
X151532367Y-96511326D01*
X151464999Y-96850000D01*
X151465000Y-96850005D01*
X151465000Y-134549995D01*
X151464999Y-134550000D01*
X151500259Y-134727260D01*
X151532367Y-134888675D01*
X151650183Y-135065000D01*
X151724210Y-135175790D01*
X153364985Y-136816564D01*
X153364786Y-137044579D01*
X153552408Y-137498657D01*
X153899515Y-137846371D01*
X154353266Y-138034785D01*
X154844579Y-138035214D01*
X155298657Y-137847592D01*
X155646371Y-137500485D01*
X155834785Y-137046734D01*
X155835214Y-136555421D01*
X155647592Y-136101343D01*
X155300485Y-135753629D01*
X154867145Y-135573690D01*
X171415000Y-135573690D01*
X171415000Y-136264250D01*
X171573750Y-136423000D01*
X172773000Y-136423000D01*
X172773000Y-135223750D01*
X173027000Y-135223750D01*
X173027000Y-136423000D01*
X174226250Y-136423000D01*
X174385000Y-136264250D01*
X174385000Y-135573690D01*
X174288327Y-135340301D01*
X174109698Y-135161673D01*
X173876309Y-135065000D01*
X173185750Y-135065000D01*
X173027000Y-135223750D01*
X172773000Y-135223750D01*
X172614250Y-135065000D01*
X171923691Y-135065000D01*
X171690302Y-135161673D01*
X171511673Y-135340301D01*
X171415000Y-135573690D01*
X154867145Y-135573690D01*
X154846734Y-135565215D01*
X154616593Y-135565014D01*
X153937590Y-134886010D01*
X175815130Y-134886010D01*
X175815130Y-135726059D01*
X175911803Y-135959448D01*
X176090431Y-136138077D01*
X176155688Y-136165107D01*
X176090000Y-136323691D01*
X176090000Y-136614250D01*
X176248750Y-136773000D01*
X177848000Y-136773000D01*
X177848000Y-135973750D01*
X177823000Y-135948750D01*
X177823000Y-134727260D01*
X178077000Y-134727260D01*
X178077000Y-136076000D01*
X178102000Y-136101000D01*
X178102000Y-136773000D01*
X179701250Y-136773000D01*
X179860000Y-136614250D01*
X179860000Y-136323691D01*
X179786990Y-136147430D01*
X179809569Y-136138077D01*
X179988197Y-135959448D01*
X180084870Y-135726059D01*
X180084870Y-134886010D01*
X179926120Y-134727260D01*
X178077000Y-134727260D01*
X177823000Y-134727260D01*
X175973880Y-134727260D01*
X175815130Y-134886010D01*
X153937590Y-134886010D01*
X153235000Y-134183420D01*
X153235000Y-133474461D01*
X175815130Y-133474461D01*
X175815130Y-134314510D01*
X175973880Y-134473260D01*
X177823000Y-134473260D01*
X177823000Y-133124520D01*
X178077000Y-133124520D01*
X178077000Y-134473260D01*
X179926120Y-134473260D01*
X180084870Y-134314510D01*
X180084870Y-133474461D01*
X179988197Y-133241072D01*
X179809569Y-133062443D01*
X179576180Y-132965770D01*
X178235750Y-132965770D01*
X178077000Y-133124520D01*
X177823000Y-133124520D01*
X177664250Y-132965770D01*
X176323820Y-132965770D01*
X176090431Y-133062443D01*
X175911803Y-133241072D01*
X175815130Y-133474461D01*
X153235000Y-133474461D01*
X153235000Y-129244579D01*
X155064786Y-129244579D01*
X155252408Y-129698657D01*
X155599515Y-130046371D01*
X156053266Y-130234785D01*
X156292951Y-130234994D01*
X156551325Y-130407633D01*
X156607516Y-130418810D01*
X156890000Y-130475001D01*
X156890005Y-130475000D01*
X171660568Y-130475000D01*
X171770853Y-130640054D01*
X172252622Y-130961961D01*
X172820907Y-131075000D01*
X172879093Y-131075000D01*
X173447378Y-130961961D01*
X173929147Y-130640054D01*
X174039432Y-130475000D01*
X175702690Y-130475000D01*
X175702690Y-131699230D01*
X175746968Y-131934547D01*
X175886040Y-132150671D01*
X176098240Y-132295661D01*
X176350130Y-132346670D01*
X179349870Y-132346670D01*
X179585187Y-132302392D01*
X179801311Y-132163320D01*
X179946301Y-131951120D01*
X179997310Y-131699230D01*
X179997310Y-130100000D01*
X180627560Y-130100000D01*
X180627560Y-132100000D01*
X180671838Y-132335317D01*
X180810910Y-132551441D01*
X181023110Y-132696431D01*
X181112260Y-132714484D01*
X180923559Y-132835910D01*
X180778569Y-133048110D01*
X180727560Y-133300000D01*
X180727560Y-135300000D01*
X180771838Y-135535317D01*
X180910910Y-135751441D01*
X181123110Y-135896431D01*
X181375000Y-135947440D01*
X184675000Y-135947440D01*
X184910317Y-135903162D01*
X185126441Y-135764090D01*
X185271431Y-135551890D01*
X185322440Y-135300000D01*
X185322440Y-133300000D01*
X185278162Y-133064683D01*
X185139090Y-132848559D01*
X184926890Y-132703569D01*
X184837740Y-132685516D01*
X185026441Y-132564090D01*
X185171431Y-132351890D01*
X185222440Y-132100000D01*
X185222440Y-130100000D01*
X185178162Y-129864683D01*
X185039090Y-129648559D01*
X184826890Y-129503569D01*
X184575000Y-129452560D01*
X181275000Y-129452560D01*
X181039683Y-129496838D01*
X180823559Y-129635910D01*
X180678569Y-129848110D01*
X180627560Y-130100000D01*
X179997310Y-130100000D01*
X179997310Y-129700250D01*
X179953032Y-129464933D01*
X179813960Y-129248809D01*
X179724331Y-129187568D01*
X179772440Y-128950000D01*
X179772440Y-128050000D01*
X179728162Y-127814683D01*
X179687461Y-127751432D01*
X179760000Y-127576309D01*
X179760000Y-127285750D01*
X179601250Y-127127000D01*
X178002000Y-127127000D01*
X178002000Y-127147000D01*
X177748000Y-127147000D01*
X177748000Y-127127000D01*
X176148750Y-127127000D01*
X175990000Y-127285750D01*
X175990000Y-127576309D01*
X176061755Y-127749541D01*
X176028569Y-127798110D01*
X175977560Y-128050000D01*
X175977560Y-128705000D01*
X174039432Y-128705000D01*
X173929147Y-128539946D01*
X173885223Y-128510597D01*
X174059698Y-128438327D01*
X174238327Y-128259699D01*
X174335000Y-128026310D01*
X174335000Y-127335750D01*
X174176250Y-127177000D01*
X172977000Y-127177000D01*
X172977000Y-127197000D01*
X172723000Y-127197000D01*
X172723000Y-127177000D01*
X171523750Y-127177000D01*
X171365000Y-127335750D01*
X171365000Y-128026310D01*
X171461673Y-128259699D01*
X171640302Y-128438327D01*
X171814777Y-128510597D01*
X171770853Y-128539946D01*
X171660568Y-128705000D01*
X157514380Y-128705000D01*
X157347592Y-128301343D01*
X157000485Y-127953629D01*
X156546734Y-127765215D01*
X156055421Y-127764786D01*
X155601343Y-127952408D01*
X155253629Y-128299515D01*
X155065215Y-128753266D01*
X155064786Y-129244579D01*
X153235000Y-129244579D01*
X153235000Y-126073690D01*
X171365000Y-126073690D01*
X171365000Y-126764250D01*
X171523750Y-126923000D01*
X172723000Y-126923000D01*
X172723000Y-125723750D01*
X172977000Y-125723750D01*
X172977000Y-126923000D01*
X174176250Y-126923000D01*
X174335000Y-126764250D01*
X174335000Y-126073690D01*
X174238327Y-125840301D01*
X174059698Y-125661673D01*
X173826309Y-125565000D01*
X173135750Y-125565000D01*
X172977000Y-125723750D01*
X172723000Y-125723750D01*
X172564250Y-125565000D01*
X171873691Y-125565000D01*
X171640302Y-125661673D01*
X171461673Y-125840301D01*
X171365000Y-126073690D01*
X153235000Y-126073690D01*
X153235000Y-124986010D01*
X175715130Y-124986010D01*
X175715130Y-125826059D01*
X175811803Y-126059448D01*
X175990431Y-126238077D01*
X176055688Y-126265107D01*
X175990000Y-126423691D01*
X175990000Y-126714250D01*
X176148750Y-126873000D01*
X177748000Y-126873000D01*
X177748000Y-126073750D01*
X177723000Y-126048750D01*
X177723000Y-124827260D01*
X177977000Y-124827260D01*
X177977000Y-126176000D01*
X178002000Y-126201000D01*
X178002000Y-126873000D01*
X179601250Y-126873000D01*
X179760000Y-126714250D01*
X179760000Y-126423691D01*
X179686990Y-126247430D01*
X179709569Y-126238077D01*
X179888197Y-126059448D01*
X179984870Y-125826059D01*
X179984870Y-124986010D01*
X179826120Y-124827260D01*
X177977000Y-124827260D01*
X177723000Y-124827260D01*
X175873880Y-124827260D01*
X175715130Y-124986010D01*
X153235000Y-124986010D01*
X153235000Y-120450000D01*
X155127560Y-120450000D01*
X155127560Y-123750000D01*
X155171838Y-123985317D01*
X155310910Y-124201441D01*
X155523110Y-124346431D01*
X155775000Y-124397440D01*
X157775000Y-124397440D01*
X158010317Y-124353162D01*
X158226441Y-124214090D01*
X158371431Y-124001890D01*
X158422440Y-123750000D01*
X158422440Y-120450000D01*
X161827560Y-120450000D01*
X161827560Y-123750000D01*
X161871838Y-123985317D01*
X162010910Y-124201441D01*
X162223110Y-124346431D01*
X162475000Y-124397440D01*
X164475000Y-124397440D01*
X164710317Y-124353162D01*
X164926441Y-124214090D01*
X165071431Y-124001890D01*
X165122440Y-123750000D01*
X165122440Y-123574461D01*
X175715130Y-123574461D01*
X175715130Y-124414510D01*
X175873880Y-124573260D01*
X177723000Y-124573260D01*
X177723000Y-123224520D01*
X177977000Y-123224520D01*
X177977000Y-124573260D01*
X179826120Y-124573260D01*
X179984870Y-124414510D01*
X179984870Y-123574461D01*
X179912606Y-123400000D01*
X180627560Y-123400000D01*
X180627560Y-125400000D01*
X180671838Y-125635317D01*
X180810910Y-125851441D01*
X181023110Y-125996431D01*
X181275000Y-126047440D01*
X184575000Y-126047440D01*
X184810317Y-126003162D01*
X185026441Y-125864090D01*
X185171431Y-125651890D01*
X185222440Y-125400000D01*
X185222440Y-123400000D01*
X185178162Y-123164683D01*
X185039090Y-122948559D01*
X184826890Y-122803569D01*
X184575000Y-122752560D01*
X181275000Y-122752560D01*
X181039683Y-122796838D01*
X180823559Y-122935910D01*
X180678569Y-123148110D01*
X180627560Y-123400000D01*
X179912606Y-123400000D01*
X179888197Y-123341072D01*
X179709569Y-123162443D01*
X179476180Y-123065770D01*
X178135750Y-123065770D01*
X177977000Y-123224520D01*
X177723000Y-123224520D01*
X177564250Y-123065770D01*
X176223820Y-123065770D01*
X175990431Y-123162443D01*
X175811803Y-123341072D01*
X175715130Y-123574461D01*
X165122440Y-123574461D01*
X165122440Y-120450000D01*
X165078162Y-120214683D01*
X164939090Y-119998559D01*
X164726890Y-119853569D01*
X164475000Y-119802560D01*
X162475000Y-119802560D01*
X162239683Y-119846838D01*
X162023559Y-119985910D01*
X161878569Y-120198110D01*
X161827560Y-120450000D01*
X158422440Y-120450000D01*
X158378162Y-120214683D01*
X158239090Y-119998559D01*
X158026890Y-119853569D01*
X157775000Y-119802560D01*
X155775000Y-119802560D01*
X155539683Y-119846838D01*
X155323559Y-119985910D01*
X155178569Y-120198110D01*
X155127560Y-120450000D01*
X153235000Y-120450000D01*
X153235000Y-115275130D01*
X155478330Y-115275130D01*
X155478330Y-118274870D01*
X155522608Y-118510187D01*
X155661680Y-118726311D01*
X155873880Y-118871301D01*
X156125770Y-118922310D01*
X158124750Y-118922310D01*
X158360067Y-118878032D01*
X158507415Y-118783216D01*
X158673110Y-118896431D01*
X158925000Y-118947440D01*
X159825000Y-118947440D01*
X160060317Y-118903162D01*
X160123478Y-118862519D01*
X160173110Y-118896431D01*
X160425000Y-118947440D01*
X161325000Y-118947440D01*
X161560317Y-118903162D01*
X161745547Y-118783970D01*
X161873360Y-118871301D01*
X162125250Y-118922310D01*
X164124230Y-118922310D01*
X164359547Y-118878032D01*
X164575671Y-118738960D01*
X164720661Y-118526760D01*
X164771670Y-118274870D01*
X164771670Y-115275130D01*
X164727392Y-115039813D01*
X164588320Y-114823689D01*
X164376120Y-114678699D01*
X164124230Y-114627690D01*
X162229270Y-114627690D01*
X161760000Y-114158420D01*
X161760000Y-114147440D01*
X162250000Y-114147440D01*
X162485317Y-114103162D01*
X162701441Y-113964090D01*
X162846431Y-113751890D01*
X162897440Y-113500000D01*
X162897440Y-112523690D01*
X171565000Y-112523690D01*
X171565000Y-113214250D01*
X171723750Y-113373000D01*
X172923000Y-113373000D01*
X172923000Y-112173750D01*
X173177000Y-112173750D01*
X173177000Y-113373000D01*
X174376250Y-113373000D01*
X174535000Y-113214250D01*
X174535000Y-112523690D01*
X174488327Y-112411010D01*
X174890130Y-112411010D01*
X174890130Y-113251059D01*
X174986803Y-113484448D01*
X175165431Y-113663077D01*
X175398820Y-113759750D01*
X175501841Y-113759750D01*
X175465000Y-113848691D01*
X175465000Y-114139250D01*
X175623750Y-114298000D01*
X177223000Y-114298000D01*
X177223000Y-114278000D01*
X177477000Y-114278000D01*
X177477000Y-114298000D01*
X179076250Y-114298000D01*
X179235000Y-114139250D01*
X179235000Y-113848691D01*
X179138327Y-113615302D01*
X179035335Y-113512310D01*
X179063197Y-113484448D01*
X179159870Y-113251059D01*
X179159870Y-112411010D01*
X179001120Y-112252260D01*
X177152000Y-112252260D01*
X177152000Y-112272260D01*
X176898000Y-112272260D01*
X176898000Y-112252260D01*
X175048880Y-112252260D01*
X174890130Y-112411010D01*
X174488327Y-112411010D01*
X174438327Y-112290301D01*
X174259698Y-112111673D01*
X174026309Y-112015000D01*
X173335750Y-112015000D01*
X173177000Y-112173750D01*
X172923000Y-112173750D01*
X172764250Y-112015000D01*
X172073691Y-112015000D01*
X171840302Y-112111673D01*
X171661673Y-112290301D01*
X171565000Y-112523690D01*
X162897440Y-112523690D01*
X162897440Y-111800000D01*
X162853162Y-111564683D01*
X162714090Y-111348559D01*
X162501890Y-111203569D01*
X162250000Y-111152560D01*
X160550000Y-111152560D01*
X160314683Y-111196838D01*
X160098559Y-111335910D01*
X159953569Y-111548110D01*
X159939914Y-111615541D01*
X159910054Y-111570853D01*
X159428285Y-111248946D01*
X158860000Y-111135907D01*
X158291715Y-111248946D01*
X157809946Y-111570853D01*
X157488039Y-112052622D01*
X157375000Y-112620907D01*
X157375000Y-112679093D01*
X157488039Y-113247378D01*
X157809946Y-113729147D01*
X158291715Y-114051054D01*
X158490000Y-114090495D01*
X158490000Y-114158421D01*
X158020731Y-114627690D01*
X156125770Y-114627690D01*
X155890453Y-114671968D01*
X155674329Y-114811040D01*
X155529339Y-115023240D01*
X155478330Y-115275130D01*
X153235000Y-115275130D01*
X153235000Y-110999461D01*
X174890130Y-110999461D01*
X174890130Y-111839510D01*
X175048880Y-111998260D01*
X176898000Y-111998260D01*
X176898000Y-110649520D01*
X177152000Y-110649520D01*
X177152000Y-111998260D01*
X179001120Y-111998260D01*
X179159870Y-111839510D01*
X179159870Y-110999461D01*
X179087606Y-110825000D01*
X180102560Y-110825000D01*
X180102560Y-112825000D01*
X180146838Y-113060317D01*
X180285910Y-113276441D01*
X180498110Y-113421431D01*
X180750000Y-113472440D01*
X184050000Y-113472440D01*
X184285317Y-113428162D01*
X184501441Y-113289090D01*
X184646431Y-113076890D01*
X184697440Y-112825000D01*
X184697440Y-110825000D01*
X184653162Y-110589683D01*
X184514090Y-110373559D01*
X184301890Y-110228569D01*
X184050000Y-110177560D01*
X180750000Y-110177560D01*
X180514683Y-110221838D01*
X180298559Y-110360910D01*
X180153569Y-110573110D01*
X180102560Y-110825000D01*
X179087606Y-110825000D01*
X179063197Y-110766072D01*
X178884569Y-110587443D01*
X178651180Y-110490770D01*
X177310750Y-110490770D01*
X177152000Y-110649520D01*
X176898000Y-110649520D01*
X176739250Y-110490770D01*
X175398820Y-110490770D01*
X175165431Y-110587443D01*
X174986803Y-110766072D01*
X174890130Y-110999461D01*
X153235000Y-110999461D01*
X153235000Y-105650000D01*
X155077560Y-105650000D01*
X155077560Y-108950000D01*
X155121838Y-109185317D01*
X155260910Y-109401441D01*
X155473110Y-109546431D01*
X155725000Y-109597440D01*
X157725000Y-109597440D01*
X157960317Y-109553162D01*
X158176441Y-109414090D01*
X158321431Y-109201890D01*
X158372440Y-108950000D01*
X158372440Y-105650000D01*
X161777560Y-105650000D01*
X161777560Y-108950000D01*
X161821838Y-109185317D01*
X161960910Y-109401441D01*
X162173110Y-109546431D01*
X162425000Y-109597440D01*
X164425000Y-109597440D01*
X164660317Y-109553162D01*
X164876441Y-109414090D01*
X165021431Y-109201890D01*
X165072440Y-108950000D01*
X165072440Y-105650000D01*
X165028162Y-105414683D01*
X164889090Y-105198559D01*
X164676890Y-105053569D01*
X164425000Y-105002560D01*
X162425000Y-105002560D01*
X162189683Y-105046838D01*
X161973559Y-105185910D01*
X161828569Y-105398110D01*
X161777560Y-105650000D01*
X158372440Y-105650000D01*
X158328162Y-105414683D01*
X158189090Y-105198559D01*
X157976890Y-105053569D01*
X157725000Y-105002560D01*
X155725000Y-105002560D01*
X155489683Y-105046838D01*
X155273559Y-105185910D01*
X155128569Y-105398110D01*
X155077560Y-105650000D01*
X153235000Y-105650000D01*
X153235000Y-97216580D01*
X155075787Y-95375792D01*
X155075790Y-95375790D01*
X155261776Y-95097440D01*
X155550000Y-95097440D01*
X155785317Y-95053162D01*
X156001441Y-94914090D01*
X156121749Y-94738013D01*
X156581180Y-94738686D01*
X156685910Y-94901441D01*
X156898110Y-95046431D01*
X157150000Y-95097440D01*
X157365000Y-95097440D01*
X157365000Y-96989995D01*
X157364999Y-96990000D01*
X157397802Y-97154907D01*
X157325000Y-97520907D01*
X157325000Y-97579093D01*
X157438039Y-98147378D01*
X157759946Y-98629147D01*
X158241715Y-98951054D01*
X158440000Y-98990495D01*
X158440000Y-99408421D01*
X157995731Y-99852690D01*
X156100770Y-99852690D01*
X155865453Y-99896968D01*
X155649329Y-100036040D01*
X155504339Y-100248240D01*
X155453330Y-100500130D01*
X155453330Y-103499870D01*
X155497608Y-103735187D01*
X155636680Y-103951311D01*
X155848880Y-104096301D01*
X156100770Y-104147310D01*
X158099750Y-104147310D01*
X158335067Y-104103032D01*
X158488383Y-104004376D01*
X158623110Y-104096431D01*
X158875000Y-104147440D01*
X159775000Y-104147440D01*
X160010317Y-104103162D01*
X160073478Y-104062519D01*
X160123110Y-104096431D01*
X160375000Y-104147440D01*
X161275000Y-104147440D01*
X161510317Y-104103162D01*
X161689579Y-103987810D01*
X161848360Y-104096301D01*
X162100250Y-104147310D01*
X164099230Y-104147310D01*
X164334547Y-104103032D01*
X164550671Y-103963960D01*
X164695661Y-103751760D01*
X164746670Y-103499870D01*
X164746670Y-100500130D01*
X164702392Y-100264813D01*
X164563320Y-100048689D01*
X164351120Y-99903699D01*
X164099230Y-99852690D01*
X162204270Y-99852690D01*
X161710000Y-99358420D01*
X161710000Y-99047440D01*
X162200000Y-99047440D01*
X162435317Y-99003162D01*
X162651441Y-98864090D01*
X162796431Y-98651890D01*
X162847440Y-98400000D01*
X162847440Y-97218896D01*
X162867634Y-97188674D01*
X162935001Y-96850000D01*
X162935000Y-96849995D01*
X162935000Y-95097440D01*
X163150000Y-95097440D01*
X163385317Y-95053162D01*
X163601441Y-94914090D01*
X163714154Y-94749130D01*
X164188347Y-94749824D01*
X164285910Y-94901441D01*
X164498110Y-95046431D01*
X164750000Y-95097440D01*
X164974436Y-95097440D01*
X165019544Y-95324210D01*
X165032367Y-95388675D01*
X165168472Y-95592371D01*
X165224210Y-95675790D01*
X168965000Y-99416579D01*
X168965000Y-105049995D01*
X168964999Y-105050000D01*
X169014018Y-105296431D01*
X169032367Y-105388675D01*
X169166360Y-105589211D01*
X169224210Y-105675790D01*
X170389208Y-106840787D01*
X170389210Y-106840790D01*
X170676325Y-107032633D01*
X170732516Y-107043810D01*
X171015000Y-107100001D01*
X171015005Y-107100000D01*
X171235568Y-107100000D01*
X171345853Y-107265054D01*
X171827622Y-107586961D01*
X172395907Y-107700000D01*
X172454093Y-107700000D01*
X173022378Y-107586961D01*
X173504147Y-107265054D01*
X173614432Y-107100000D01*
X174477690Y-107100000D01*
X174477690Y-108974230D01*
X174521968Y-109209547D01*
X174661040Y-109425671D01*
X174873240Y-109570661D01*
X175125130Y-109621670D01*
X178124870Y-109621670D01*
X178360187Y-109577392D01*
X178576311Y-109438320D01*
X178721301Y-109226120D01*
X178772310Y-108974230D01*
X178772310Y-107325000D01*
X179552560Y-107325000D01*
X179552560Y-109325000D01*
X179596838Y-109560317D01*
X179735910Y-109776441D01*
X179948110Y-109921431D01*
X180200000Y-109972440D01*
X183500000Y-109972440D01*
X183735317Y-109928162D01*
X183951441Y-109789090D01*
X184096431Y-109576890D01*
X184147440Y-109325000D01*
X184147440Y-107325000D01*
X184103162Y-107089683D01*
X183964090Y-106873559D01*
X183751890Y-106728569D01*
X183500000Y-106677560D01*
X180200000Y-106677560D01*
X179964683Y-106721838D01*
X179748559Y-106860910D01*
X179603569Y-107073110D01*
X179552560Y-107325000D01*
X178772310Y-107325000D01*
X178772310Y-106975250D01*
X178728032Y-106739933D01*
X178588960Y-106523809D01*
X178582994Y-106519733D01*
X178646431Y-106426890D01*
X178697440Y-106175000D01*
X178697440Y-105275000D01*
X178653162Y-105039683D01*
X178612461Y-104976432D01*
X178685000Y-104801309D01*
X178685000Y-104510750D01*
X178526250Y-104352000D01*
X176927000Y-104352000D01*
X176927000Y-104372000D01*
X176673000Y-104372000D01*
X176673000Y-104352000D01*
X175073750Y-104352000D01*
X174915000Y-104510750D01*
X174915000Y-104801309D01*
X174986755Y-104974541D01*
X174953569Y-105023110D01*
X174902560Y-105275000D01*
X174902560Y-105330000D01*
X174865265Y-105330000D01*
X174865260Y-105329999D01*
X174865255Y-105330000D01*
X173614432Y-105330000D01*
X173504147Y-105164946D01*
X173460223Y-105135597D01*
X173634698Y-105063327D01*
X173813327Y-104884699D01*
X173910000Y-104651310D01*
X173910000Y-103960750D01*
X173751250Y-103802000D01*
X172552000Y-103802000D01*
X172552000Y-103822000D01*
X172298000Y-103822000D01*
X172298000Y-103802000D01*
X171098750Y-103802000D01*
X170940000Y-103960750D01*
X170940000Y-104651310D01*
X171036673Y-104884699D01*
X171215302Y-105063327D01*
X171389777Y-105135597D01*
X171345853Y-105164946D01*
X171294052Y-105242472D01*
X170735000Y-104683420D01*
X170735000Y-102698690D01*
X170940000Y-102698690D01*
X170940000Y-103389250D01*
X171098750Y-103548000D01*
X172298000Y-103548000D01*
X172298000Y-102348750D01*
X172552000Y-102348750D01*
X172552000Y-103548000D01*
X173751250Y-103548000D01*
X173910000Y-103389250D01*
X173910000Y-102698690D01*
X173813327Y-102465301D01*
X173634698Y-102286673D01*
X173572743Y-102261010D01*
X174490130Y-102261010D01*
X174490130Y-103101059D01*
X174586803Y-103334448D01*
X174765431Y-103513077D01*
X174941043Y-103585818D01*
X174915000Y-103648691D01*
X174915000Y-103939250D01*
X175073750Y-104098000D01*
X176673000Y-104098000D01*
X176673000Y-104078000D01*
X176927000Y-104078000D01*
X176927000Y-104098000D01*
X178526250Y-104098000D01*
X178685000Y-103939250D01*
X178685000Y-103648691D01*
X178588327Y-103415302D01*
X178585335Y-103412310D01*
X178663197Y-103334448D01*
X178759870Y-103101059D01*
X178759870Y-102261010D01*
X178601120Y-102102260D01*
X176752000Y-102102260D01*
X176752000Y-102122260D01*
X176498000Y-102122260D01*
X176498000Y-102102260D01*
X174648880Y-102102260D01*
X174490130Y-102261010D01*
X173572743Y-102261010D01*
X173401309Y-102190000D01*
X172710750Y-102190000D01*
X172552000Y-102348750D01*
X172298000Y-102348750D01*
X172139250Y-102190000D01*
X171448691Y-102190000D01*
X171215302Y-102286673D01*
X171036673Y-102465301D01*
X170940000Y-102698690D01*
X170735000Y-102698690D01*
X170735000Y-100849461D01*
X174490130Y-100849461D01*
X174490130Y-101689510D01*
X174648880Y-101848260D01*
X176498000Y-101848260D01*
X176498000Y-100499520D01*
X176752000Y-100499520D01*
X176752000Y-101848260D01*
X178601120Y-101848260D01*
X178759870Y-101689510D01*
X178759870Y-100849461D01*
X178666896Y-100625000D01*
X179552560Y-100625000D01*
X179552560Y-102625000D01*
X179596838Y-102860317D01*
X179735910Y-103076441D01*
X179948110Y-103221431D01*
X180200000Y-103272440D01*
X183500000Y-103272440D01*
X183735317Y-103228162D01*
X183951441Y-103089090D01*
X184096431Y-102876890D01*
X184147440Y-102625000D01*
X184147440Y-100625000D01*
X184103162Y-100389683D01*
X183964090Y-100173559D01*
X183751890Y-100028569D01*
X183500000Y-99977560D01*
X180200000Y-99977560D01*
X179964683Y-100021838D01*
X179748559Y-100160910D01*
X179603569Y-100373110D01*
X179552560Y-100625000D01*
X178666896Y-100625000D01*
X178663197Y-100616072D01*
X178484569Y-100437443D01*
X178251180Y-100340770D01*
X176910750Y-100340770D01*
X176752000Y-100499520D01*
X176498000Y-100499520D01*
X176339250Y-100340770D01*
X174998820Y-100340770D01*
X174765431Y-100437443D01*
X174586803Y-100616072D01*
X174490130Y-100849461D01*
X170735000Y-100849461D01*
X170735000Y-99050005D01*
X170735001Y-99050000D01*
X170667633Y-98711325D01*
X170616846Y-98635317D01*
X170475790Y-98424210D01*
X170475787Y-98424208D01*
X167117502Y-95065922D01*
X167185317Y-95053162D01*
X167401441Y-94914090D01*
X167510356Y-94754688D01*
X171033128Y-94759846D01*
X171296882Y-94908169D01*
X171296883Y-94908169D01*
X171296884Y-94908170D01*
X171560201Y-94994242D01*
X172065303Y-95054930D01*
X172108000Y-95051646D01*
X172150000Y-95060000D01*
X182771212Y-95060000D01*
X183054383Y-95123631D01*
X189876125Y-101765853D01*
X190040000Y-102711089D01*
X190040000Y-163180069D01*
X189858948Y-164090278D01*
X186802152Y-166715988D01*
X186430069Y-166790000D01*
X119307211Y-166790000D01*
X111608164Y-159503403D01*
X111560000Y-159275722D01*
X111560000Y-97619606D01*
X114101783Y-95077823D01*
X114208746Y-95060000D01*
X115126581Y-95060000D01*
X115026723Y-95126723D01*
X112176723Y-97976723D01*
X111909009Y-98377386D01*
X111815000Y-98850000D01*
X111815000Y-152050000D01*
X111909009Y-152522614D01*
X112176723Y-152923277D01*
X114526723Y-155273277D01*
X114927386Y-155540991D01*
X115400000Y-155635000D01*
X121965000Y-155635000D01*
X121965000Y-157250000D01*
X122059009Y-157722614D01*
X122326723Y-158123277D01*
X130026723Y-165823277D01*
X130427386Y-166090991D01*
X130900000Y-166185000D01*
X185300000Y-166185000D01*
X185772614Y-166090991D01*
X186173277Y-165823277D01*
X188573277Y-163423277D01*
X188840991Y-163022614D01*
X188935000Y-162550000D01*
X188935000Y-123350000D01*
X188840991Y-122877386D01*
X188573277Y-122476723D01*
X186623277Y-120526723D01*
X186222614Y-120259009D01*
X185750000Y-120165000D01*
X184089540Y-120165000D01*
X184285317Y-120128162D01*
X184501441Y-119989090D01*
X184646431Y-119776890D01*
X184697440Y-119525000D01*
X184697440Y-117525000D01*
X184653162Y-117289683D01*
X184514090Y-117073559D01*
X184301890Y-116928569D01*
X184050000Y-116877560D01*
X180750000Y-116877560D01*
X180514683Y-116921838D01*
X180298559Y-117060910D01*
X180153569Y-117273110D01*
X180102560Y-117525000D01*
X180102560Y-119455746D01*
X179172310Y-118525496D01*
X179172310Y-117125250D01*
X179128032Y-116889933D01*
X179074036Y-116806021D01*
X179196431Y-116626890D01*
X179247440Y-116375000D01*
X179247440Y-115475000D01*
X179203162Y-115239683D01*
X179162461Y-115176432D01*
X179235000Y-115001309D01*
X179235000Y-114710750D01*
X179076250Y-114552000D01*
X177477000Y-114552000D01*
X177477000Y-114572000D01*
X177223000Y-114572000D01*
X177223000Y-114552000D01*
X175623750Y-114552000D01*
X175465000Y-114710750D01*
X175465000Y-114805000D01*
X174343025Y-114805000D01*
X174438327Y-114709699D01*
X174535000Y-114476310D01*
X174535000Y-113785750D01*
X174376250Y-113627000D01*
X173177000Y-113627000D01*
X173177000Y-113647000D01*
X172923000Y-113647000D01*
X172923000Y-113627000D01*
X171723750Y-113627000D01*
X171565000Y-113785750D01*
X171565000Y-114476310D01*
X171661673Y-114709699D01*
X171840302Y-114888327D01*
X172014777Y-114960597D01*
X171970853Y-114989946D01*
X171648946Y-115471715D01*
X171535907Y-116040000D01*
X171648946Y-116608285D01*
X171970853Y-117090054D01*
X172452622Y-117411961D01*
X173020907Y-117525000D01*
X173079093Y-117525000D01*
X173647378Y-117411961D01*
X173852355Y-117275000D01*
X174428706Y-117275000D01*
X174877690Y-117723984D01*
X174877690Y-119124230D01*
X174921968Y-119359547D01*
X175061040Y-119575671D01*
X175273240Y-119720661D01*
X175525130Y-119771670D01*
X176925376Y-119771670D01*
X179426983Y-122273277D01*
X179827646Y-122540991D01*
X180300260Y-122635000D01*
X185238446Y-122635000D01*
X186465000Y-123861554D01*
X186465000Y-162038446D01*
X184788446Y-163715000D01*
X131411554Y-163715000D01*
X127021554Y-159325000D01*
X132252560Y-159325000D01*
X132252560Y-162625000D01*
X132296838Y-162860317D01*
X132435910Y-163076441D01*
X132648110Y-163221431D01*
X132900000Y-163272440D01*
X134900000Y-163272440D01*
X135135317Y-163228162D01*
X135351441Y-163089090D01*
X135496431Y-162876890D01*
X135547440Y-162625000D01*
X135547440Y-159325000D01*
X138952560Y-159325000D01*
X138952560Y-162625000D01*
X138996838Y-162860317D01*
X139135910Y-163076441D01*
X139348110Y-163221431D01*
X139600000Y-163272440D01*
X141600000Y-163272440D01*
X141835317Y-163228162D01*
X142051441Y-163089090D01*
X142196431Y-162876890D01*
X142247440Y-162625000D01*
X142247440Y-159325000D01*
X142203162Y-159089683D01*
X142064090Y-158873559D01*
X141851890Y-158728569D01*
X141600000Y-158677560D01*
X139600000Y-158677560D01*
X139364683Y-158721838D01*
X139148559Y-158860910D01*
X139003569Y-159073110D01*
X138952560Y-159325000D01*
X135547440Y-159325000D01*
X135503162Y-159089683D01*
X135364090Y-158873559D01*
X135151890Y-158728569D01*
X134900000Y-158677560D01*
X132900000Y-158677560D01*
X132664683Y-158721838D01*
X132448559Y-158860910D01*
X132303569Y-159073110D01*
X132252560Y-159325000D01*
X127021554Y-159325000D01*
X126196554Y-158500000D01*
X145077560Y-158500000D01*
X145077560Y-161800000D01*
X145121838Y-162035317D01*
X145260910Y-162251441D01*
X145473110Y-162396431D01*
X145725000Y-162447440D01*
X147725000Y-162447440D01*
X147960317Y-162403162D01*
X148176441Y-162264090D01*
X148321431Y-162051890D01*
X148372440Y-161800000D01*
X148372440Y-158500000D01*
X151777560Y-158500000D01*
X151777560Y-161800000D01*
X151821838Y-162035317D01*
X151960910Y-162251441D01*
X152173110Y-162396431D01*
X152425000Y-162447440D01*
X154425000Y-162447440D01*
X154660317Y-162403162D01*
X154876441Y-162264090D01*
X155021431Y-162051890D01*
X155072440Y-161800000D01*
X155072440Y-158500000D01*
X155028162Y-158264683D01*
X154889090Y-158048559D01*
X154676890Y-157903569D01*
X154425000Y-157852560D01*
X152425000Y-157852560D01*
X152189683Y-157896838D01*
X151973559Y-158035910D01*
X151828569Y-158248110D01*
X151777560Y-158500000D01*
X148372440Y-158500000D01*
X148328162Y-158264683D01*
X148189090Y-158048559D01*
X147976890Y-157903569D01*
X147725000Y-157852560D01*
X145725000Y-157852560D01*
X145489683Y-157896838D01*
X145273559Y-158035910D01*
X145128569Y-158248110D01*
X145077560Y-158500000D01*
X126196554Y-158500000D01*
X124435000Y-156738446D01*
X124435000Y-155635000D01*
X132603330Y-155635000D01*
X132603330Y-155899870D01*
X132647608Y-156135187D01*
X132786680Y-156351311D01*
X132998880Y-156496301D01*
X133250770Y-156547310D01*
X135249750Y-156547310D01*
X135355801Y-156527355D01*
X135402560Y-156574114D01*
X135402560Y-157175000D01*
X135446838Y-157410317D01*
X135585910Y-157626441D01*
X135798110Y-157771431D01*
X136050000Y-157822440D01*
X136950000Y-157822440D01*
X137185317Y-157778162D01*
X137248568Y-157737461D01*
X137423691Y-157810000D01*
X137714250Y-157810000D01*
X137873000Y-157651250D01*
X137873000Y-156052000D01*
X137853000Y-156052000D01*
X137853000Y-155798000D01*
X137873000Y-155798000D01*
X137873000Y-154198750D01*
X138127000Y-154198750D01*
X138127000Y-155798000D01*
X138147000Y-155798000D01*
X138147000Y-156052000D01*
X138127000Y-156052000D01*
X138127000Y-157651250D01*
X138285750Y-157810000D01*
X138576309Y-157810000D01*
X138809698Y-157713327D01*
X138988327Y-157534699D01*
X139085000Y-157301310D01*
X139085000Y-156518740D01*
X139123941Y-156534870D01*
X139963990Y-156534870D01*
X140122740Y-156376120D01*
X140122740Y-154527000D01*
X140376740Y-154527000D01*
X140376740Y-156376120D01*
X140535490Y-156534870D01*
X141375539Y-156534870D01*
X141608928Y-156438197D01*
X141787557Y-156259569D01*
X141884230Y-156026180D01*
X141884230Y-154685750D01*
X141725480Y-154527000D01*
X140376740Y-154527000D01*
X140122740Y-154527000D01*
X140102740Y-154527000D01*
X140102740Y-154273000D01*
X140122740Y-154273000D01*
X140122740Y-152423880D01*
X140376740Y-152423880D01*
X140376740Y-154273000D01*
X141725480Y-154273000D01*
X141884230Y-154114250D01*
X141884230Y-153325130D01*
X145528330Y-153325130D01*
X145528330Y-156324870D01*
X145572608Y-156560187D01*
X145711680Y-156776311D01*
X145923880Y-156921301D01*
X146175770Y-156972310D01*
X148174750Y-156972310D01*
X148410067Y-156928032D01*
X148505915Y-156866355D01*
X148623110Y-156946431D01*
X148875000Y-156997440D01*
X149775000Y-156997440D01*
X150010317Y-156953162D01*
X150073568Y-156912461D01*
X150248691Y-156985000D01*
X150539250Y-156985000D01*
X150698000Y-156826250D01*
X150698000Y-155227000D01*
X150678000Y-155227000D01*
X150678000Y-154973000D01*
X150698000Y-154973000D01*
X150698000Y-153373750D01*
X150952000Y-153373750D01*
X150952000Y-154973000D01*
X150972000Y-154973000D01*
X150972000Y-155227000D01*
X150952000Y-155227000D01*
X150952000Y-156826250D01*
X151110750Y-156985000D01*
X151401309Y-156985000D01*
X151634698Y-156888327D01*
X151737690Y-156785336D01*
X151815552Y-156863197D01*
X152048941Y-156959870D01*
X152888990Y-156959870D01*
X153047740Y-156801120D01*
X153047740Y-154952000D01*
X153301740Y-154952000D01*
X153301740Y-156801120D01*
X153460490Y-156959870D01*
X154300539Y-156959870D01*
X154533928Y-156863197D01*
X154712557Y-156684569D01*
X154809230Y-156451180D01*
X154809230Y-155110750D01*
X154650480Y-154952000D01*
X153301740Y-154952000D01*
X153047740Y-154952000D01*
X153027740Y-154952000D01*
X153027740Y-154698000D01*
X153047740Y-154698000D01*
X153047740Y-152848880D01*
X153301740Y-152848880D01*
X153301740Y-154698000D01*
X154650480Y-154698000D01*
X154809230Y-154539250D01*
X154809230Y-153198820D01*
X154712557Y-152965431D01*
X154533928Y-152786803D01*
X154300539Y-152690130D01*
X153460490Y-152690130D01*
X153301740Y-152848880D01*
X153047740Y-152848880D01*
X152888990Y-152690130D01*
X152048941Y-152690130D01*
X151815552Y-152786803D01*
X151636923Y-152965431D01*
X151540250Y-153198820D01*
X151540250Y-153272551D01*
X151401309Y-153215000D01*
X151110750Y-153215000D01*
X150952000Y-153373750D01*
X150698000Y-153373750D01*
X150539250Y-153215000D01*
X150248691Y-153215000D01*
X150075459Y-153286755D01*
X150026890Y-153253569D01*
X149775000Y-153202560D01*
X148875000Y-153202560D01*
X148801721Y-153216348D01*
X148777912Y-153089813D01*
X148638840Y-152873689D01*
X148426640Y-152728699D01*
X148320000Y-152707104D01*
X148320000Y-151264432D01*
X148485054Y-151154147D01*
X148514403Y-151110223D01*
X148586673Y-151284698D01*
X148765301Y-151463327D01*
X148998690Y-151560000D01*
X149689250Y-151560000D01*
X149848000Y-151401250D01*
X149848000Y-150202000D01*
X150102000Y-150202000D01*
X150102000Y-151401250D01*
X150260750Y-151560000D01*
X150951310Y-151560000D01*
X151184699Y-151463327D01*
X151363327Y-151284698D01*
X151460000Y-151051309D01*
X151460000Y-150360750D01*
X151301250Y-150202000D01*
X150102000Y-150202000D01*
X149848000Y-150202000D01*
X149828000Y-150202000D01*
X149828000Y-149948000D01*
X149848000Y-149948000D01*
X149848000Y-148748750D01*
X150102000Y-148748750D01*
X150102000Y-149948000D01*
X151301250Y-149948000D01*
X151460000Y-149789250D01*
X151460000Y-149098691D01*
X151363327Y-148865302D01*
X151184699Y-148686673D01*
X150951310Y-148590000D01*
X150260750Y-148590000D01*
X150102000Y-148748750D01*
X149848000Y-148748750D01*
X149689250Y-148590000D01*
X148998690Y-148590000D01*
X148765301Y-148686673D01*
X148586673Y-148865302D01*
X148514403Y-149039777D01*
X148485054Y-148995853D01*
X148003285Y-148673946D01*
X147435000Y-148560907D01*
X146866715Y-148673946D01*
X146384946Y-148995853D01*
X146063039Y-149477622D01*
X145950000Y-150045907D01*
X145950000Y-150104093D01*
X146063039Y-150672378D01*
X146384946Y-151154147D01*
X146550000Y-151264432D01*
X146550000Y-152677690D01*
X146175770Y-152677690D01*
X145940453Y-152721968D01*
X145724329Y-152861040D01*
X145579339Y-153073240D01*
X145528330Y-153325130D01*
X141884230Y-153325130D01*
X141884230Y-152773820D01*
X141787557Y-152540431D01*
X141608928Y-152361803D01*
X141375539Y-152265130D01*
X140535490Y-152265130D01*
X140376740Y-152423880D01*
X140122740Y-152423880D01*
X139963990Y-152265130D01*
X139123941Y-152265130D01*
X138890552Y-152361803D01*
X138711923Y-152540431D01*
X138615250Y-152773820D01*
X138615250Y-154056130D01*
X138576309Y-154040000D01*
X138285750Y-154040000D01*
X138127000Y-154198750D01*
X137873000Y-154198750D01*
X137714250Y-154040000D01*
X137423691Y-154040000D01*
X137250459Y-154111755D01*
X137201890Y-154078569D01*
X136950000Y-154027560D01*
X136369254Y-154027560D01*
X137033277Y-153363537D01*
X137300991Y-152962874D01*
X137395000Y-152490260D01*
X137395000Y-150743025D01*
X137490301Y-150838327D01*
X137723690Y-150935000D01*
X138414250Y-150935000D01*
X138573000Y-150776250D01*
X138573000Y-149577000D01*
X138827000Y-149577000D01*
X138827000Y-150776250D01*
X138985750Y-150935000D01*
X139676310Y-150935000D01*
X139909699Y-150838327D01*
X140088327Y-150659698D01*
X140185000Y-150426309D01*
X140185000Y-149735750D01*
X140026250Y-149577000D01*
X138827000Y-149577000D01*
X138573000Y-149577000D01*
X138553000Y-149577000D01*
X138553000Y-149323000D01*
X138573000Y-149323000D01*
X138573000Y-148123750D01*
X138827000Y-148123750D01*
X138827000Y-149323000D01*
X140026250Y-149323000D01*
X140185000Y-149164250D01*
X140185000Y-148473691D01*
X140088327Y-148240302D01*
X139909699Y-148061673D01*
X139676310Y-147965000D01*
X138985750Y-147965000D01*
X138827000Y-148123750D01*
X138573000Y-148123750D01*
X138414250Y-147965000D01*
X137723690Y-147965000D01*
X137490301Y-148061673D01*
X137311673Y-148240302D01*
X137239403Y-148414777D01*
X137210054Y-148370853D01*
X136728285Y-148048946D01*
X136160000Y-147935907D01*
X135591715Y-148048946D01*
X135109946Y-148370853D01*
X134788039Y-148852622D01*
X134675000Y-149420907D01*
X134675000Y-149479093D01*
X134788039Y-150047378D01*
X134925000Y-150252355D01*
X134925000Y-151978706D01*
X134651016Y-152252690D01*
X133250770Y-152252690D01*
X133015453Y-152296968D01*
X132799329Y-152436040D01*
X132654339Y-152648240D01*
X132603330Y-152900130D01*
X132603330Y-153165000D01*
X115911554Y-153165000D01*
X114285000Y-151538446D01*
X114285000Y-148950000D01*
X115577560Y-148950000D01*
X115577560Y-150950000D01*
X115621838Y-151185317D01*
X115760910Y-151401441D01*
X115973110Y-151546431D01*
X116225000Y-151597440D01*
X119525000Y-151597440D01*
X119760317Y-151553162D01*
X119976441Y-151414090D01*
X120121431Y-151201890D01*
X120172440Y-150950000D01*
X120172440Y-148950000D01*
X120128162Y-148714683D01*
X120109545Y-148685750D01*
X125115000Y-148685750D01*
X125115000Y-149376310D01*
X125211673Y-149609699D01*
X125390302Y-149788327D01*
X125623691Y-149885000D01*
X126314250Y-149885000D01*
X126473000Y-149726250D01*
X126473000Y-148527000D01*
X126727000Y-148527000D01*
X126727000Y-149726250D01*
X126885750Y-149885000D01*
X127576309Y-149885000D01*
X127809698Y-149788327D01*
X127988327Y-149609699D01*
X128085000Y-149376310D01*
X128085000Y-148685750D01*
X127926250Y-148527000D01*
X126727000Y-148527000D01*
X126473000Y-148527000D01*
X125273750Y-148527000D01*
X125115000Y-148685750D01*
X120109545Y-148685750D01*
X119989090Y-148498559D01*
X119776890Y-148353569D01*
X119525000Y-148302560D01*
X116225000Y-148302560D01*
X115989683Y-148346838D01*
X115773559Y-148485910D01*
X115628569Y-148698110D01*
X115577560Y-148950000D01*
X114285000Y-148950000D01*
X114285000Y-147635750D01*
X121040000Y-147635750D01*
X121040000Y-147926309D01*
X121136673Y-148159698D01*
X121315301Y-148338327D01*
X121548690Y-148435000D01*
X122639250Y-148435000D01*
X122798000Y-148276250D01*
X122798000Y-147477000D01*
X123052000Y-147477000D01*
X123052000Y-148276250D01*
X123210750Y-148435000D01*
X124301310Y-148435000D01*
X124534699Y-148338327D01*
X124713327Y-148159698D01*
X124810000Y-147926309D01*
X124810000Y-147635750D01*
X124651250Y-147477000D01*
X123052000Y-147477000D01*
X122798000Y-147477000D01*
X121198750Y-147477000D01*
X121040000Y-147635750D01*
X114285000Y-147635750D01*
X114285000Y-140750000D01*
X115577560Y-140750000D01*
X115577560Y-142750000D01*
X115621838Y-142985317D01*
X115760910Y-143201441D01*
X115973110Y-143346431D01*
X116225000Y-143397440D01*
X119525000Y-143397440D01*
X119760317Y-143353162D01*
X119976441Y-143214090D01*
X120121431Y-143001890D01*
X120172440Y-142750000D01*
X120172440Y-140750000D01*
X120128162Y-140514683D01*
X119989090Y-140298559D01*
X119776890Y-140153569D01*
X119525000Y-140102560D01*
X116225000Y-140102560D01*
X115989683Y-140146838D01*
X115773559Y-140285910D01*
X115628569Y-140498110D01*
X115577560Y-140750000D01*
X114285000Y-140750000D01*
X114285000Y-139935000D01*
X121468446Y-139935000D01*
X124998446Y-143465000D01*
X124649669Y-143465000D01*
X124639090Y-143448559D01*
X124426890Y-143303569D01*
X124175000Y-143252560D01*
X121675000Y-143252560D01*
X121439683Y-143296838D01*
X121223559Y-143435910D01*
X121078569Y-143648110D01*
X121027560Y-143900000D01*
X121027560Y-144800000D01*
X121071838Y-145035317D01*
X121112481Y-145098478D01*
X121078569Y-145148110D01*
X121027560Y-145400000D01*
X121027560Y-146300000D01*
X121071838Y-146535317D01*
X121112539Y-146598568D01*
X121040000Y-146773691D01*
X121040000Y-147064250D01*
X121198750Y-147223000D01*
X122798000Y-147223000D01*
X122798000Y-147203000D01*
X123052000Y-147203000D01*
X123052000Y-147223000D01*
X124651250Y-147223000D01*
X124810000Y-147064250D01*
X124810000Y-146773691D01*
X124793974Y-146735000D01*
X125403886Y-146735000D01*
X125520853Y-146910054D01*
X125564777Y-146939403D01*
X125390302Y-147011673D01*
X125211673Y-147190301D01*
X125115000Y-147423690D01*
X125115000Y-148114250D01*
X125273750Y-148273000D01*
X126473000Y-148273000D01*
X126473000Y-148253000D01*
X126727000Y-148253000D01*
X126727000Y-148273000D01*
X127926250Y-148273000D01*
X128085000Y-148114250D01*
X128085000Y-147423690D01*
X127988327Y-147190301D01*
X127809698Y-147011673D01*
X127635223Y-146939403D01*
X127679147Y-146910054D01*
X127789432Y-146745000D01*
X128089995Y-146745000D01*
X128090000Y-146745001D01*
X128372484Y-146688810D01*
X128428675Y-146677633D01*
X128715790Y-146485790D01*
X128715791Y-146485789D01*
X134266564Y-140935015D01*
X134494579Y-140935214D01*
X134948657Y-140747592D01*
X135296371Y-140400485D01*
X135484785Y-139946734D01*
X135485214Y-139455421D01*
X135297592Y-139001343D01*
X134950485Y-138653629D01*
X134496734Y-138465215D01*
X134005421Y-138464786D01*
X133551343Y-138652408D01*
X133203629Y-138999515D01*
X133015215Y-139453266D01*
X133015014Y-139683407D01*
X127762992Y-144935429D01*
X127679147Y-144809946D01*
X127349974Y-144590000D01*
X127679147Y-144370054D01*
X128001054Y-143888285D01*
X128114093Y-143320000D01*
X128001054Y-142751715D01*
X127679147Y-142269946D01*
X127197378Y-141948039D01*
X126919275Y-141892721D01*
X122853277Y-137826723D01*
X122452614Y-137559009D01*
X121980000Y-137465000D01*
X119869622Y-137465000D01*
X120026441Y-137364090D01*
X120171431Y-137151890D01*
X120222440Y-136900000D01*
X120222440Y-134900000D01*
X120178162Y-134664683D01*
X120095196Y-134535750D01*
X125065000Y-134535750D01*
X125065000Y-135226310D01*
X125161673Y-135459699D01*
X125340302Y-135638327D01*
X125573691Y-135735000D01*
X126264250Y-135735000D01*
X126423000Y-135576250D01*
X126423000Y-134377000D01*
X126677000Y-134377000D01*
X126677000Y-135576250D01*
X126835750Y-135735000D01*
X127526309Y-135735000D01*
X127759698Y-135638327D01*
X127938327Y-135459699D01*
X128035000Y-135226310D01*
X128035000Y-134535750D01*
X127876250Y-134377000D01*
X126677000Y-134377000D01*
X126423000Y-134377000D01*
X125223750Y-134377000D01*
X125065000Y-134535750D01*
X120095196Y-134535750D01*
X120039090Y-134448559D01*
X119826890Y-134303569D01*
X119575000Y-134252560D01*
X116275000Y-134252560D01*
X116039683Y-134296838D01*
X115823559Y-134435910D01*
X115678569Y-134648110D01*
X115627560Y-134900000D01*
X115627560Y-136900000D01*
X115671838Y-137135317D01*
X115810910Y-137351441D01*
X115977109Y-137465000D01*
X114285000Y-137465000D01*
X114285000Y-133585750D01*
X121090000Y-133585750D01*
X121090000Y-133876309D01*
X121186673Y-134109698D01*
X121365301Y-134288327D01*
X121598690Y-134385000D01*
X122689250Y-134385000D01*
X122848000Y-134226250D01*
X122848000Y-133427000D01*
X123102000Y-133427000D01*
X123102000Y-134226250D01*
X123260750Y-134385000D01*
X124351310Y-134385000D01*
X124584699Y-134288327D01*
X124763327Y-134109698D01*
X124860000Y-133876309D01*
X124860000Y-133585750D01*
X124701250Y-133427000D01*
X123102000Y-133427000D01*
X122848000Y-133427000D01*
X121248750Y-133427000D01*
X121090000Y-133585750D01*
X114285000Y-133585750D01*
X114285000Y-126335000D01*
X115755854Y-126335000D01*
X115678569Y-126448110D01*
X115627560Y-126700000D01*
X115627560Y-128700000D01*
X115671838Y-128935317D01*
X115810910Y-129151441D01*
X116023110Y-129296431D01*
X116275000Y-129347440D01*
X119575000Y-129347440D01*
X119810317Y-129303162D01*
X120026441Y-129164090D01*
X120171431Y-128951890D01*
X120222440Y-128700000D01*
X120222440Y-126700000D01*
X120178162Y-126464683D01*
X120094713Y-126335000D01*
X121968446Y-126335000D01*
X125048446Y-129415000D01*
X124699669Y-129415000D01*
X124689090Y-129398559D01*
X124476890Y-129253569D01*
X124225000Y-129202560D01*
X121725000Y-129202560D01*
X121489683Y-129246838D01*
X121273559Y-129385910D01*
X121128569Y-129598110D01*
X121077560Y-129850000D01*
X121077560Y-130750000D01*
X121121838Y-130985317D01*
X121162481Y-131048478D01*
X121128569Y-131098110D01*
X121077560Y-131350000D01*
X121077560Y-132250000D01*
X121121838Y-132485317D01*
X121162539Y-132548568D01*
X121090000Y-132723691D01*
X121090000Y-133014250D01*
X121248750Y-133173000D01*
X122848000Y-133173000D01*
X122848000Y-133153000D01*
X123102000Y-133153000D01*
X123102000Y-133173000D01*
X124701250Y-133173000D01*
X124860000Y-133014250D01*
X124860000Y-132723691D01*
X124843974Y-132685000D01*
X125420704Y-132685000D01*
X125470853Y-132760054D01*
X125514777Y-132789403D01*
X125340302Y-132861673D01*
X125161673Y-133040301D01*
X125065000Y-133273690D01*
X125065000Y-133964250D01*
X125223750Y-134123000D01*
X126423000Y-134123000D01*
X126423000Y-134103000D01*
X126677000Y-134103000D01*
X126677000Y-134123000D01*
X127876250Y-134123000D01*
X128035000Y-133964250D01*
X128035000Y-133273690D01*
X127938327Y-133040301D01*
X127759698Y-132861673D01*
X127585223Y-132789403D01*
X127629147Y-132760054D01*
X127951054Y-132278285D01*
X128064093Y-131710000D01*
X127951054Y-131141715D01*
X127629147Y-130659946D01*
X127299974Y-130440000D01*
X127629147Y-130220054D01*
X127951054Y-129738285D01*
X128064093Y-129170000D01*
X127951054Y-128601715D01*
X127629147Y-128119946D01*
X127147378Y-127798039D01*
X126869275Y-127742721D01*
X123353277Y-124226723D01*
X122952614Y-123959009D01*
X122480000Y-123865000D01*
X114285000Y-123865000D01*
X114285000Y-121050000D01*
X115477560Y-121050000D01*
X115477560Y-123050000D01*
X115521838Y-123285317D01*
X115660910Y-123501441D01*
X115873110Y-123646431D01*
X116125000Y-123697440D01*
X119425000Y-123697440D01*
X119660317Y-123653162D01*
X119876441Y-123514090D01*
X120021431Y-123301890D01*
X120072440Y-123050000D01*
X120072440Y-121050000D01*
X120032127Y-120835750D01*
X124915000Y-120835750D01*
X124915000Y-121526310D01*
X125011673Y-121759699D01*
X125190302Y-121938327D01*
X125423691Y-122035000D01*
X126114250Y-122035000D01*
X126273000Y-121876250D01*
X126273000Y-120677000D01*
X126527000Y-120677000D01*
X126527000Y-121876250D01*
X126685750Y-122035000D01*
X127376309Y-122035000D01*
X127609698Y-121938327D01*
X127788327Y-121759699D01*
X127885000Y-121526310D01*
X127885000Y-120835750D01*
X127726250Y-120677000D01*
X126527000Y-120677000D01*
X126273000Y-120677000D01*
X125073750Y-120677000D01*
X124915000Y-120835750D01*
X120032127Y-120835750D01*
X120028162Y-120814683D01*
X119889090Y-120598559D01*
X119676890Y-120453569D01*
X119425000Y-120402560D01*
X116125000Y-120402560D01*
X115889683Y-120446838D01*
X115673559Y-120585910D01*
X115528569Y-120798110D01*
X115477560Y-121050000D01*
X114285000Y-121050000D01*
X114285000Y-119735750D01*
X120940000Y-119735750D01*
X120940000Y-120026309D01*
X121036673Y-120259698D01*
X121215301Y-120438327D01*
X121448690Y-120535000D01*
X122539250Y-120535000D01*
X122698000Y-120376250D01*
X122698000Y-119577000D01*
X122952000Y-119577000D01*
X122952000Y-120376250D01*
X123110750Y-120535000D01*
X124201310Y-120535000D01*
X124434699Y-120438327D01*
X124613327Y-120259698D01*
X124710000Y-120026309D01*
X124710000Y-119735750D01*
X124551250Y-119577000D01*
X122952000Y-119577000D01*
X122698000Y-119577000D01*
X121098750Y-119577000D01*
X120940000Y-119735750D01*
X114285000Y-119735750D01*
X114285000Y-112385000D01*
X115674973Y-112385000D01*
X115673559Y-112385910D01*
X115528569Y-112598110D01*
X115477560Y-112850000D01*
X115477560Y-114850000D01*
X115521838Y-115085317D01*
X115660910Y-115301441D01*
X115873110Y-115446431D01*
X116125000Y-115497440D01*
X119425000Y-115497440D01*
X119660317Y-115453162D01*
X119876441Y-115314090D01*
X120021431Y-115101890D01*
X120072440Y-114850000D01*
X120072440Y-112850000D01*
X120028162Y-112614683D01*
X119889090Y-112398559D01*
X119869246Y-112385000D01*
X121568446Y-112385000D01*
X124748446Y-115565000D01*
X124549669Y-115565000D01*
X124539090Y-115548559D01*
X124326890Y-115403569D01*
X124075000Y-115352560D01*
X121575000Y-115352560D01*
X121339683Y-115396838D01*
X121123559Y-115535910D01*
X120978569Y-115748110D01*
X120927560Y-116000000D01*
X120927560Y-116900000D01*
X120971838Y-117135317D01*
X121012481Y-117198478D01*
X120978569Y-117248110D01*
X120927560Y-117500000D01*
X120927560Y-118400000D01*
X120971838Y-118635317D01*
X121012539Y-118698568D01*
X120940000Y-118873691D01*
X120940000Y-119164250D01*
X121098750Y-119323000D01*
X122698000Y-119323000D01*
X122698000Y-119303000D01*
X122952000Y-119303000D01*
X122952000Y-119323000D01*
X124551250Y-119323000D01*
X124710000Y-119164250D01*
X124710000Y-118873691D01*
X124693974Y-118835000D01*
X125170477Y-118835000D01*
X125320853Y-119060054D01*
X125364777Y-119089403D01*
X125190302Y-119161673D01*
X125011673Y-119340301D01*
X124915000Y-119573690D01*
X124915000Y-120264250D01*
X125073750Y-120423000D01*
X126273000Y-120423000D01*
X126273000Y-120403000D01*
X126527000Y-120403000D01*
X126527000Y-120423000D01*
X127726250Y-120423000D01*
X127885000Y-120264250D01*
X127885000Y-119573690D01*
X127788327Y-119340301D01*
X127609698Y-119161673D01*
X127435223Y-119089403D01*
X127479147Y-119060054D01*
X127589432Y-118895000D01*
X129457453Y-118895000D01*
X129553266Y-118934785D01*
X130044579Y-118935214D01*
X130498657Y-118747592D01*
X130765000Y-118481714D01*
X130765000Y-128938426D01*
X130603629Y-129099515D01*
X130415215Y-129553266D01*
X130414786Y-130044579D01*
X130602408Y-130498657D01*
X130949515Y-130846371D01*
X131403266Y-131034785D01*
X131894579Y-131035214D01*
X132348657Y-130847592D01*
X132696371Y-130500485D01*
X132884785Y-130046734D01*
X132885214Y-129555421D01*
X132697592Y-129101343D01*
X132535000Y-128938467D01*
X132535000Y-112744579D01*
X140864786Y-112744579D01*
X141052408Y-113198657D01*
X141399515Y-113546371D01*
X141853266Y-113734785D01*
X142083407Y-113734986D01*
X142165000Y-113816579D01*
X142165000Y-144538426D01*
X142003629Y-144699515D01*
X141815215Y-145153266D01*
X141814786Y-145644579D01*
X142002408Y-146098657D01*
X142349515Y-146446371D01*
X142803266Y-146634785D01*
X143294579Y-146635214D01*
X143748657Y-146447592D01*
X144096371Y-146100485D01*
X144284785Y-145646734D01*
X144285214Y-145155421D01*
X144097592Y-144701343D01*
X143935000Y-144538467D01*
X143935000Y-113450005D01*
X143935001Y-113450000D01*
X143867633Y-113111326D01*
X143867633Y-113111325D01*
X143675790Y-112824210D01*
X143675787Y-112824208D01*
X143346158Y-112494579D01*
X143664786Y-112494579D01*
X143852408Y-112948657D01*
X144015000Y-113111533D01*
X144015000Y-133599995D01*
X144014999Y-133600000D01*
X144069962Y-133876309D01*
X144082367Y-133938675D01*
X144264546Y-134211326D01*
X144274210Y-134225790D01*
X169264208Y-159215787D01*
X169264210Y-159215790D01*
X169551325Y-159407633D01*
X169607516Y-159418810D01*
X169890000Y-159475001D01*
X169890005Y-159475000D01*
X171660568Y-159475000D01*
X171770853Y-159640054D01*
X172252622Y-159961961D01*
X172820907Y-160075000D01*
X172879093Y-160075000D01*
X173447378Y-159961961D01*
X173929147Y-159640054D01*
X174039432Y-159475000D01*
X175373680Y-159475000D01*
X175652690Y-159754010D01*
X175652690Y-161649230D01*
X175696968Y-161884547D01*
X175836040Y-162100671D01*
X176048240Y-162245661D01*
X176300130Y-162296670D01*
X179299870Y-162296670D01*
X179535187Y-162252392D01*
X179751311Y-162113320D01*
X179896301Y-161901120D01*
X179947310Y-161649230D01*
X179947310Y-159950000D01*
X180827560Y-159950000D01*
X180827560Y-161950000D01*
X180871838Y-162185317D01*
X181010910Y-162401441D01*
X181223110Y-162546431D01*
X181475000Y-162597440D01*
X184775000Y-162597440D01*
X185010317Y-162553162D01*
X185226441Y-162414090D01*
X185371431Y-162201890D01*
X185422440Y-161950000D01*
X185422440Y-159950000D01*
X185378162Y-159714683D01*
X185239090Y-159498559D01*
X185026890Y-159353569D01*
X184775000Y-159302560D01*
X181475000Y-159302560D01*
X181239683Y-159346838D01*
X181023559Y-159485910D01*
X180878569Y-159698110D01*
X180827560Y-159950000D01*
X179947310Y-159950000D01*
X179947310Y-159650250D01*
X179903032Y-159414933D01*
X179791647Y-159241836D01*
X179921431Y-159051890D01*
X179972440Y-158800000D01*
X179972440Y-157900000D01*
X179928162Y-157664683D01*
X179887461Y-157601432D01*
X179960000Y-157426309D01*
X179960000Y-157135750D01*
X179801250Y-156977000D01*
X178202000Y-156977000D01*
X178202000Y-156997000D01*
X177948000Y-156997000D01*
X177948000Y-156977000D01*
X176348750Y-156977000D01*
X176190000Y-157135750D01*
X176190000Y-157426309D01*
X176261755Y-157599541D01*
X176228569Y-157648110D01*
X176217048Y-157705000D01*
X175740265Y-157705000D01*
X175740260Y-157704999D01*
X175740255Y-157705000D01*
X174039432Y-157705000D01*
X173929147Y-157539946D01*
X173885223Y-157510597D01*
X174059698Y-157438327D01*
X174238327Y-157259699D01*
X174335000Y-157026310D01*
X174335000Y-156335750D01*
X174176250Y-156177000D01*
X172977000Y-156177000D01*
X172977000Y-156197000D01*
X172723000Y-156197000D01*
X172723000Y-156177000D01*
X171523750Y-156177000D01*
X171365000Y-156335750D01*
X171365000Y-157026310D01*
X171461673Y-157259699D01*
X171640302Y-157438327D01*
X171814777Y-157510597D01*
X171770853Y-157539946D01*
X171660568Y-157705000D01*
X170256579Y-157705000D01*
X167625270Y-155073690D01*
X171365000Y-155073690D01*
X171365000Y-155764250D01*
X171523750Y-155923000D01*
X172723000Y-155923000D01*
X172723000Y-154723750D01*
X172977000Y-154723750D01*
X172977000Y-155923000D01*
X174176250Y-155923000D01*
X174335000Y-155764250D01*
X174335000Y-155073690D01*
X174277972Y-154936010D01*
X175665130Y-154936010D01*
X175665130Y-155776059D01*
X175761803Y-156009448D01*
X175940431Y-156188077D01*
X176173820Y-156284750D01*
X176190000Y-156284750D01*
X176190000Y-156564250D01*
X176348750Y-156723000D01*
X177948000Y-156723000D01*
X177948000Y-156703000D01*
X178202000Y-156703000D01*
X178202000Y-156723000D01*
X179801250Y-156723000D01*
X179960000Y-156564250D01*
X179960000Y-156273691D01*
X179863327Y-156040302D01*
X179835335Y-156012310D01*
X179838197Y-156009448D01*
X179934870Y-155776059D01*
X179934870Y-154936010D01*
X179776120Y-154777260D01*
X177927000Y-154777260D01*
X177927000Y-154797260D01*
X177673000Y-154797260D01*
X177673000Y-154777260D01*
X175823880Y-154777260D01*
X175665130Y-154936010D01*
X174277972Y-154936010D01*
X174238327Y-154840301D01*
X174059698Y-154661673D01*
X173826309Y-154565000D01*
X173135750Y-154565000D01*
X172977000Y-154723750D01*
X172723000Y-154723750D01*
X172564250Y-154565000D01*
X171873691Y-154565000D01*
X171640302Y-154661673D01*
X171461673Y-154840301D01*
X171365000Y-155073690D01*
X167625270Y-155073690D01*
X166076041Y-153524461D01*
X175665130Y-153524461D01*
X175665130Y-154364510D01*
X175823880Y-154523260D01*
X177673000Y-154523260D01*
X177673000Y-153174520D01*
X177927000Y-153174520D01*
X177927000Y-154523260D01*
X179776120Y-154523260D01*
X179934870Y-154364510D01*
X179934870Y-153524461D01*
X179838197Y-153291072D01*
X179797126Y-153250000D01*
X180827560Y-153250000D01*
X180827560Y-155250000D01*
X180871838Y-155485317D01*
X181010910Y-155701441D01*
X181223110Y-155846431D01*
X181475000Y-155897440D01*
X184775000Y-155897440D01*
X185010317Y-155853162D01*
X185226441Y-155714090D01*
X185371431Y-155501890D01*
X185422440Y-155250000D01*
X185422440Y-153250000D01*
X185378162Y-153014683D01*
X185239090Y-152798559D01*
X185026890Y-152653569D01*
X184775000Y-152602560D01*
X181475000Y-152602560D01*
X181239683Y-152646838D01*
X181023559Y-152785910D01*
X180878569Y-152998110D01*
X180827560Y-153250000D01*
X179797126Y-153250000D01*
X179659569Y-153112443D01*
X179426180Y-153015770D01*
X178085750Y-153015770D01*
X177927000Y-153174520D01*
X177673000Y-153174520D01*
X177514250Y-153015770D01*
X176173820Y-153015770D01*
X175940431Y-153112443D01*
X175761803Y-153291072D01*
X175665130Y-153524461D01*
X166076041Y-153524461D01*
X145785000Y-133233420D01*
X145785000Y-114944579D01*
X146264786Y-114944579D01*
X146452408Y-115398657D01*
X146615000Y-115561533D01*
X146615000Y-132799995D01*
X146614999Y-132800000D01*
X146657617Y-133014250D01*
X146682367Y-133138675D01*
X146874210Y-133425790D01*
X162724208Y-149275787D01*
X162724210Y-149275790D01*
X163011325Y-149467633D01*
X163061543Y-149477622D01*
X163350000Y-149535001D01*
X163350005Y-149535000D01*
X171000205Y-149535000D01*
X171270853Y-149940054D01*
X171752622Y-150261961D01*
X172320907Y-150375000D01*
X172379093Y-150375000D01*
X172947378Y-150261961D01*
X173429147Y-149940054D01*
X173539432Y-149775000D01*
X175652690Y-149775000D01*
X175652690Y-151349230D01*
X175696968Y-151584547D01*
X175836040Y-151800671D01*
X176048240Y-151945661D01*
X176300130Y-151996670D01*
X179299870Y-151996670D01*
X179535187Y-151952392D01*
X179751311Y-151813320D01*
X179896301Y-151601120D01*
X179947310Y-151349230D01*
X179947310Y-149750000D01*
X180727560Y-149750000D01*
X180727560Y-151750000D01*
X180771838Y-151985317D01*
X180910910Y-152201441D01*
X181123110Y-152346431D01*
X181375000Y-152397440D01*
X184675000Y-152397440D01*
X184910317Y-152353162D01*
X185126441Y-152214090D01*
X185271431Y-152001890D01*
X185322440Y-151750000D01*
X185322440Y-149750000D01*
X185278162Y-149514683D01*
X185139090Y-149298559D01*
X184926890Y-149153569D01*
X184675000Y-149102560D01*
X181375000Y-149102560D01*
X181139683Y-149146838D01*
X180923559Y-149285910D01*
X180778569Y-149498110D01*
X180727560Y-149750000D01*
X179947310Y-149750000D01*
X179947310Y-149350250D01*
X179903032Y-149114933D01*
X179776285Y-148917963D01*
X179821431Y-148851890D01*
X179872440Y-148600000D01*
X179872440Y-147700000D01*
X179828162Y-147464683D01*
X179787461Y-147401432D01*
X179860000Y-147226309D01*
X179860000Y-146935750D01*
X179701250Y-146777000D01*
X178102000Y-146777000D01*
X178102000Y-146797000D01*
X177848000Y-146797000D01*
X177848000Y-146777000D01*
X176248750Y-146777000D01*
X176090000Y-146935750D01*
X176090000Y-147226309D01*
X176161755Y-147399541D01*
X176128569Y-147448110D01*
X176077560Y-147700000D01*
X176077560Y-148005000D01*
X173539432Y-148005000D01*
X173429147Y-147839946D01*
X173385223Y-147810597D01*
X173559698Y-147738327D01*
X173738327Y-147559699D01*
X173835000Y-147326310D01*
X173835000Y-146635750D01*
X173676250Y-146477000D01*
X172477000Y-146477000D01*
X172477000Y-146497000D01*
X172223000Y-146497000D01*
X172223000Y-146477000D01*
X171023750Y-146477000D01*
X170865000Y-146635750D01*
X170865000Y-147326310D01*
X170961673Y-147559699D01*
X171140302Y-147738327D01*
X171204696Y-147765000D01*
X163716579Y-147765000D01*
X161325270Y-145373690D01*
X170865000Y-145373690D01*
X170865000Y-146064250D01*
X171023750Y-146223000D01*
X172223000Y-146223000D01*
X172223000Y-145023750D01*
X172477000Y-145023750D01*
X172477000Y-146223000D01*
X173676250Y-146223000D01*
X173835000Y-146064250D01*
X173835000Y-145373690D01*
X173738327Y-145140301D01*
X173559698Y-144961673D01*
X173326309Y-144865000D01*
X172635750Y-144865000D01*
X172477000Y-145023750D01*
X172223000Y-145023750D01*
X172064250Y-144865000D01*
X171373691Y-144865000D01*
X171140302Y-144961673D01*
X170961673Y-145140301D01*
X170865000Y-145373690D01*
X161325270Y-145373690D01*
X160587590Y-144636010D01*
X175665130Y-144636010D01*
X175665130Y-145476059D01*
X175761803Y-145709448D01*
X175940431Y-145888077D01*
X176133721Y-145968140D01*
X176090000Y-146073691D01*
X176090000Y-146364250D01*
X176248750Y-146523000D01*
X177848000Y-146523000D01*
X177848000Y-146503000D01*
X178102000Y-146503000D01*
X178102000Y-146523000D01*
X179701250Y-146523000D01*
X179860000Y-146364250D01*
X179860000Y-146073691D01*
X179763327Y-145840302D01*
X179735335Y-145812310D01*
X179838197Y-145709448D01*
X179934870Y-145476059D01*
X179934870Y-144636010D01*
X179776120Y-144477260D01*
X177927000Y-144477260D01*
X177927000Y-144497260D01*
X177673000Y-144497260D01*
X177673000Y-144477260D01*
X175823880Y-144477260D01*
X175665130Y-144636010D01*
X160587590Y-144636010D01*
X159176041Y-143224461D01*
X175665130Y-143224461D01*
X175665130Y-144064510D01*
X175823880Y-144223260D01*
X177673000Y-144223260D01*
X177673000Y-142874520D01*
X177927000Y-142874520D01*
X177927000Y-144223260D01*
X179776120Y-144223260D01*
X179934870Y-144064510D01*
X179934870Y-143224461D01*
X179838197Y-142991072D01*
X179659569Y-142812443D01*
X179426180Y-142715770D01*
X178085750Y-142715770D01*
X177927000Y-142874520D01*
X177673000Y-142874520D01*
X177514250Y-142715770D01*
X176173820Y-142715770D01*
X175940431Y-142812443D01*
X175761803Y-142991072D01*
X175665130Y-143224461D01*
X159176041Y-143224461D01*
X155041580Y-139090000D01*
X171385907Y-139090000D01*
X171498946Y-139658285D01*
X171820853Y-140140054D01*
X172302622Y-140461961D01*
X172870907Y-140575000D01*
X172929093Y-140575000D01*
X173497378Y-140461961D01*
X173979147Y-140140054D01*
X174089432Y-139975000D01*
X175802690Y-139975000D01*
X175802690Y-141599230D01*
X175846968Y-141834547D01*
X175986040Y-142050671D01*
X176198240Y-142195661D01*
X176450130Y-142246670D01*
X179449870Y-142246670D01*
X179685187Y-142202392D01*
X179901311Y-142063320D01*
X180046301Y-141851120D01*
X180097310Y-141599230D01*
X180097310Y-140000000D01*
X180727560Y-140000000D01*
X180727560Y-142000000D01*
X180771838Y-142235317D01*
X180910910Y-142451441D01*
X181018397Y-142524884D01*
X180923559Y-142585910D01*
X180778569Y-142798110D01*
X180727560Y-143050000D01*
X180727560Y-145050000D01*
X180771838Y-145285317D01*
X180910910Y-145501441D01*
X181123110Y-145646431D01*
X181375000Y-145697440D01*
X184675000Y-145697440D01*
X184910317Y-145653162D01*
X185126441Y-145514090D01*
X185271431Y-145301890D01*
X185322440Y-145050000D01*
X185322440Y-143050000D01*
X185278162Y-142814683D01*
X185139090Y-142598559D01*
X185031603Y-142525116D01*
X185126441Y-142464090D01*
X185271431Y-142251890D01*
X185322440Y-142000000D01*
X185322440Y-140000000D01*
X185278162Y-139764683D01*
X185139090Y-139548559D01*
X184926890Y-139403569D01*
X184675000Y-139352560D01*
X181375000Y-139352560D01*
X181139683Y-139396838D01*
X180923559Y-139535910D01*
X180778569Y-139748110D01*
X180727560Y-140000000D01*
X180097310Y-140000000D01*
X180097310Y-139600250D01*
X180053032Y-139364933D01*
X179913960Y-139148809D01*
X179824331Y-139087568D01*
X179872440Y-138850000D01*
X179872440Y-137950000D01*
X179828162Y-137714683D01*
X179787461Y-137651432D01*
X179860000Y-137476309D01*
X179860000Y-137185750D01*
X179701250Y-137027000D01*
X178102000Y-137027000D01*
X178102000Y-137047000D01*
X177848000Y-137047000D01*
X177848000Y-137027000D01*
X176248750Y-137027000D01*
X176090000Y-137185750D01*
X176090000Y-137476309D01*
X176161755Y-137649541D01*
X176128569Y-137698110D01*
X176077560Y-137950000D01*
X176077560Y-138205000D01*
X174089432Y-138205000D01*
X173979147Y-138039946D01*
X173935223Y-138010597D01*
X174109698Y-137938327D01*
X174288327Y-137759699D01*
X174385000Y-137526310D01*
X174385000Y-136835750D01*
X174226250Y-136677000D01*
X173027000Y-136677000D01*
X173027000Y-136697000D01*
X172773000Y-136697000D01*
X172773000Y-136677000D01*
X171573750Y-136677000D01*
X171415000Y-136835750D01*
X171415000Y-137526310D01*
X171511673Y-137759699D01*
X171690302Y-137938327D01*
X171864777Y-138010597D01*
X171820853Y-138039946D01*
X171498946Y-138521715D01*
X171385907Y-139090000D01*
X155041580Y-139090000D01*
X148385000Y-132433420D01*
X148385000Y-115561574D01*
X148546371Y-115400485D01*
X148734785Y-114946734D01*
X148735214Y-114455421D01*
X148547592Y-114001343D01*
X148200485Y-113653629D01*
X147746734Y-113465215D01*
X147255421Y-113464786D01*
X146801343Y-113652408D01*
X146453629Y-113999515D01*
X146265215Y-114453266D01*
X146264786Y-114944579D01*
X145785000Y-114944579D01*
X145785000Y-113111574D01*
X145946371Y-112950485D01*
X146134785Y-112496734D01*
X146135214Y-112005421D01*
X145947592Y-111551343D01*
X145600485Y-111203629D01*
X145146734Y-111015215D01*
X144655421Y-111014786D01*
X144201343Y-111202408D01*
X143853629Y-111549515D01*
X143665215Y-112003266D01*
X143664786Y-112494579D01*
X143346158Y-112494579D01*
X143335015Y-112483436D01*
X143335214Y-112255421D01*
X143147592Y-111801343D01*
X142800485Y-111453629D01*
X142346734Y-111265215D01*
X141855421Y-111264786D01*
X141401343Y-111452408D01*
X141053629Y-111799515D01*
X140865215Y-112253266D01*
X140864786Y-112744579D01*
X132535000Y-112744579D01*
X132535000Y-106966580D01*
X133816564Y-105685015D01*
X134044579Y-105685214D01*
X134498657Y-105497592D01*
X134846371Y-105150485D01*
X135034785Y-104696734D01*
X135035214Y-104205421D01*
X134847592Y-103751343D01*
X134500485Y-103403629D01*
X134046734Y-103215215D01*
X133555421Y-103214786D01*
X133101343Y-103402408D01*
X132753629Y-103749515D01*
X132565215Y-104203266D01*
X132565014Y-104433407D01*
X131024210Y-105974210D01*
X130832367Y-106261325D01*
X130832367Y-106261326D01*
X130764999Y-106600000D01*
X130765000Y-106600005D01*
X130765000Y-116918607D01*
X130500485Y-116653629D01*
X130046734Y-116465215D01*
X129555421Y-116464786D01*
X129101343Y-116652408D01*
X128753629Y-116999515D01*
X128701523Y-117125000D01*
X127589432Y-117125000D01*
X127479147Y-116959946D01*
X127149974Y-116740000D01*
X127479147Y-116520054D01*
X127801054Y-116038285D01*
X127914093Y-115470000D01*
X127801054Y-114901715D01*
X127479147Y-114419946D01*
X126997378Y-114098039D01*
X126719275Y-114042721D01*
X122953277Y-110276723D01*
X122552614Y-110009009D01*
X122080000Y-109915000D01*
X119719622Y-109915000D01*
X119876441Y-109814090D01*
X120021431Y-109601890D01*
X120072440Y-109350000D01*
X120072440Y-107350000D01*
X120041535Y-107185750D01*
X125065000Y-107185750D01*
X125065000Y-107876310D01*
X125161673Y-108109699D01*
X125340302Y-108288327D01*
X125573691Y-108385000D01*
X126264250Y-108385000D01*
X126423000Y-108226250D01*
X126423000Y-107027000D01*
X126677000Y-107027000D01*
X126677000Y-108226250D01*
X126835750Y-108385000D01*
X127526309Y-108385000D01*
X127759698Y-108288327D01*
X127938327Y-108109699D01*
X128035000Y-107876310D01*
X128035000Y-107185750D01*
X127876250Y-107027000D01*
X126677000Y-107027000D01*
X126423000Y-107027000D01*
X125223750Y-107027000D01*
X125065000Y-107185750D01*
X120041535Y-107185750D01*
X120028162Y-107114683D01*
X119889090Y-106898559D01*
X119676890Y-106753569D01*
X119425000Y-106702560D01*
X116125000Y-106702560D01*
X115889683Y-106746838D01*
X115673559Y-106885910D01*
X115528569Y-107098110D01*
X115477560Y-107350000D01*
X115477560Y-109350000D01*
X115521838Y-109585317D01*
X115660910Y-109801441D01*
X115827109Y-109915000D01*
X114285000Y-109915000D01*
X114285000Y-106035750D01*
X120940000Y-106035750D01*
X120940000Y-106326309D01*
X121036673Y-106559698D01*
X121215301Y-106738327D01*
X121448690Y-106835000D01*
X122539250Y-106835000D01*
X122698000Y-106676250D01*
X122698000Y-105877000D01*
X122952000Y-105877000D01*
X122952000Y-106676250D01*
X123110750Y-106835000D01*
X124201310Y-106835000D01*
X124434699Y-106738327D01*
X124613327Y-106559698D01*
X124710000Y-106326309D01*
X124710000Y-106035750D01*
X124551250Y-105877000D01*
X122952000Y-105877000D01*
X122698000Y-105877000D01*
X121098750Y-105877000D01*
X120940000Y-106035750D01*
X114285000Y-106035750D01*
X114285000Y-99361554D01*
X114496554Y-99150000D01*
X115477560Y-99150000D01*
X115477560Y-101150000D01*
X115521838Y-101385317D01*
X115660910Y-101601441D01*
X115873110Y-101746431D01*
X116125000Y-101797440D01*
X119425000Y-101797440D01*
X119660317Y-101753162D01*
X119876441Y-101614090D01*
X120021431Y-101401890D01*
X120072440Y-101150000D01*
X120072440Y-99150000D01*
X120028162Y-98914683D01*
X119889090Y-98698559D01*
X119676890Y-98553569D01*
X119425000Y-98502560D01*
X116125000Y-98502560D01*
X115889683Y-98546838D01*
X115673559Y-98685910D01*
X115528569Y-98898110D01*
X115477560Y-99150000D01*
X114496554Y-99150000D01*
X116411554Y-97235000D01*
X128600000Y-97235000D01*
X129072614Y-97140991D01*
X129473277Y-96873277D01*
X130415000Y-95931554D01*
X130415000Y-96208446D01*
X126230725Y-100392721D01*
X125952622Y-100448039D01*
X125470853Y-100769946D01*
X125148946Y-101251715D01*
X125035907Y-101820000D01*
X125044858Y-101865000D01*
X124549669Y-101865000D01*
X124539090Y-101848559D01*
X124326890Y-101703569D01*
X124075000Y-101652560D01*
X121575000Y-101652560D01*
X121339683Y-101696838D01*
X121123559Y-101835910D01*
X120978569Y-102048110D01*
X120927560Y-102300000D01*
X120927560Y-103200000D01*
X120971838Y-103435317D01*
X121012481Y-103498478D01*
X120978569Y-103548110D01*
X120927560Y-103800000D01*
X120927560Y-104700000D01*
X120971838Y-104935317D01*
X121012539Y-104998568D01*
X120940000Y-105173691D01*
X120940000Y-105464250D01*
X121098750Y-105623000D01*
X122698000Y-105623000D01*
X122698000Y-105603000D01*
X122952000Y-105603000D01*
X122952000Y-105623000D01*
X124551250Y-105623000D01*
X124710000Y-105464250D01*
X124710000Y-105173691D01*
X124693974Y-105135000D01*
X125287068Y-105135000D01*
X125470853Y-105410054D01*
X125514777Y-105439403D01*
X125340302Y-105511673D01*
X125161673Y-105690301D01*
X125065000Y-105923690D01*
X125065000Y-106614250D01*
X125223750Y-106773000D01*
X126423000Y-106773000D01*
X126423000Y-106753000D01*
X126677000Y-106753000D01*
X126677000Y-106773000D01*
X127876250Y-106773000D01*
X128035000Y-106614250D01*
X128035000Y-105923690D01*
X127938327Y-105690301D01*
X127759698Y-105511673D01*
X127585223Y-105439403D01*
X127629147Y-105410054D01*
X127951054Y-104928285D01*
X128064093Y-104360000D01*
X127951054Y-103791715D01*
X127629147Y-103309946D01*
X127299974Y-103090000D01*
X127629147Y-102870054D01*
X127951054Y-102388285D01*
X128006372Y-102110182D01*
X132523277Y-97593277D01*
X132790991Y-97192614D01*
X132885000Y-96720000D01*
X132885000Y-95072038D01*
X132985317Y-95053162D01*
X133201441Y-94914090D01*
X133344535Y-94704664D01*
X133759679Y-94705272D01*
X133759679Y-94705272D01*
G37*
X133759679Y-94705272D02*
X133885910Y-94901441D01*
X134098110Y-95046431D01*
X134350000Y-95097440D01*
X134565000Y-95097440D01*
X134565000Y-98033421D01*
X130033435Y-102564985D01*
X129805421Y-102564786D01*
X129351343Y-102752408D01*
X129003629Y-103099515D01*
X128815215Y-103553266D01*
X128814786Y-104044579D01*
X129002408Y-104498657D01*
X129349515Y-104846371D01*
X129803266Y-105034785D01*
X130294579Y-105035214D01*
X130748657Y-104847592D01*
X131096371Y-104500485D01*
X131284785Y-104046734D01*
X131284986Y-103816594D01*
X135765000Y-99336579D01*
X135765000Y-105388426D01*
X135603629Y-105549515D01*
X135415215Y-106003266D01*
X135414786Y-106494579D01*
X135602408Y-106948657D01*
X135949515Y-107296371D01*
X136403266Y-107484785D01*
X136894579Y-107485214D01*
X137348657Y-107297592D01*
X137696371Y-106950485D01*
X137884785Y-106496734D01*
X137885214Y-106005421D01*
X137697592Y-105551343D01*
X137535000Y-105388467D01*
X137535000Y-99313381D01*
X137626673Y-99534699D01*
X137805302Y-99713327D01*
X138038691Y-99810000D01*
X138514250Y-99810000D01*
X138673000Y-99651250D01*
X138673000Y-98817000D01*
X138927000Y-98817000D01*
X138927000Y-99651250D01*
X139085750Y-99810000D01*
X139561309Y-99810000D01*
X139794698Y-99713327D01*
X139900000Y-99608026D01*
X140005302Y-99713327D01*
X140238691Y-99810000D01*
X140714250Y-99810000D01*
X140873000Y-99651250D01*
X140873000Y-98817000D01*
X141127000Y-98817000D01*
X141127000Y-99651250D01*
X141285750Y-99810000D01*
X141761309Y-99810000D01*
X141994698Y-99713327D01*
X142100000Y-99608026D01*
X142205302Y-99713327D01*
X142438691Y-99810000D01*
X142914250Y-99810000D01*
X143073000Y-99651250D01*
X143073000Y-98817000D01*
X143327000Y-98817000D01*
X143327000Y-99651250D01*
X143485750Y-99810000D01*
X143961309Y-99810000D01*
X144194698Y-99713327D01*
X144300000Y-99608026D01*
X144405302Y-99713327D01*
X144638691Y-99810000D01*
X145114250Y-99810000D01*
X145273000Y-99651250D01*
X145273000Y-98817000D01*
X145527000Y-98817000D01*
X145527000Y-99651250D01*
X145685750Y-99810000D01*
X146161309Y-99810000D01*
X146394698Y-99713327D01*
X146573327Y-99534699D01*
X146670000Y-99301310D01*
X146670000Y-98975750D01*
X146511250Y-98817000D01*
X145527000Y-98817000D01*
X145273000Y-98817000D01*
X143327000Y-98817000D01*
X143073000Y-98817000D01*
X141127000Y-98817000D01*
X140873000Y-98817000D01*
X138927000Y-98817000D01*
X138673000Y-98817000D01*
X138653000Y-98817000D01*
X138653000Y-98563000D01*
X138673000Y-98563000D01*
X138673000Y-98543000D01*
X138927000Y-98543000D01*
X138927000Y-98563000D01*
X140873000Y-98563000D01*
X140873000Y-98543000D01*
X141127000Y-98543000D01*
X141127000Y-98563000D01*
X143073000Y-98563000D01*
X143073000Y-98543000D01*
X143327000Y-98543000D01*
X143327000Y-98563000D01*
X145273000Y-98563000D01*
X145273000Y-98543000D01*
X145527000Y-98543000D01*
X145527000Y-98563000D01*
X146511250Y-98563000D01*
X146670000Y-98404250D01*
X146670000Y-98078690D01*
X146653371Y-98038545D01*
X146682440Y-97895000D01*
X146682440Y-97379140D01*
X147475787Y-96585792D01*
X147475790Y-96585790D01*
X147667633Y-96298675D01*
X147687528Y-96198657D01*
X147735001Y-95960000D01*
X147735000Y-95959995D01*
X147735000Y-95097440D01*
X147950000Y-95097440D01*
X148185317Y-95053162D01*
X148368237Y-94935456D01*
X148053629Y-95249515D01*
X147865215Y-95703266D01*
X147864786Y-96194579D01*
X148052408Y-96648657D01*
X148399515Y-96996371D01*
X148853266Y-97184785D01*
X149344579Y-97185214D01*
X149798657Y-96997592D01*
X150146371Y-96650485D01*
X150334785Y-96196734D01*
X150334986Y-95966594D01*
X151204139Y-95097440D01*
X151750000Y-95097440D01*
X151985317Y-95053162D01*
X152201441Y-94914090D01*
X152325547Y-94732455D01*
X152777596Y-94733117D01*
X152885910Y-94901441D01*
X152981598Y-94966822D01*
X151724210Y-96224210D01*
X151532367Y-96511325D01*
X151532367Y-96511326D01*
X151464999Y-96850000D01*
X151465000Y-96850005D01*
X151465000Y-134549995D01*
X151464999Y-134550000D01*
X151500259Y-134727260D01*
X151532367Y-134888675D01*
X151650183Y-135065000D01*
X151724210Y-135175790D01*
X153364985Y-136816564D01*
X153364786Y-137044579D01*
X153552408Y-137498657D01*
X153899515Y-137846371D01*
X154353266Y-138034785D01*
X154844579Y-138035214D01*
X155298657Y-137847592D01*
X155646371Y-137500485D01*
X155834785Y-137046734D01*
X155835214Y-136555421D01*
X155647592Y-136101343D01*
X155300485Y-135753629D01*
X154867145Y-135573690D01*
X171415000Y-135573690D01*
X171415000Y-136264250D01*
X171573750Y-136423000D01*
X172773000Y-136423000D01*
X172773000Y-135223750D01*
X173027000Y-135223750D01*
X173027000Y-136423000D01*
X174226250Y-136423000D01*
X174385000Y-136264250D01*
X174385000Y-135573690D01*
X174288327Y-135340301D01*
X174109698Y-135161673D01*
X173876309Y-135065000D01*
X173185750Y-135065000D01*
X173027000Y-135223750D01*
X172773000Y-135223750D01*
X172614250Y-135065000D01*
X171923691Y-135065000D01*
X171690302Y-135161673D01*
X171511673Y-135340301D01*
X171415000Y-135573690D01*
X154867145Y-135573690D01*
X154846734Y-135565215D01*
X154616593Y-135565014D01*
X153937590Y-134886010D01*
X175815130Y-134886010D01*
X175815130Y-135726059D01*
X175911803Y-135959448D01*
X176090431Y-136138077D01*
X176155688Y-136165107D01*
X176090000Y-136323691D01*
X176090000Y-136614250D01*
X176248750Y-136773000D01*
X177848000Y-136773000D01*
X177848000Y-135973750D01*
X177823000Y-135948750D01*
X177823000Y-134727260D01*
X178077000Y-134727260D01*
X178077000Y-136076000D01*
X178102000Y-136101000D01*
X178102000Y-136773000D01*
X179701250Y-136773000D01*
X179860000Y-136614250D01*
X179860000Y-136323691D01*
X179786990Y-136147430D01*
X179809569Y-136138077D01*
X179988197Y-135959448D01*
X180084870Y-135726059D01*
X180084870Y-134886010D01*
X179926120Y-134727260D01*
X178077000Y-134727260D01*
X177823000Y-134727260D01*
X175973880Y-134727260D01*
X175815130Y-134886010D01*
X153937590Y-134886010D01*
X153235000Y-134183420D01*
X153235000Y-133474461D01*
X175815130Y-133474461D01*
X175815130Y-134314510D01*
X175973880Y-134473260D01*
X177823000Y-134473260D01*
X177823000Y-133124520D01*
X178077000Y-133124520D01*
X178077000Y-134473260D01*
X179926120Y-134473260D01*
X180084870Y-134314510D01*
X180084870Y-133474461D01*
X179988197Y-133241072D01*
X179809569Y-133062443D01*
X179576180Y-132965770D01*
X178235750Y-132965770D01*
X178077000Y-133124520D01*
X177823000Y-133124520D01*
X177664250Y-132965770D01*
X176323820Y-132965770D01*
X176090431Y-133062443D01*
X175911803Y-133241072D01*
X175815130Y-133474461D01*
X153235000Y-133474461D01*
X153235000Y-129244579D01*
X155064786Y-129244579D01*
X155252408Y-129698657D01*
X155599515Y-130046371D01*
X156053266Y-130234785D01*
X156292951Y-130234994D01*
X156551325Y-130407633D01*
X156607516Y-130418810D01*
X156890000Y-130475001D01*
X156890005Y-130475000D01*
X171660568Y-130475000D01*
X171770853Y-130640054D01*
X172252622Y-130961961D01*
X172820907Y-131075000D01*
X172879093Y-131075000D01*
X173447378Y-130961961D01*
X173929147Y-130640054D01*
X174039432Y-130475000D01*
X175702690Y-130475000D01*
X175702690Y-131699230D01*
X175746968Y-131934547D01*
X175886040Y-132150671D01*
X176098240Y-132295661D01*
X176350130Y-132346670D01*
X179349870Y-132346670D01*
X179585187Y-132302392D01*
X179801311Y-132163320D01*
X179946301Y-131951120D01*
X179997310Y-131699230D01*
X179997310Y-130100000D01*
X180627560Y-130100000D01*
X180627560Y-132100000D01*
X180671838Y-132335317D01*
X180810910Y-132551441D01*
X181023110Y-132696431D01*
X181112260Y-132714484D01*
X180923559Y-132835910D01*
X180778569Y-133048110D01*
X180727560Y-133300000D01*
X180727560Y-135300000D01*
X180771838Y-135535317D01*
X180910910Y-135751441D01*
X181123110Y-135896431D01*
X181375000Y-135947440D01*
X184675000Y-135947440D01*
X184910317Y-135903162D01*
X185126441Y-135764090D01*
X185271431Y-135551890D01*
X185322440Y-135300000D01*
X185322440Y-133300000D01*
X185278162Y-133064683D01*
X185139090Y-132848559D01*
X184926890Y-132703569D01*
X184837740Y-132685516D01*
X185026441Y-132564090D01*
X185171431Y-132351890D01*
X185222440Y-132100000D01*
X185222440Y-130100000D01*
X185178162Y-129864683D01*
X185039090Y-129648559D01*
X184826890Y-129503569D01*
X184575000Y-129452560D01*
X181275000Y-129452560D01*
X181039683Y-129496838D01*
X180823559Y-129635910D01*
X180678569Y-129848110D01*
X180627560Y-130100000D01*
X179997310Y-130100000D01*
X179997310Y-129700250D01*
X179953032Y-129464933D01*
X179813960Y-129248809D01*
X179724331Y-129187568D01*
X179772440Y-128950000D01*
X179772440Y-128050000D01*
X179728162Y-127814683D01*
X179687461Y-127751432D01*
X179760000Y-127576309D01*
X179760000Y-127285750D01*
X179601250Y-127127000D01*
X178002000Y-127127000D01*
X178002000Y-127147000D01*
X177748000Y-127147000D01*
X177748000Y-127127000D01*
X176148750Y-127127000D01*
X175990000Y-127285750D01*
X175990000Y-127576309D01*
X176061755Y-127749541D01*
X176028569Y-127798110D01*
X175977560Y-128050000D01*
X175977560Y-128705000D01*
X174039432Y-128705000D01*
X173929147Y-128539946D01*
X173885223Y-128510597D01*
X174059698Y-128438327D01*
X174238327Y-128259699D01*
X174335000Y-128026310D01*
X174335000Y-127335750D01*
X174176250Y-127177000D01*
X172977000Y-127177000D01*
X172977000Y-127197000D01*
X172723000Y-127197000D01*
X172723000Y-127177000D01*
X171523750Y-127177000D01*
X171365000Y-127335750D01*
X171365000Y-128026310D01*
X171461673Y-128259699D01*
X171640302Y-128438327D01*
X171814777Y-128510597D01*
X171770853Y-128539946D01*
X171660568Y-128705000D01*
X157514380Y-128705000D01*
X157347592Y-128301343D01*
X157000485Y-127953629D01*
X156546734Y-127765215D01*
X156055421Y-127764786D01*
X155601343Y-127952408D01*
X155253629Y-128299515D01*
X155065215Y-128753266D01*
X155064786Y-129244579D01*
X153235000Y-129244579D01*
X153235000Y-126073690D01*
X171365000Y-126073690D01*
X171365000Y-126764250D01*
X171523750Y-126923000D01*
X172723000Y-126923000D01*
X172723000Y-125723750D01*
X172977000Y-125723750D01*
X172977000Y-126923000D01*
X174176250Y-126923000D01*
X174335000Y-126764250D01*
X174335000Y-126073690D01*
X174238327Y-125840301D01*
X174059698Y-125661673D01*
X173826309Y-125565000D01*
X173135750Y-125565000D01*
X172977000Y-125723750D01*
X172723000Y-125723750D01*
X172564250Y-125565000D01*
X171873691Y-125565000D01*
X171640302Y-125661673D01*
X171461673Y-125840301D01*
X171365000Y-126073690D01*
X153235000Y-126073690D01*
X153235000Y-124986010D01*
X175715130Y-124986010D01*
X175715130Y-125826059D01*
X175811803Y-126059448D01*
X175990431Y-126238077D01*
X176055688Y-126265107D01*
X175990000Y-126423691D01*
X175990000Y-126714250D01*
X176148750Y-126873000D01*
X177748000Y-126873000D01*
X177748000Y-126073750D01*
X177723000Y-126048750D01*
X177723000Y-124827260D01*
X177977000Y-124827260D01*
X177977000Y-126176000D01*
X178002000Y-126201000D01*
X178002000Y-126873000D01*
X179601250Y-126873000D01*
X179760000Y-126714250D01*
X179760000Y-126423691D01*
X179686990Y-126247430D01*
X179709569Y-126238077D01*
X179888197Y-126059448D01*
X179984870Y-125826059D01*
X179984870Y-124986010D01*
X179826120Y-124827260D01*
X177977000Y-124827260D01*
X177723000Y-124827260D01*
X175873880Y-124827260D01*
X175715130Y-124986010D01*
X153235000Y-124986010D01*
X153235000Y-120450000D01*
X155127560Y-120450000D01*
X155127560Y-123750000D01*
X155171838Y-123985317D01*
X155310910Y-124201441D01*
X155523110Y-124346431D01*
X155775000Y-124397440D01*
X157775000Y-124397440D01*
X158010317Y-124353162D01*
X158226441Y-124214090D01*
X158371431Y-124001890D01*
X158422440Y-123750000D01*
X158422440Y-120450000D01*
X161827560Y-120450000D01*
X161827560Y-123750000D01*
X161871838Y-123985317D01*
X162010910Y-124201441D01*
X162223110Y-124346431D01*
X162475000Y-124397440D01*
X164475000Y-124397440D01*
X164710317Y-124353162D01*
X164926441Y-124214090D01*
X165071431Y-124001890D01*
X165122440Y-123750000D01*
X165122440Y-123574461D01*
X175715130Y-123574461D01*
X175715130Y-124414510D01*
X175873880Y-124573260D01*
X177723000Y-124573260D01*
X177723000Y-123224520D01*
X177977000Y-123224520D01*
X177977000Y-124573260D01*
X179826120Y-124573260D01*
X179984870Y-124414510D01*
X179984870Y-123574461D01*
X179912606Y-123400000D01*
X180627560Y-123400000D01*
X180627560Y-125400000D01*
X180671838Y-125635317D01*
X180810910Y-125851441D01*
X181023110Y-125996431D01*
X181275000Y-126047440D01*
X184575000Y-126047440D01*
X184810317Y-126003162D01*
X185026441Y-125864090D01*
X185171431Y-125651890D01*
X185222440Y-125400000D01*
X185222440Y-123400000D01*
X185178162Y-123164683D01*
X185039090Y-122948559D01*
X184826890Y-122803569D01*
X184575000Y-122752560D01*
X181275000Y-122752560D01*
X181039683Y-122796838D01*
X180823559Y-122935910D01*
X180678569Y-123148110D01*
X180627560Y-123400000D01*
X179912606Y-123400000D01*
X179888197Y-123341072D01*
X179709569Y-123162443D01*
X179476180Y-123065770D01*
X178135750Y-123065770D01*
X177977000Y-123224520D01*
X177723000Y-123224520D01*
X177564250Y-123065770D01*
X176223820Y-123065770D01*
X175990431Y-123162443D01*
X175811803Y-123341072D01*
X175715130Y-123574461D01*
X165122440Y-123574461D01*
X165122440Y-120450000D01*
X165078162Y-120214683D01*
X164939090Y-119998559D01*
X164726890Y-119853569D01*
X164475000Y-119802560D01*
X162475000Y-119802560D01*
X162239683Y-119846838D01*
X162023559Y-119985910D01*
X161878569Y-120198110D01*
X161827560Y-120450000D01*
X158422440Y-120450000D01*
X158378162Y-120214683D01*
X158239090Y-119998559D01*
X158026890Y-119853569D01*
X157775000Y-119802560D01*
X155775000Y-119802560D01*
X155539683Y-119846838D01*
X155323559Y-119985910D01*
X155178569Y-120198110D01*
X155127560Y-120450000D01*
X153235000Y-120450000D01*
X153235000Y-115275130D01*
X155478330Y-115275130D01*
X155478330Y-118274870D01*
X155522608Y-118510187D01*
X155661680Y-118726311D01*
X155873880Y-118871301D01*
X156125770Y-118922310D01*
X158124750Y-118922310D01*
X158360067Y-118878032D01*
X158507415Y-118783216D01*
X158673110Y-118896431D01*
X158925000Y-118947440D01*
X159825000Y-118947440D01*
X160060317Y-118903162D01*
X160123478Y-118862519D01*
X160173110Y-118896431D01*
X160425000Y-118947440D01*
X161325000Y-118947440D01*
X161560317Y-118903162D01*
X161745547Y-118783970D01*
X161873360Y-118871301D01*
X162125250Y-118922310D01*
X164124230Y-118922310D01*
X164359547Y-118878032D01*
X164575671Y-118738960D01*
X164720661Y-118526760D01*
X164771670Y-118274870D01*
X164771670Y-115275130D01*
X164727392Y-115039813D01*
X164588320Y-114823689D01*
X164376120Y-114678699D01*
X164124230Y-114627690D01*
X162229270Y-114627690D01*
X161760000Y-114158420D01*
X161760000Y-114147440D01*
X162250000Y-114147440D01*
X162485317Y-114103162D01*
X162701441Y-113964090D01*
X162846431Y-113751890D01*
X162897440Y-113500000D01*
X162897440Y-112523690D01*
X171565000Y-112523690D01*
X171565000Y-113214250D01*
X171723750Y-113373000D01*
X172923000Y-113373000D01*
X172923000Y-112173750D01*
X173177000Y-112173750D01*
X173177000Y-113373000D01*
X174376250Y-113373000D01*
X174535000Y-113214250D01*
X174535000Y-112523690D01*
X174488327Y-112411010D01*
X174890130Y-112411010D01*
X174890130Y-113251059D01*
X174986803Y-113484448D01*
X175165431Y-113663077D01*
X175398820Y-113759750D01*
X175501841Y-113759750D01*
X175465000Y-113848691D01*
X175465000Y-114139250D01*
X175623750Y-114298000D01*
X177223000Y-114298000D01*
X177223000Y-114278000D01*
X177477000Y-114278000D01*
X177477000Y-114298000D01*
X179076250Y-114298000D01*
X179235000Y-114139250D01*
X179235000Y-113848691D01*
X179138327Y-113615302D01*
X179035335Y-113512310D01*
X179063197Y-113484448D01*
X179159870Y-113251059D01*
X179159870Y-112411010D01*
X179001120Y-112252260D01*
X177152000Y-112252260D01*
X177152000Y-112272260D01*
X176898000Y-112272260D01*
X176898000Y-112252260D01*
X175048880Y-112252260D01*
X174890130Y-112411010D01*
X174488327Y-112411010D01*
X174438327Y-112290301D01*
X174259698Y-112111673D01*
X174026309Y-112015000D01*
X173335750Y-112015000D01*
X173177000Y-112173750D01*
X172923000Y-112173750D01*
X172764250Y-112015000D01*
X172073691Y-112015000D01*
X171840302Y-112111673D01*
X171661673Y-112290301D01*
X171565000Y-112523690D01*
X162897440Y-112523690D01*
X162897440Y-111800000D01*
X162853162Y-111564683D01*
X162714090Y-111348559D01*
X162501890Y-111203569D01*
X162250000Y-111152560D01*
X160550000Y-111152560D01*
X160314683Y-111196838D01*
X160098559Y-111335910D01*
X159953569Y-111548110D01*
X159939914Y-111615541D01*
X159910054Y-111570853D01*
X159428285Y-111248946D01*
X158860000Y-111135907D01*
X158291715Y-111248946D01*
X157809946Y-111570853D01*
X157488039Y-112052622D01*
X157375000Y-112620907D01*
X157375000Y-112679093D01*
X157488039Y-113247378D01*
X157809946Y-113729147D01*
X158291715Y-114051054D01*
X158490000Y-114090495D01*
X158490000Y-114158421D01*
X158020731Y-114627690D01*
X156125770Y-114627690D01*
X155890453Y-114671968D01*
X155674329Y-114811040D01*
X155529339Y-115023240D01*
X155478330Y-115275130D01*
X153235000Y-115275130D01*
X153235000Y-110999461D01*
X174890130Y-110999461D01*
X174890130Y-111839510D01*
X175048880Y-111998260D01*
X176898000Y-111998260D01*
X176898000Y-110649520D01*
X177152000Y-110649520D01*
X177152000Y-111998260D01*
X179001120Y-111998260D01*
X179159870Y-111839510D01*
X179159870Y-110999461D01*
X179087606Y-110825000D01*
X180102560Y-110825000D01*
X180102560Y-112825000D01*
X180146838Y-113060317D01*
X180285910Y-113276441D01*
X180498110Y-113421431D01*
X180750000Y-113472440D01*
X184050000Y-113472440D01*
X184285317Y-113428162D01*
X184501441Y-113289090D01*
X184646431Y-113076890D01*
X184697440Y-112825000D01*
X184697440Y-110825000D01*
X184653162Y-110589683D01*
X184514090Y-110373559D01*
X184301890Y-110228569D01*
X184050000Y-110177560D01*
X180750000Y-110177560D01*
X180514683Y-110221838D01*
X180298559Y-110360910D01*
X180153569Y-110573110D01*
X180102560Y-110825000D01*
X179087606Y-110825000D01*
X179063197Y-110766072D01*
X178884569Y-110587443D01*
X178651180Y-110490770D01*
X177310750Y-110490770D01*
X177152000Y-110649520D01*
X176898000Y-110649520D01*
X176739250Y-110490770D01*
X175398820Y-110490770D01*
X175165431Y-110587443D01*
X174986803Y-110766072D01*
X174890130Y-110999461D01*
X153235000Y-110999461D01*
X153235000Y-105650000D01*
X155077560Y-105650000D01*
X155077560Y-108950000D01*
X155121838Y-109185317D01*
X155260910Y-109401441D01*
X155473110Y-109546431D01*
X155725000Y-109597440D01*
X157725000Y-109597440D01*
X157960317Y-109553162D01*
X158176441Y-109414090D01*
X158321431Y-109201890D01*
X158372440Y-108950000D01*
X158372440Y-105650000D01*
X161777560Y-105650000D01*
X161777560Y-108950000D01*
X161821838Y-109185317D01*
X161960910Y-109401441D01*
X162173110Y-109546431D01*
X162425000Y-109597440D01*
X164425000Y-109597440D01*
X164660317Y-109553162D01*
X164876441Y-109414090D01*
X165021431Y-109201890D01*
X165072440Y-108950000D01*
X165072440Y-105650000D01*
X165028162Y-105414683D01*
X164889090Y-105198559D01*
X164676890Y-105053569D01*
X164425000Y-105002560D01*
X162425000Y-105002560D01*
X162189683Y-105046838D01*
X161973559Y-105185910D01*
X161828569Y-105398110D01*
X161777560Y-105650000D01*
X158372440Y-105650000D01*
X158328162Y-105414683D01*
X158189090Y-105198559D01*
X157976890Y-105053569D01*
X157725000Y-105002560D01*
X155725000Y-105002560D01*
X155489683Y-105046838D01*
X155273559Y-105185910D01*
X155128569Y-105398110D01*
X155077560Y-105650000D01*
X153235000Y-105650000D01*
X153235000Y-97216580D01*
X155075787Y-95375792D01*
X155075790Y-95375790D01*
X155261776Y-95097440D01*
X155550000Y-95097440D01*
X155785317Y-95053162D01*
X156001441Y-94914090D01*
X156121749Y-94738013D01*
X156581180Y-94738686D01*
X156685910Y-94901441D01*
X156898110Y-95046431D01*
X157150000Y-95097440D01*
X157365000Y-95097440D01*
X157365000Y-96989995D01*
X157364999Y-96990000D01*
X157397802Y-97154907D01*
X157325000Y-97520907D01*
X157325000Y-97579093D01*
X157438039Y-98147378D01*
X157759946Y-98629147D01*
X158241715Y-98951054D01*
X158440000Y-98990495D01*
X158440000Y-99408421D01*
X157995731Y-99852690D01*
X156100770Y-99852690D01*
X155865453Y-99896968D01*
X155649329Y-100036040D01*
X155504339Y-100248240D01*
X155453330Y-100500130D01*
X155453330Y-103499870D01*
X155497608Y-103735187D01*
X155636680Y-103951311D01*
X155848880Y-104096301D01*
X156100770Y-104147310D01*
X158099750Y-104147310D01*
X158335067Y-104103032D01*
X158488383Y-104004376D01*
X158623110Y-104096431D01*
X158875000Y-104147440D01*
X159775000Y-104147440D01*
X160010317Y-104103162D01*
X160073478Y-104062519D01*
X160123110Y-104096431D01*
X160375000Y-104147440D01*
X161275000Y-104147440D01*
X161510317Y-104103162D01*
X161689579Y-103987810D01*
X161848360Y-104096301D01*
X162100250Y-104147310D01*
X164099230Y-104147310D01*
X164334547Y-104103032D01*
X164550671Y-103963960D01*
X164695661Y-103751760D01*
X164746670Y-103499870D01*
X164746670Y-100500130D01*
X164702392Y-100264813D01*
X164563320Y-100048689D01*
X164351120Y-99903699D01*
X164099230Y-99852690D01*
X162204270Y-99852690D01*
X161710000Y-99358420D01*
X161710000Y-99047440D01*
X162200000Y-99047440D01*
X162435317Y-99003162D01*
X162651441Y-98864090D01*
X162796431Y-98651890D01*
X162847440Y-98400000D01*
X162847440Y-97218896D01*
X162867634Y-97188674D01*
X162935001Y-96850000D01*
X162935000Y-96849995D01*
X162935000Y-95097440D01*
X163150000Y-95097440D01*
X163385317Y-95053162D01*
X163601441Y-94914090D01*
X163714154Y-94749130D01*
X164188347Y-94749824D01*
X164285910Y-94901441D01*
X164498110Y-95046431D01*
X164750000Y-95097440D01*
X164974436Y-95097440D01*
X165019544Y-95324210D01*
X165032367Y-95388675D01*
X165168472Y-95592371D01*
X165224210Y-95675790D01*
X168965000Y-99416579D01*
X168965000Y-105049995D01*
X168964999Y-105050000D01*
X169014018Y-105296431D01*
X169032367Y-105388675D01*
X169166360Y-105589211D01*
X169224210Y-105675790D01*
X170389208Y-106840787D01*
X170389210Y-106840790D01*
X170676325Y-107032633D01*
X170732516Y-107043810D01*
X171015000Y-107100001D01*
X171015005Y-107100000D01*
X171235568Y-107100000D01*
X171345853Y-107265054D01*
X171827622Y-107586961D01*
X172395907Y-107700000D01*
X172454093Y-107700000D01*
X173022378Y-107586961D01*
X173504147Y-107265054D01*
X173614432Y-107100000D01*
X174477690Y-107100000D01*
X174477690Y-108974230D01*
X174521968Y-109209547D01*
X174661040Y-109425671D01*
X174873240Y-109570661D01*
X175125130Y-109621670D01*
X178124870Y-109621670D01*
X178360187Y-109577392D01*
X178576311Y-109438320D01*
X178721301Y-109226120D01*
X178772310Y-108974230D01*
X178772310Y-107325000D01*
X179552560Y-107325000D01*
X179552560Y-109325000D01*
X179596838Y-109560317D01*
X179735910Y-109776441D01*
X179948110Y-109921431D01*
X180200000Y-109972440D01*
X183500000Y-109972440D01*
X183735317Y-109928162D01*
X183951441Y-109789090D01*
X184096431Y-109576890D01*
X184147440Y-109325000D01*
X184147440Y-107325000D01*
X184103162Y-107089683D01*
X183964090Y-106873559D01*
X183751890Y-106728569D01*
X183500000Y-106677560D01*
X180200000Y-106677560D01*
X179964683Y-106721838D01*
X179748559Y-106860910D01*
X179603569Y-107073110D01*
X179552560Y-107325000D01*
X178772310Y-107325000D01*
X178772310Y-106975250D01*
X178728032Y-106739933D01*
X178588960Y-106523809D01*
X178582994Y-106519733D01*
X178646431Y-106426890D01*
X178697440Y-106175000D01*
X178697440Y-105275000D01*
X178653162Y-105039683D01*
X178612461Y-104976432D01*
X178685000Y-104801309D01*
X178685000Y-104510750D01*
X178526250Y-104352000D01*
X176927000Y-104352000D01*
X176927000Y-104372000D01*
X176673000Y-104372000D01*
X176673000Y-104352000D01*
X175073750Y-104352000D01*
X174915000Y-104510750D01*
X174915000Y-104801309D01*
X174986755Y-104974541D01*
X174953569Y-105023110D01*
X174902560Y-105275000D01*
X174902560Y-105330000D01*
X174865265Y-105330000D01*
X174865260Y-105329999D01*
X174865255Y-105330000D01*
X173614432Y-105330000D01*
X173504147Y-105164946D01*
X173460223Y-105135597D01*
X173634698Y-105063327D01*
X173813327Y-104884699D01*
X173910000Y-104651310D01*
X173910000Y-103960750D01*
X173751250Y-103802000D01*
X172552000Y-103802000D01*
X172552000Y-103822000D01*
X172298000Y-103822000D01*
X172298000Y-103802000D01*
X171098750Y-103802000D01*
X170940000Y-103960750D01*
X170940000Y-104651310D01*
X171036673Y-104884699D01*
X171215302Y-105063327D01*
X171389777Y-105135597D01*
X171345853Y-105164946D01*
X171294052Y-105242472D01*
X170735000Y-104683420D01*
X170735000Y-102698690D01*
X170940000Y-102698690D01*
X170940000Y-103389250D01*
X171098750Y-103548000D01*
X172298000Y-103548000D01*
X172298000Y-102348750D01*
X172552000Y-102348750D01*
X172552000Y-103548000D01*
X173751250Y-103548000D01*
X173910000Y-103389250D01*
X173910000Y-102698690D01*
X173813327Y-102465301D01*
X173634698Y-102286673D01*
X173572743Y-102261010D01*
X174490130Y-102261010D01*
X174490130Y-103101059D01*
X174586803Y-103334448D01*
X174765431Y-103513077D01*
X174941043Y-103585818D01*
X174915000Y-103648691D01*
X174915000Y-103939250D01*
X175073750Y-104098000D01*
X176673000Y-104098000D01*
X176673000Y-104078000D01*
X176927000Y-104078000D01*
X176927000Y-104098000D01*
X178526250Y-104098000D01*
X178685000Y-103939250D01*
X178685000Y-103648691D01*
X178588327Y-103415302D01*
X178585335Y-103412310D01*
X178663197Y-103334448D01*
X178759870Y-103101059D01*
X178759870Y-102261010D01*
X178601120Y-102102260D01*
X176752000Y-102102260D01*
X176752000Y-102122260D01*
X176498000Y-102122260D01*
X176498000Y-102102260D01*
X174648880Y-102102260D01*
X174490130Y-102261010D01*
X173572743Y-102261010D01*
X173401309Y-102190000D01*
X172710750Y-102190000D01*
X172552000Y-102348750D01*
X172298000Y-102348750D01*
X172139250Y-102190000D01*
X171448691Y-102190000D01*
X171215302Y-102286673D01*
X171036673Y-102465301D01*
X170940000Y-102698690D01*
X170735000Y-102698690D01*
X170735000Y-100849461D01*
X174490130Y-100849461D01*
X174490130Y-101689510D01*
X174648880Y-101848260D01*
X176498000Y-101848260D01*
X176498000Y-100499520D01*
X176752000Y-100499520D01*
X176752000Y-101848260D01*
X178601120Y-101848260D01*
X178759870Y-101689510D01*
X178759870Y-100849461D01*
X178666896Y-100625000D01*
X179552560Y-100625000D01*
X179552560Y-102625000D01*
X179596838Y-102860317D01*
X179735910Y-103076441D01*
X179948110Y-103221431D01*
X180200000Y-103272440D01*
X183500000Y-103272440D01*
X183735317Y-103228162D01*
X183951441Y-103089090D01*
X184096431Y-102876890D01*
X184147440Y-102625000D01*
X184147440Y-100625000D01*
X184103162Y-100389683D01*
X183964090Y-100173559D01*
X183751890Y-100028569D01*
X183500000Y-99977560D01*
X180200000Y-99977560D01*
X179964683Y-100021838D01*
X179748559Y-100160910D01*
X179603569Y-100373110D01*
X179552560Y-100625000D01*
X178666896Y-100625000D01*
X178663197Y-100616072D01*
X178484569Y-100437443D01*
X178251180Y-100340770D01*
X176910750Y-100340770D01*
X176752000Y-100499520D01*
X176498000Y-100499520D01*
X176339250Y-100340770D01*
X174998820Y-100340770D01*
X174765431Y-100437443D01*
X174586803Y-100616072D01*
X174490130Y-100849461D01*
X170735000Y-100849461D01*
X170735000Y-99050005D01*
X170735001Y-99050000D01*
X170667633Y-98711325D01*
X170616846Y-98635317D01*
X170475790Y-98424210D01*
X170475787Y-98424208D01*
X167117502Y-95065922D01*
X167185317Y-95053162D01*
X167401441Y-94914090D01*
X167510356Y-94754688D01*
X171033128Y-94759846D01*
X171296882Y-94908169D01*
X171296883Y-94908169D01*
X171296884Y-94908170D01*
X171560201Y-94994242D01*
X172065303Y-95054930D01*
X172108000Y-95051646D01*
X172150000Y-95060000D01*
X182771212Y-95060000D01*
X183054383Y-95123631D01*
X189876125Y-101765853D01*
X190040000Y-102711089D01*
X190040000Y-163180069D01*
X189858948Y-164090278D01*
X186802152Y-166715988D01*
X186430069Y-166790000D01*
X119307211Y-166790000D01*
X111608164Y-159503403D01*
X111560000Y-159275722D01*
X111560000Y-97619606D01*
X114101783Y-95077823D01*
X114208746Y-95060000D01*
X115126581Y-95060000D01*
X115026723Y-95126723D01*
X112176723Y-97976723D01*
X111909009Y-98377386D01*
X111815000Y-98850000D01*
X111815000Y-152050000D01*
X111909009Y-152522614D01*
X112176723Y-152923277D01*
X114526723Y-155273277D01*
X114927386Y-155540991D01*
X115400000Y-155635000D01*
X121965000Y-155635000D01*
X121965000Y-157250000D01*
X122059009Y-157722614D01*
X122326723Y-158123277D01*
X130026723Y-165823277D01*
X130427386Y-166090991D01*
X130900000Y-166185000D01*
X185300000Y-166185000D01*
X185772614Y-166090991D01*
X186173277Y-165823277D01*
X188573277Y-163423277D01*
X188840991Y-163022614D01*
X188935000Y-162550000D01*
X188935000Y-123350000D01*
X188840991Y-122877386D01*
X188573277Y-122476723D01*
X186623277Y-120526723D01*
X186222614Y-120259009D01*
X185750000Y-120165000D01*
X184089540Y-120165000D01*
X184285317Y-120128162D01*
X184501441Y-119989090D01*
X184646431Y-119776890D01*
X184697440Y-119525000D01*
X184697440Y-117525000D01*
X184653162Y-117289683D01*
X184514090Y-117073559D01*
X184301890Y-116928569D01*
X184050000Y-116877560D01*
X180750000Y-116877560D01*
X180514683Y-116921838D01*
X180298559Y-117060910D01*
X180153569Y-117273110D01*
X180102560Y-117525000D01*
X180102560Y-119455746D01*
X179172310Y-118525496D01*
X179172310Y-117125250D01*
X179128032Y-116889933D01*
X179074036Y-116806021D01*
X179196431Y-116626890D01*
X179247440Y-116375000D01*
X179247440Y-115475000D01*
X179203162Y-115239683D01*
X179162461Y-115176432D01*
X179235000Y-115001309D01*
X179235000Y-114710750D01*
X179076250Y-114552000D01*
X177477000Y-114552000D01*
X177477000Y-114572000D01*
X177223000Y-114572000D01*
X177223000Y-114552000D01*
X175623750Y-114552000D01*
X175465000Y-114710750D01*
X175465000Y-114805000D01*
X174343025Y-114805000D01*
X174438327Y-114709699D01*
X174535000Y-114476310D01*
X174535000Y-113785750D01*
X174376250Y-113627000D01*
X173177000Y-113627000D01*
X173177000Y-113647000D01*
X172923000Y-113647000D01*
X172923000Y-113627000D01*
X171723750Y-113627000D01*
X171565000Y-113785750D01*
X171565000Y-114476310D01*
X171661673Y-114709699D01*
X171840302Y-114888327D01*
X172014777Y-114960597D01*
X171970853Y-114989946D01*
X171648946Y-115471715D01*
X171535907Y-116040000D01*
X171648946Y-116608285D01*
X171970853Y-117090054D01*
X172452622Y-117411961D01*
X173020907Y-117525000D01*
X173079093Y-117525000D01*
X173647378Y-117411961D01*
X173852355Y-117275000D01*
X174428706Y-117275000D01*
X174877690Y-117723984D01*
X174877690Y-119124230D01*
X174921968Y-119359547D01*
X175061040Y-119575671D01*
X175273240Y-119720661D01*
X175525130Y-119771670D01*
X176925376Y-119771670D01*
X179426983Y-122273277D01*
X179827646Y-122540991D01*
X180300260Y-122635000D01*
X185238446Y-122635000D01*
X186465000Y-123861554D01*
X186465000Y-162038446D01*
X184788446Y-163715000D01*
X131411554Y-163715000D01*
X127021554Y-159325000D01*
X132252560Y-159325000D01*
X132252560Y-162625000D01*
X132296838Y-162860317D01*
X132435910Y-163076441D01*
X132648110Y-163221431D01*
X132900000Y-163272440D01*
X134900000Y-163272440D01*
X135135317Y-163228162D01*
X135351441Y-163089090D01*
X135496431Y-162876890D01*
X135547440Y-162625000D01*
X135547440Y-159325000D01*
X138952560Y-159325000D01*
X138952560Y-162625000D01*
X138996838Y-162860317D01*
X139135910Y-163076441D01*
X139348110Y-163221431D01*
X139600000Y-163272440D01*
X141600000Y-163272440D01*
X141835317Y-163228162D01*
X142051441Y-163089090D01*
X142196431Y-162876890D01*
X142247440Y-162625000D01*
X142247440Y-159325000D01*
X142203162Y-159089683D01*
X142064090Y-158873559D01*
X141851890Y-158728569D01*
X141600000Y-158677560D01*
X139600000Y-158677560D01*
X139364683Y-158721838D01*
X139148559Y-158860910D01*
X139003569Y-159073110D01*
X138952560Y-159325000D01*
X135547440Y-159325000D01*
X135503162Y-159089683D01*
X135364090Y-158873559D01*
X135151890Y-158728569D01*
X134900000Y-158677560D01*
X132900000Y-158677560D01*
X132664683Y-158721838D01*
X132448559Y-158860910D01*
X132303569Y-159073110D01*
X132252560Y-159325000D01*
X127021554Y-159325000D01*
X126196554Y-158500000D01*
X145077560Y-158500000D01*
X145077560Y-161800000D01*
X145121838Y-162035317D01*
X145260910Y-162251441D01*
X145473110Y-162396431D01*
X145725000Y-162447440D01*
X147725000Y-162447440D01*
X147960317Y-162403162D01*
X148176441Y-162264090D01*
X148321431Y-162051890D01*
X148372440Y-161800000D01*
X148372440Y-158500000D01*
X151777560Y-158500000D01*
X151777560Y-161800000D01*
X151821838Y-162035317D01*
X151960910Y-162251441D01*
X152173110Y-162396431D01*
X152425000Y-162447440D01*
X154425000Y-162447440D01*
X154660317Y-162403162D01*
X154876441Y-162264090D01*
X155021431Y-162051890D01*
X155072440Y-161800000D01*
X155072440Y-158500000D01*
X155028162Y-158264683D01*
X154889090Y-158048559D01*
X154676890Y-157903569D01*
X154425000Y-157852560D01*
X152425000Y-157852560D01*
X152189683Y-157896838D01*
X151973559Y-158035910D01*
X151828569Y-158248110D01*
X151777560Y-158500000D01*
X148372440Y-158500000D01*
X148328162Y-158264683D01*
X148189090Y-158048559D01*
X147976890Y-157903569D01*
X147725000Y-157852560D01*
X145725000Y-157852560D01*
X145489683Y-157896838D01*
X145273559Y-158035910D01*
X145128569Y-158248110D01*
X145077560Y-158500000D01*
X126196554Y-158500000D01*
X124435000Y-156738446D01*
X124435000Y-155635000D01*
X132603330Y-155635000D01*
X132603330Y-155899870D01*
X132647608Y-156135187D01*
X132786680Y-156351311D01*
X132998880Y-156496301D01*
X133250770Y-156547310D01*
X135249750Y-156547310D01*
X135355801Y-156527355D01*
X135402560Y-156574114D01*
X135402560Y-157175000D01*
X135446838Y-157410317D01*
X135585910Y-157626441D01*
X135798110Y-157771431D01*
X136050000Y-157822440D01*
X136950000Y-157822440D01*
X137185317Y-157778162D01*
X137248568Y-157737461D01*
X137423691Y-157810000D01*
X137714250Y-157810000D01*
X137873000Y-157651250D01*
X137873000Y-156052000D01*
X137853000Y-156052000D01*
X137853000Y-155798000D01*
X137873000Y-155798000D01*
X137873000Y-154198750D01*
X138127000Y-154198750D01*
X138127000Y-155798000D01*
X138147000Y-155798000D01*
X138147000Y-156052000D01*
X138127000Y-156052000D01*
X138127000Y-157651250D01*
X138285750Y-157810000D01*
X138576309Y-157810000D01*
X138809698Y-157713327D01*
X138988327Y-157534699D01*
X139085000Y-157301310D01*
X139085000Y-156518740D01*
X139123941Y-156534870D01*
X139963990Y-156534870D01*
X140122740Y-156376120D01*
X140122740Y-154527000D01*
X140376740Y-154527000D01*
X140376740Y-156376120D01*
X140535490Y-156534870D01*
X141375539Y-156534870D01*
X141608928Y-156438197D01*
X141787557Y-156259569D01*
X141884230Y-156026180D01*
X141884230Y-154685750D01*
X141725480Y-154527000D01*
X140376740Y-154527000D01*
X140122740Y-154527000D01*
X140102740Y-154527000D01*
X140102740Y-154273000D01*
X140122740Y-154273000D01*
X140122740Y-152423880D01*
X140376740Y-152423880D01*
X140376740Y-154273000D01*
X141725480Y-154273000D01*
X141884230Y-154114250D01*
X141884230Y-153325130D01*
X145528330Y-153325130D01*
X145528330Y-156324870D01*
X145572608Y-156560187D01*
X145711680Y-156776311D01*
X145923880Y-156921301D01*
X146175770Y-156972310D01*
X148174750Y-156972310D01*
X148410067Y-156928032D01*
X148505915Y-156866355D01*
X148623110Y-156946431D01*
X148875000Y-156997440D01*
X149775000Y-156997440D01*
X150010317Y-156953162D01*
X150073568Y-156912461D01*
X150248691Y-156985000D01*
X150539250Y-156985000D01*
X150698000Y-156826250D01*
X150698000Y-155227000D01*
X150678000Y-155227000D01*
X150678000Y-154973000D01*
X150698000Y-154973000D01*
X150698000Y-153373750D01*
X150952000Y-153373750D01*
X150952000Y-154973000D01*
X150972000Y-154973000D01*
X150972000Y-155227000D01*
X150952000Y-155227000D01*
X150952000Y-156826250D01*
X151110750Y-156985000D01*
X151401309Y-156985000D01*
X151634698Y-156888327D01*
X151737690Y-156785336D01*
X151815552Y-156863197D01*
X152048941Y-156959870D01*
X152888990Y-156959870D01*
X153047740Y-156801120D01*
X153047740Y-154952000D01*
X153301740Y-154952000D01*
X153301740Y-156801120D01*
X153460490Y-156959870D01*
X154300539Y-156959870D01*
X154533928Y-156863197D01*
X154712557Y-156684569D01*
X154809230Y-156451180D01*
X154809230Y-155110750D01*
X154650480Y-154952000D01*
X153301740Y-154952000D01*
X153047740Y-154952000D01*
X153027740Y-154952000D01*
X153027740Y-154698000D01*
X153047740Y-154698000D01*
X153047740Y-152848880D01*
X153301740Y-152848880D01*
X153301740Y-154698000D01*
X154650480Y-154698000D01*
X154809230Y-154539250D01*
X154809230Y-153198820D01*
X154712557Y-152965431D01*
X154533928Y-152786803D01*
X154300539Y-152690130D01*
X153460490Y-152690130D01*
X153301740Y-152848880D01*
X153047740Y-152848880D01*
X152888990Y-152690130D01*
X152048941Y-152690130D01*
X151815552Y-152786803D01*
X151636923Y-152965431D01*
X151540250Y-153198820D01*
X151540250Y-153272551D01*
X151401309Y-153215000D01*
X151110750Y-153215000D01*
X150952000Y-153373750D01*
X150698000Y-153373750D01*
X150539250Y-153215000D01*
X150248691Y-153215000D01*
X150075459Y-153286755D01*
X150026890Y-153253569D01*
X149775000Y-153202560D01*
X148875000Y-153202560D01*
X148801721Y-153216348D01*
X148777912Y-153089813D01*
X148638840Y-152873689D01*
X148426640Y-152728699D01*
X148320000Y-152707104D01*
X148320000Y-151264432D01*
X148485054Y-151154147D01*
X148514403Y-151110223D01*
X148586673Y-151284698D01*
X148765301Y-151463327D01*
X148998690Y-151560000D01*
X149689250Y-151560000D01*
X149848000Y-151401250D01*
X149848000Y-150202000D01*
X150102000Y-150202000D01*
X150102000Y-151401250D01*
X150260750Y-151560000D01*
X150951310Y-151560000D01*
X151184699Y-151463327D01*
X151363327Y-151284698D01*
X151460000Y-151051309D01*
X151460000Y-150360750D01*
X151301250Y-150202000D01*
X150102000Y-150202000D01*
X149848000Y-150202000D01*
X149828000Y-150202000D01*
X149828000Y-149948000D01*
X149848000Y-149948000D01*
X149848000Y-148748750D01*
X150102000Y-148748750D01*
X150102000Y-149948000D01*
X151301250Y-149948000D01*
X151460000Y-149789250D01*
X151460000Y-149098691D01*
X151363327Y-148865302D01*
X151184699Y-148686673D01*
X150951310Y-148590000D01*
X150260750Y-148590000D01*
X150102000Y-148748750D01*
X149848000Y-148748750D01*
X149689250Y-148590000D01*
X148998690Y-148590000D01*
X148765301Y-148686673D01*
X148586673Y-148865302D01*
X148514403Y-149039777D01*
X148485054Y-148995853D01*
X148003285Y-148673946D01*
X147435000Y-148560907D01*
X146866715Y-148673946D01*
X146384946Y-148995853D01*
X146063039Y-149477622D01*
X145950000Y-150045907D01*
X145950000Y-150104093D01*
X146063039Y-150672378D01*
X146384946Y-151154147D01*
X146550000Y-151264432D01*
X146550000Y-152677690D01*
X146175770Y-152677690D01*
X145940453Y-152721968D01*
X145724329Y-152861040D01*
X145579339Y-153073240D01*
X145528330Y-153325130D01*
X141884230Y-153325130D01*
X141884230Y-152773820D01*
X141787557Y-152540431D01*
X141608928Y-152361803D01*
X141375539Y-152265130D01*
X140535490Y-152265130D01*
X140376740Y-152423880D01*
X140122740Y-152423880D01*
X139963990Y-152265130D01*
X139123941Y-152265130D01*
X138890552Y-152361803D01*
X138711923Y-152540431D01*
X138615250Y-152773820D01*
X138615250Y-154056130D01*
X138576309Y-154040000D01*
X138285750Y-154040000D01*
X138127000Y-154198750D01*
X137873000Y-154198750D01*
X137714250Y-154040000D01*
X137423691Y-154040000D01*
X137250459Y-154111755D01*
X137201890Y-154078569D01*
X136950000Y-154027560D01*
X136369254Y-154027560D01*
X137033277Y-153363537D01*
X137300991Y-152962874D01*
X137395000Y-152490260D01*
X137395000Y-150743025D01*
X137490301Y-150838327D01*
X137723690Y-150935000D01*
X138414250Y-150935000D01*
X138573000Y-150776250D01*
X138573000Y-149577000D01*
X138827000Y-149577000D01*
X138827000Y-150776250D01*
X138985750Y-150935000D01*
X139676310Y-150935000D01*
X139909699Y-150838327D01*
X140088327Y-150659698D01*
X140185000Y-150426309D01*
X140185000Y-149735750D01*
X140026250Y-149577000D01*
X138827000Y-149577000D01*
X138573000Y-149577000D01*
X138553000Y-149577000D01*
X138553000Y-149323000D01*
X138573000Y-149323000D01*
X138573000Y-148123750D01*
X138827000Y-148123750D01*
X138827000Y-149323000D01*
X140026250Y-149323000D01*
X140185000Y-149164250D01*
X140185000Y-148473691D01*
X140088327Y-148240302D01*
X139909699Y-148061673D01*
X139676310Y-147965000D01*
X138985750Y-147965000D01*
X138827000Y-148123750D01*
X138573000Y-148123750D01*
X138414250Y-147965000D01*
X137723690Y-147965000D01*
X137490301Y-148061673D01*
X137311673Y-148240302D01*
X137239403Y-148414777D01*
X137210054Y-148370853D01*
X136728285Y-148048946D01*
X136160000Y-147935907D01*
X135591715Y-148048946D01*
X135109946Y-148370853D01*
X134788039Y-148852622D01*
X134675000Y-149420907D01*
X134675000Y-149479093D01*
X134788039Y-150047378D01*
X134925000Y-150252355D01*
X134925000Y-151978706D01*
X134651016Y-152252690D01*
X133250770Y-152252690D01*
X133015453Y-152296968D01*
X132799329Y-152436040D01*
X132654339Y-152648240D01*
X132603330Y-152900130D01*
X132603330Y-153165000D01*
X115911554Y-153165000D01*
X114285000Y-151538446D01*
X114285000Y-148950000D01*
X115577560Y-148950000D01*
X115577560Y-150950000D01*
X115621838Y-151185317D01*
X115760910Y-151401441D01*
X115973110Y-151546431D01*
X116225000Y-151597440D01*
X119525000Y-151597440D01*
X119760317Y-151553162D01*
X119976441Y-151414090D01*
X120121431Y-151201890D01*
X120172440Y-150950000D01*
X120172440Y-148950000D01*
X120128162Y-148714683D01*
X120109545Y-148685750D01*
X125115000Y-148685750D01*
X125115000Y-149376310D01*
X125211673Y-149609699D01*
X125390302Y-149788327D01*
X125623691Y-149885000D01*
X126314250Y-149885000D01*
X126473000Y-149726250D01*
X126473000Y-148527000D01*
X126727000Y-148527000D01*
X126727000Y-149726250D01*
X126885750Y-149885000D01*
X127576309Y-149885000D01*
X127809698Y-149788327D01*
X127988327Y-149609699D01*
X128085000Y-149376310D01*
X128085000Y-148685750D01*
X127926250Y-148527000D01*
X126727000Y-148527000D01*
X126473000Y-148527000D01*
X125273750Y-148527000D01*
X125115000Y-148685750D01*
X120109545Y-148685750D01*
X119989090Y-148498559D01*
X119776890Y-148353569D01*
X119525000Y-148302560D01*
X116225000Y-148302560D01*
X115989683Y-148346838D01*
X115773559Y-148485910D01*
X115628569Y-148698110D01*
X115577560Y-148950000D01*
X114285000Y-148950000D01*
X114285000Y-147635750D01*
X121040000Y-147635750D01*
X121040000Y-147926309D01*
X121136673Y-148159698D01*
X121315301Y-148338327D01*
X121548690Y-148435000D01*
X122639250Y-148435000D01*
X122798000Y-148276250D01*
X122798000Y-147477000D01*
X123052000Y-147477000D01*
X123052000Y-148276250D01*
X123210750Y-148435000D01*
X124301310Y-148435000D01*
X124534699Y-148338327D01*
X124713327Y-148159698D01*
X124810000Y-147926309D01*
X124810000Y-147635750D01*
X124651250Y-147477000D01*
X123052000Y-147477000D01*
X122798000Y-147477000D01*
X121198750Y-147477000D01*
X121040000Y-147635750D01*
X114285000Y-147635750D01*
X114285000Y-140750000D01*
X115577560Y-140750000D01*
X115577560Y-142750000D01*
X115621838Y-142985317D01*
X115760910Y-143201441D01*
X115973110Y-143346431D01*
X116225000Y-143397440D01*
X119525000Y-143397440D01*
X119760317Y-143353162D01*
X119976441Y-143214090D01*
X120121431Y-143001890D01*
X120172440Y-142750000D01*
X120172440Y-140750000D01*
X120128162Y-140514683D01*
X119989090Y-140298559D01*
X119776890Y-140153569D01*
X119525000Y-140102560D01*
X116225000Y-140102560D01*
X115989683Y-140146838D01*
X115773559Y-140285910D01*
X115628569Y-140498110D01*
X115577560Y-140750000D01*
X114285000Y-140750000D01*
X114285000Y-139935000D01*
X121468446Y-139935000D01*
X124998446Y-143465000D01*
X124649669Y-143465000D01*
X124639090Y-143448559D01*
X124426890Y-143303569D01*
X124175000Y-143252560D01*
X121675000Y-143252560D01*
X121439683Y-143296838D01*
X121223559Y-143435910D01*
X121078569Y-143648110D01*
X121027560Y-143900000D01*
X121027560Y-144800000D01*
X121071838Y-145035317D01*
X121112481Y-145098478D01*
X121078569Y-145148110D01*
X121027560Y-145400000D01*
X121027560Y-146300000D01*
X121071838Y-146535317D01*
X121112539Y-146598568D01*
X121040000Y-146773691D01*
X121040000Y-147064250D01*
X121198750Y-147223000D01*
X122798000Y-147223000D01*
X122798000Y-147203000D01*
X123052000Y-147203000D01*
X123052000Y-147223000D01*
X124651250Y-147223000D01*
X124810000Y-147064250D01*
X124810000Y-146773691D01*
X124793974Y-146735000D01*
X125403886Y-146735000D01*
X125520853Y-146910054D01*
X125564777Y-146939403D01*
X125390302Y-147011673D01*
X125211673Y-147190301D01*
X125115000Y-147423690D01*
X125115000Y-148114250D01*
X125273750Y-148273000D01*
X126473000Y-148273000D01*
X126473000Y-148253000D01*
X126727000Y-148253000D01*
X126727000Y-148273000D01*
X127926250Y-148273000D01*
X128085000Y-148114250D01*
X128085000Y-147423690D01*
X127988327Y-147190301D01*
X127809698Y-147011673D01*
X127635223Y-146939403D01*
X127679147Y-146910054D01*
X127789432Y-146745000D01*
X128089995Y-146745000D01*
X128090000Y-146745001D01*
X128372484Y-146688810D01*
X128428675Y-146677633D01*
X128715790Y-146485790D01*
X128715791Y-146485789D01*
X134266564Y-140935015D01*
X134494579Y-140935214D01*
X134948657Y-140747592D01*
X135296371Y-140400485D01*
X135484785Y-139946734D01*
X135485214Y-139455421D01*
X135297592Y-139001343D01*
X134950485Y-138653629D01*
X134496734Y-138465215D01*
X134005421Y-138464786D01*
X133551343Y-138652408D01*
X133203629Y-138999515D01*
X133015215Y-139453266D01*
X133015014Y-139683407D01*
X127762992Y-144935429D01*
X127679147Y-144809946D01*
X127349974Y-144590000D01*
X127679147Y-144370054D01*
X128001054Y-143888285D01*
X128114093Y-143320000D01*
X128001054Y-142751715D01*
X127679147Y-142269946D01*
X127197378Y-141948039D01*
X126919275Y-141892721D01*
X122853277Y-137826723D01*
X122452614Y-137559009D01*
X121980000Y-137465000D01*
X119869622Y-137465000D01*
X120026441Y-137364090D01*
X120171431Y-137151890D01*
X120222440Y-136900000D01*
X120222440Y-134900000D01*
X120178162Y-134664683D01*
X120095196Y-134535750D01*
X125065000Y-134535750D01*
X125065000Y-135226310D01*
X125161673Y-135459699D01*
X125340302Y-135638327D01*
X125573691Y-135735000D01*
X126264250Y-135735000D01*
X126423000Y-135576250D01*
X126423000Y-134377000D01*
X126677000Y-134377000D01*
X126677000Y-135576250D01*
X126835750Y-135735000D01*
X127526309Y-135735000D01*
X127759698Y-135638327D01*
X127938327Y-135459699D01*
X128035000Y-135226310D01*
X128035000Y-134535750D01*
X127876250Y-134377000D01*
X126677000Y-134377000D01*
X126423000Y-134377000D01*
X125223750Y-134377000D01*
X125065000Y-134535750D01*
X120095196Y-134535750D01*
X120039090Y-134448559D01*
X119826890Y-134303569D01*
X119575000Y-134252560D01*
X116275000Y-134252560D01*
X116039683Y-134296838D01*
X115823559Y-134435910D01*
X115678569Y-134648110D01*
X115627560Y-134900000D01*
X115627560Y-136900000D01*
X115671838Y-137135317D01*
X115810910Y-137351441D01*
X115977109Y-137465000D01*
X114285000Y-137465000D01*
X114285000Y-133585750D01*
X121090000Y-133585750D01*
X121090000Y-133876309D01*
X121186673Y-134109698D01*
X121365301Y-134288327D01*
X121598690Y-134385000D01*
X122689250Y-134385000D01*
X122848000Y-134226250D01*
X122848000Y-133427000D01*
X123102000Y-133427000D01*
X123102000Y-134226250D01*
X123260750Y-134385000D01*
X124351310Y-134385000D01*
X124584699Y-134288327D01*
X124763327Y-134109698D01*
X124860000Y-133876309D01*
X124860000Y-133585750D01*
X124701250Y-133427000D01*
X123102000Y-133427000D01*
X122848000Y-133427000D01*
X121248750Y-133427000D01*
X121090000Y-133585750D01*
X114285000Y-133585750D01*
X114285000Y-126335000D01*
X115755854Y-126335000D01*
X115678569Y-126448110D01*
X115627560Y-126700000D01*
X115627560Y-128700000D01*
X115671838Y-128935317D01*
X115810910Y-129151441D01*
X116023110Y-129296431D01*
X116275000Y-129347440D01*
X119575000Y-129347440D01*
X119810317Y-129303162D01*
X120026441Y-129164090D01*
X120171431Y-128951890D01*
X120222440Y-128700000D01*
X120222440Y-126700000D01*
X120178162Y-126464683D01*
X120094713Y-126335000D01*
X121968446Y-126335000D01*
X125048446Y-129415000D01*
X124699669Y-129415000D01*
X124689090Y-129398559D01*
X124476890Y-129253569D01*
X124225000Y-129202560D01*
X121725000Y-129202560D01*
X121489683Y-129246838D01*
X121273559Y-129385910D01*
X121128569Y-129598110D01*
X121077560Y-129850000D01*
X121077560Y-130750000D01*
X121121838Y-130985317D01*
X121162481Y-131048478D01*
X121128569Y-131098110D01*
X121077560Y-131350000D01*
X121077560Y-132250000D01*
X121121838Y-132485317D01*
X121162539Y-132548568D01*
X121090000Y-132723691D01*
X121090000Y-133014250D01*
X121248750Y-133173000D01*
X122848000Y-133173000D01*
X122848000Y-133153000D01*
X123102000Y-133153000D01*
X123102000Y-133173000D01*
X124701250Y-133173000D01*
X124860000Y-133014250D01*
X124860000Y-132723691D01*
X124843974Y-132685000D01*
X125420704Y-132685000D01*
X125470853Y-132760054D01*
X125514777Y-132789403D01*
X125340302Y-132861673D01*
X125161673Y-133040301D01*
X125065000Y-133273690D01*
X125065000Y-133964250D01*
X125223750Y-134123000D01*
X126423000Y-134123000D01*
X126423000Y-134103000D01*
X126677000Y-134103000D01*
X126677000Y-134123000D01*
X127876250Y-134123000D01*
X128035000Y-133964250D01*
X128035000Y-133273690D01*
X127938327Y-133040301D01*
X127759698Y-132861673D01*
X127585223Y-132789403D01*
X127629147Y-132760054D01*
X127951054Y-132278285D01*
X128064093Y-131710000D01*
X127951054Y-131141715D01*
X127629147Y-130659946D01*
X127299974Y-130440000D01*
X127629147Y-130220054D01*
X127951054Y-129738285D01*
X128064093Y-129170000D01*
X127951054Y-128601715D01*
X127629147Y-128119946D01*
X127147378Y-127798039D01*
X126869275Y-127742721D01*
X123353277Y-124226723D01*
X122952614Y-123959009D01*
X122480000Y-123865000D01*
X114285000Y-123865000D01*
X114285000Y-121050000D01*
X115477560Y-121050000D01*
X115477560Y-123050000D01*
X115521838Y-123285317D01*
X115660910Y-123501441D01*
X115873110Y-123646431D01*
X116125000Y-123697440D01*
X119425000Y-123697440D01*
X119660317Y-123653162D01*
X119876441Y-123514090D01*
X120021431Y-123301890D01*
X120072440Y-123050000D01*
X120072440Y-121050000D01*
X120032127Y-120835750D01*
X124915000Y-120835750D01*
X124915000Y-121526310D01*
X125011673Y-121759699D01*
X125190302Y-121938327D01*
X125423691Y-122035000D01*
X126114250Y-122035000D01*
X126273000Y-121876250D01*
X126273000Y-120677000D01*
X126527000Y-120677000D01*
X126527000Y-121876250D01*
X126685750Y-122035000D01*
X127376309Y-122035000D01*
X127609698Y-121938327D01*
X127788327Y-121759699D01*
X127885000Y-121526310D01*
X127885000Y-120835750D01*
X127726250Y-120677000D01*
X126527000Y-120677000D01*
X126273000Y-120677000D01*
X125073750Y-120677000D01*
X124915000Y-120835750D01*
X120032127Y-120835750D01*
X120028162Y-120814683D01*
X119889090Y-120598559D01*
X119676890Y-120453569D01*
X119425000Y-120402560D01*
X116125000Y-120402560D01*
X115889683Y-120446838D01*
X115673559Y-120585910D01*
X115528569Y-120798110D01*
X115477560Y-121050000D01*
X114285000Y-121050000D01*
X114285000Y-119735750D01*
X120940000Y-119735750D01*
X120940000Y-120026309D01*
X121036673Y-120259698D01*
X121215301Y-120438327D01*
X121448690Y-120535000D01*
X122539250Y-120535000D01*
X122698000Y-120376250D01*
X122698000Y-119577000D01*
X122952000Y-119577000D01*
X122952000Y-120376250D01*
X123110750Y-120535000D01*
X124201310Y-120535000D01*
X124434699Y-120438327D01*
X124613327Y-120259698D01*
X124710000Y-120026309D01*
X124710000Y-119735750D01*
X124551250Y-119577000D01*
X122952000Y-119577000D01*
X122698000Y-119577000D01*
X121098750Y-119577000D01*
X120940000Y-119735750D01*
X114285000Y-119735750D01*
X114285000Y-112385000D01*
X115674973Y-112385000D01*
X115673559Y-112385910D01*
X115528569Y-112598110D01*
X115477560Y-112850000D01*
X115477560Y-114850000D01*
X115521838Y-115085317D01*
X115660910Y-115301441D01*
X115873110Y-115446431D01*
X116125000Y-115497440D01*
X119425000Y-115497440D01*
X119660317Y-115453162D01*
X119876441Y-115314090D01*
X120021431Y-115101890D01*
X120072440Y-114850000D01*
X120072440Y-112850000D01*
X120028162Y-112614683D01*
X119889090Y-112398559D01*
X119869246Y-112385000D01*
X121568446Y-112385000D01*
X124748446Y-115565000D01*
X124549669Y-115565000D01*
X124539090Y-115548559D01*
X124326890Y-115403569D01*
X124075000Y-115352560D01*
X121575000Y-115352560D01*
X121339683Y-115396838D01*
X121123559Y-115535910D01*
X120978569Y-115748110D01*
X120927560Y-116000000D01*
X120927560Y-116900000D01*
X120971838Y-117135317D01*
X121012481Y-117198478D01*
X120978569Y-117248110D01*
X120927560Y-117500000D01*
X120927560Y-118400000D01*
X120971838Y-118635317D01*
X121012539Y-118698568D01*
X120940000Y-118873691D01*
X120940000Y-119164250D01*
X121098750Y-119323000D01*
X122698000Y-119323000D01*
X122698000Y-119303000D01*
X122952000Y-119303000D01*
X122952000Y-119323000D01*
X124551250Y-119323000D01*
X124710000Y-119164250D01*
X124710000Y-118873691D01*
X124693974Y-118835000D01*
X125170477Y-118835000D01*
X125320853Y-119060054D01*
X125364777Y-119089403D01*
X125190302Y-119161673D01*
X125011673Y-119340301D01*
X124915000Y-119573690D01*
X124915000Y-120264250D01*
X125073750Y-120423000D01*
X126273000Y-120423000D01*
X126273000Y-120403000D01*
X126527000Y-120403000D01*
X126527000Y-120423000D01*
X127726250Y-120423000D01*
X127885000Y-120264250D01*
X127885000Y-119573690D01*
X127788327Y-119340301D01*
X127609698Y-119161673D01*
X127435223Y-119089403D01*
X127479147Y-119060054D01*
X127589432Y-118895000D01*
X129457453Y-118895000D01*
X129553266Y-118934785D01*
X130044579Y-118935214D01*
X130498657Y-118747592D01*
X130765000Y-118481714D01*
X130765000Y-128938426D01*
X130603629Y-129099515D01*
X130415215Y-129553266D01*
X130414786Y-130044579D01*
X130602408Y-130498657D01*
X130949515Y-130846371D01*
X131403266Y-131034785D01*
X131894579Y-131035214D01*
X132348657Y-130847592D01*
X132696371Y-130500485D01*
X132884785Y-130046734D01*
X132885214Y-129555421D01*
X132697592Y-129101343D01*
X132535000Y-128938467D01*
X132535000Y-112744579D01*
X140864786Y-112744579D01*
X141052408Y-113198657D01*
X141399515Y-113546371D01*
X141853266Y-113734785D01*
X142083407Y-113734986D01*
X142165000Y-113816579D01*
X142165000Y-144538426D01*
X142003629Y-144699515D01*
X141815215Y-145153266D01*
X141814786Y-145644579D01*
X142002408Y-146098657D01*
X142349515Y-146446371D01*
X142803266Y-146634785D01*
X143294579Y-146635214D01*
X143748657Y-146447592D01*
X144096371Y-146100485D01*
X144284785Y-145646734D01*
X144285214Y-145155421D01*
X144097592Y-144701343D01*
X143935000Y-144538467D01*
X143935000Y-113450005D01*
X143935001Y-113450000D01*
X143867633Y-113111326D01*
X143867633Y-113111325D01*
X143675790Y-112824210D01*
X143675787Y-112824208D01*
X143346158Y-112494579D01*
X143664786Y-112494579D01*
X143852408Y-112948657D01*
X144015000Y-113111533D01*
X144015000Y-133599995D01*
X144014999Y-133600000D01*
X144069962Y-133876309D01*
X144082367Y-133938675D01*
X144264546Y-134211326D01*
X144274210Y-134225790D01*
X169264208Y-159215787D01*
X169264210Y-159215790D01*
X169551325Y-159407633D01*
X169607516Y-159418810D01*
X169890000Y-159475001D01*
X169890005Y-159475000D01*
X171660568Y-159475000D01*
X171770853Y-159640054D01*
X172252622Y-159961961D01*
X172820907Y-160075000D01*
X172879093Y-160075000D01*
X173447378Y-159961961D01*
X173929147Y-159640054D01*
X174039432Y-159475000D01*
X175373680Y-159475000D01*
X175652690Y-159754010D01*
X175652690Y-161649230D01*
X175696968Y-161884547D01*
X175836040Y-162100671D01*
X176048240Y-162245661D01*
X176300130Y-162296670D01*
X179299870Y-162296670D01*
X179535187Y-162252392D01*
X179751311Y-162113320D01*
X179896301Y-161901120D01*
X179947310Y-161649230D01*
X179947310Y-159950000D01*
X180827560Y-159950000D01*
X180827560Y-161950000D01*
X180871838Y-162185317D01*
X181010910Y-162401441D01*
X181223110Y-162546431D01*
X181475000Y-162597440D01*
X184775000Y-162597440D01*
X185010317Y-162553162D01*
X185226441Y-162414090D01*
X185371431Y-162201890D01*
X185422440Y-161950000D01*
X185422440Y-159950000D01*
X185378162Y-159714683D01*
X185239090Y-159498559D01*
X185026890Y-159353569D01*
X184775000Y-159302560D01*
X181475000Y-159302560D01*
X181239683Y-159346838D01*
X181023559Y-159485910D01*
X180878569Y-159698110D01*
X180827560Y-159950000D01*
X179947310Y-159950000D01*
X179947310Y-159650250D01*
X179903032Y-159414933D01*
X179791647Y-159241836D01*
X179921431Y-159051890D01*
X179972440Y-158800000D01*
X179972440Y-157900000D01*
X179928162Y-157664683D01*
X179887461Y-157601432D01*
X179960000Y-157426309D01*
X179960000Y-157135750D01*
X179801250Y-156977000D01*
X178202000Y-156977000D01*
X178202000Y-156997000D01*
X177948000Y-156997000D01*
X177948000Y-156977000D01*
X176348750Y-156977000D01*
X176190000Y-157135750D01*
X176190000Y-157426309D01*
X176261755Y-157599541D01*
X176228569Y-157648110D01*
X176217048Y-157705000D01*
X175740265Y-157705000D01*
X175740260Y-157704999D01*
X175740255Y-157705000D01*
X174039432Y-157705000D01*
X173929147Y-157539946D01*
X173885223Y-157510597D01*
X174059698Y-157438327D01*
X174238327Y-157259699D01*
X174335000Y-157026310D01*
X174335000Y-156335750D01*
X174176250Y-156177000D01*
X172977000Y-156177000D01*
X172977000Y-156197000D01*
X172723000Y-156197000D01*
X172723000Y-156177000D01*
X171523750Y-156177000D01*
X171365000Y-156335750D01*
X171365000Y-157026310D01*
X171461673Y-157259699D01*
X171640302Y-157438327D01*
X171814777Y-157510597D01*
X171770853Y-157539946D01*
X171660568Y-157705000D01*
X170256579Y-157705000D01*
X167625270Y-155073690D01*
X171365000Y-155073690D01*
X171365000Y-155764250D01*
X171523750Y-155923000D01*
X172723000Y-155923000D01*
X172723000Y-154723750D01*
X172977000Y-154723750D01*
X172977000Y-155923000D01*
X174176250Y-155923000D01*
X174335000Y-155764250D01*
X174335000Y-155073690D01*
X174277972Y-154936010D01*
X175665130Y-154936010D01*
X175665130Y-155776059D01*
X175761803Y-156009448D01*
X175940431Y-156188077D01*
X176173820Y-156284750D01*
X176190000Y-156284750D01*
X176190000Y-156564250D01*
X176348750Y-156723000D01*
X177948000Y-156723000D01*
X177948000Y-156703000D01*
X178202000Y-156703000D01*
X178202000Y-156723000D01*
X179801250Y-156723000D01*
X179960000Y-156564250D01*
X179960000Y-156273691D01*
X179863327Y-156040302D01*
X179835335Y-156012310D01*
X179838197Y-156009448D01*
X179934870Y-155776059D01*
X179934870Y-154936010D01*
X179776120Y-154777260D01*
X177927000Y-154777260D01*
X177927000Y-154797260D01*
X177673000Y-154797260D01*
X177673000Y-154777260D01*
X175823880Y-154777260D01*
X175665130Y-154936010D01*
X174277972Y-154936010D01*
X174238327Y-154840301D01*
X174059698Y-154661673D01*
X173826309Y-154565000D01*
X173135750Y-154565000D01*
X172977000Y-154723750D01*
X172723000Y-154723750D01*
X172564250Y-154565000D01*
X171873691Y-154565000D01*
X171640302Y-154661673D01*
X171461673Y-154840301D01*
X171365000Y-155073690D01*
X167625270Y-155073690D01*
X166076041Y-153524461D01*
X175665130Y-153524461D01*
X175665130Y-154364510D01*
X175823880Y-154523260D01*
X177673000Y-154523260D01*
X177673000Y-153174520D01*
X177927000Y-153174520D01*
X177927000Y-154523260D01*
X179776120Y-154523260D01*
X179934870Y-154364510D01*
X179934870Y-153524461D01*
X179838197Y-153291072D01*
X179797126Y-153250000D01*
X180827560Y-153250000D01*
X180827560Y-155250000D01*
X180871838Y-155485317D01*
X181010910Y-155701441D01*
X181223110Y-155846431D01*
X181475000Y-155897440D01*
X184775000Y-155897440D01*
X185010317Y-155853162D01*
X185226441Y-155714090D01*
X185371431Y-155501890D01*
X185422440Y-155250000D01*
X185422440Y-153250000D01*
X185378162Y-153014683D01*
X185239090Y-152798559D01*
X185026890Y-152653569D01*
X184775000Y-152602560D01*
X181475000Y-152602560D01*
X181239683Y-152646838D01*
X181023559Y-152785910D01*
X180878569Y-152998110D01*
X180827560Y-153250000D01*
X179797126Y-153250000D01*
X179659569Y-153112443D01*
X179426180Y-153015770D01*
X178085750Y-153015770D01*
X177927000Y-153174520D01*
X177673000Y-153174520D01*
X177514250Y-153015770D01*
X176173820Y-153015770D01*
X175940431Y-153112443D01*
X175761803Y-153291072D01*
X175665130Y-153524461D01*
X166076041Y-153524461D01*
X145785000Y-133233420D01*
X145785000Y-114944579D01*
X146264786Y-114944579D01*
X146452408Y-115398657D01*
X146615000Y-115561533D01*
X146615000Y-132799995D01*
X146614999Y-132800000D01*
X146657617Y-133014250D01*
X146682367Y-133138675D01*
X146874210Y-133425790D01*
X162724208Y-149275787D01*
X162724210Y-149275790D01*
X163011325Y-149467633D01*
X163061543Y-149477622D01*
X163350000Y-149535001D01*
X163350005Y-149535000D01*
X171000205Y-149535000D01*
X171270853Y-149940054D01*
X171752622Y-150261961D01*
X172320907Y-150375000D01*
X172379093Y-150375000D01*
X172947378Y-150261961D01*
X173429147Y-149940054D01*
X173539432Y-149775000D01*
X175652690Y-149775000D01*
X175652690Y-151349230D01*
X175696968Y-151584547D01*
X175836040Y-151800671D01*
X176048240Y-151945661D01*
X176300130Y-151996670D01*
X179299870Y-151996670D01*
X179535187Y-151952392D01*
X179751311Y-151813320D01*
X179896301Y-151601120D01*
X179947310Y-151349230D01*
X179947310Y-149750000D01*
X180727560Y-149750000D01*
X180727560Y-151750000D01*
X180771838Y-151985317D01*
X180910910Y-152201441D01*
X181123110Y-152346431D01*
X181375000Y-152397440D01*
X184675000Y-152397440D01*
X184910317Y-152353162D01*
X185126441Y-152214090D01*
X185271431Y-152001890D01*
X185322440Y-151750000D01*
X185322440Y-149750000D01*
X185278162Y-149514683D01*
X185139090Y-149298559D01*
X184926890Y-149153569D01*
X184675000Y-149102560D01*
X181375000Y-149102560D01*
X181139683Y-149146838D01*
X180923559Y-149285910D01*
X180778569Y-149498110D01*
X180727560Y-149750000D01*
X179947310Y-149750000D01*
X179947310Y-149350250D01*
X179903032Y-149114933D01*
X179776285Y-148917963D01*
X179821431Y-148851890D01*
X179872440Y-148600000D01*
X179872440Y-147700000D01*
X179828162Y-147464683D01*
X179787461Y-147401432D01*
X179860000Y-147226309D01*
X179860000Y-146935750D01*
X179701250Y-146777000D01*
X178102000Y-146777000D01*
X178102000Y-146797000D01*
X177848000Y-146797000D01*
X177848000Y-146777000D01*
X176248750Y-146777000D01*
X176090000Y-146935750D01*
X176090000Y-147226309D01*
X176161755Y-147399541D01*
X176128569Y-147448110D01*
X176077560Y-147700000D01*
X176077560Y-148005000D01*
X173539432Y-148005000D01*
X173429147Y-147839946D01*
X173385223Y-147810597D01*
X173559698Y-147738327D01*
X173738327Y-147559699D01*
X173835000Y-147326310D01*
X173835000Y-146635750D01*
X173676250Y-146477000D01*
X172477000Y-146477000D01*
X172477000Y-146497000D01*
X172223000Y-146497000D01*
X172223000Y-146477000D01*
X171023750Y-146477000D01*
X170865000Y-146635750D01*
X170865000Y-147326310D01*
X170961673Y-147559699D01*
X171140302Y-147738327D01*
X171204696Y-147765000D01*
X163716579Y-147765000D01*
X161325270Y-145373690D01*
X170865000Y-145373690D01*
X170865000Y-146064250D01*
X171023750Y-146223000D01*
X172223000Y-146223000D01*
X172223000Y-145023750D01*
X172477000Y-145023750D01*
X172477000Y-146223000D01*
X173676250Y-146223000D01*
X173835000Y-146064250D01*
X173835000Y-145373690D01*
X173738327Y-145140301D01*
X173559698Y-144961673D01*
X173326309Y-144865000D01*
X172635750Y-144865000D01*
X172477000Y-145023750D01*
X172223000Y-145023750D01*
X172064250Y-144865000D01*
X171373691Y-144865000D01*
X171140302Y-144961673D01*
X170961673Y-145140301D01*
X170865000Y-145373690D01*
X161325270Y-145373690D01*
X160587590Y-144636010D01*
X175665130Y-144636010D01*
X175665130Y-145476059D01*
X175761803Y-145709448D01*
X175940431Y-145888077D01*
X176133721Y-145968140D01*
X176090000Y-146073691D01*
X176090000Y-146364250D01*
X176248750Y-146523000D01*
X177848000Y-146523000D01*
X177848000Y-146503000D01*
X178102000Y-146503000D01*
X178102000Y-146523000D01*
X179701250Y-146523000D01*
X179860000Y-146364250D01*
X179860000Y-146073691D01*
X179763327Y-145840302D01*
X179735335Y-145812310D01*
X179838197Y-145709448D01*
X179934870Y-145476059D01*
X179934870Y-144636010D01*
X179776120Y-144477260D01*
X177927000Y-144477260D01*
X177927000Y-144497260D01*
X177673000Y-144497260D01*
X177673000Y-144477260D01*
X175823880Y-144477260D01*
X175665130Y-144636010D01*
X160587590Y-144636010D01*
X159176041Y-143224461D01*
X175665130Y-143224461D01*
X175665130Y-144064510D01*
X175823880Y-144223260D01*
X177673000Y-144223260D01*
X177673000Y-142874520D01*
X177927000Y-142874520D01*
X177927000Y-144223260D01*
X179776120Y-144223260D01*
X179934870Y-144064510D01*
X179934870Y-143224461D01*
X179838197Y-142991072D01*
X179659569Y-142812443D01*
X179426180Y-142715770D01*
X178085750Y-142715770D01*
X177927000Y-142874520D01*
X177673000Y-142874520D01*
X177514250Y-142715770D01*
X176173820Y-142715770D01*
X175940431Y-142812443D01*
X175761803Y-142991072D01*
X175665130Y-143224461D01*
X159176041Y-143224461D01*
X155041580Y-139090000D01*
X171385907Y-139090000D01*
X171498946Y-139658285D01*
X171820853Y-140140054D01*
X172302622Y-140461961D01*
X172870907Y-140575000D01*
X172929093Y-140575000D01*
X173497378Y-140461961D01*
X173979147Y-140140054D01*
X174089432Y-139975000D01*
X175802690Y-139975000D01*
X175802690Y-141599230D01*
X175846968Y-141834547D01*
X175986040Y-142050671D01*
X176198240Y-142195661D01*
X176450130Y-142246670D01*
X179449870Y-142246670D01*
X179685187Y-142202392D01*
X179901311Y-142063320D01*
X180046301Y-141851120D01*
X180097310Y-141599230D01*
X180097310Y-140000000D01*
X180727560Y-140000000D01*
X180727560Y-142000000D01*
X180771838Y-142235317D01*
X180910910Y-142451441D01*
X181018397Y-142524884D01*
X180923559Y-142585910D01*
X180778569Y-142798110D01*
X180727560Y-143050000D01*
X180727560Y-145050000D01*
X180771838Y-145285317D01*
X180910910Y-145501441D01*
X181123110Y-145646431D01*
X181375000Y-145697440D01*
X184675000Y-145697440D01*
X184910317Y-145653162D01*
X185126441Y-145514090D01*
X185271431Y-145301890D01*
X185322440Y-145050000D01*
X185322440Y-143050000D01*
X185278162Y-142814683D01*
X185139090Y-142598559D01*
X185031603Y-142525116D01*
X185126441Y-142464090D01*
X185271431Y-142251890D01*
X185322440Y-142000000D01*
X185322440Y-140000000D01*
X185278162Y-139764683D01*
X185139090Y-139548559D01*
X184926890Y-139403569D01*
X184675000Y-139352560D01*
X181375000Y-139352560D01*
X181139683Y-139396838D01*
X180923559Y-139535910D01*
X180778569Y-139748110D01*
X180727560Y-140000000D01*
X180097310Y-140000000D01*
X180097310Y-139600250D01*
X180053032Y-139364933D01*
X179913960Y-139148809D01*
X179824331Y-139087568D01*
X179872440Y-138850000D01*
X179872440Y-137950000D01*
X179828162Y-137714683D01*
X179787461Y-137651432D01*
X179860000Y-137476309D01*
X179860000Y-137185750D01*
X179701250Y-137027000D01*
X178102000Y-137027000D01*
X178102000Y-137047000D01*
X177848000Y-137047000D01*
X177848000Y-137027000D01*
X176248750Y-137027000D01*
X176090000Y-137185750D01*
X176090000Y-137476309D01*
X176161755Y-137649541D01*
X176128569Y-137698110D01*
X176077560Y-137950000D01*
X176077560Y-138205000D01*
X174089432Y-138205000D01*
X173979147Y-138039946D01*
X173935223Y-138010597D01*
X174109698Y-137938327D01*
X174288327Y-137759699D01*
X174385000Y-137526310D01*
X174385000Y-136835750D01*
X174226250Y-136677000D01*
X173027000Y-136677000D01*
X173027000Y-136697000D01*
X172773000Y-136697000D01*
X172773000Y-136677000D01*
X171573750Y-136677000D01*
X171415000Y-136835750D01*
X171415000Y-137526310D01*
X171511673Y-137759699D01*
X171690302Y-137938327D01*
X171864777Y-138010597D01*
X171820853Y-138039946D01*
X171498946Y-138521715D01*
X171385907Y-139090000D01*
X155041580Y-139090000D01*
X148385000Y-132433420D01*
X148385000Y-115561574D01*
X148546371Y-115400485D01*
X148734785Y-114946734D01*
X148735214Y-114455421D01*
X148547592Y-114001343D01*
X148200485Y-113653629D01*
X147746734Y-113465215D01*
X147255421Y-113464786D01*
X146801343Y-113652408D01*
X146453629Y-113999515D01*
X146265215Y-114453266D01*
X146264786Y-114944579D01*
X145785000Y-114944579D01*
X145785000Y-113111574D01*
X145946371Y-112950485D01*
X146134785Y-112496734D01*
X146135214Y-112005421D01*
X145947592Y-111551343D01*
X145600485Y-111203629D01*
X145146734Y-111015215D01*
X144655421Y-111014786D01*
X144201343Y-111202408D01*
X143853629Y-111549515D01*
X143665215Y-112003266D01*
X143664786Y-112494579D01*
X143346158Y-112494579D01*
X143335015Y-112483436D01*
X143335214Y-112255421D01*
X143147592Y-111801343D01*
X142800485Y-111453629D01*
X142346734Y-111265215D01*
X141855421Y-111264786D01*
X141401343Y-111452408D01*
X141053629Y-111799515D01*
X140865215Y-112253266D01*
X140864786Y-112744579D01*
X132535000Y-112744579D01*
X132535000Y-106966580D01*
X133816564Y-105685015D01*
X134044579Y-105685214D01*
X134498657Y-105497592D01*
X134846371Y-105150485D01*
X135034785Y-104696734D01*
X135035214Y-104205421D01*
X134847592Y-103751343D01*
X134500485Y-103403629D01*
X134046734Y-103215215D01*
X133555421Y-103214786D01*
X133101343Y-103402408D01*
X132753629Y-103749515D01*
X132565215Y-104203266D01*
X132565014Y-104433407D01*
X131024210Y-105974210D01*
X130832367Y-106261325D01*
X130832367Y-106261326D01*
X130764999Y-106600000D01*
X130765000Y-106600005D01*
X130765000Y-116918607D01*
X130500485Y-116653629D01*
X130046734Y-116465215D01*
X129555421Y-116464786D01*
X129101343Y-116652408D01*
X128753629Y-116999515D01*
X128701523Y-117125000D01*
X127589432Y-117125000D01*
X127479147Y-116959946D01*
X127149974Y-116740000D01*
X127479147Y-116520054D01*
X127801054Y-116038285D01*
X127914093Y-115470000D01*
X127801054Y-114901715D01*
X127479147Y-114419946D01*
X126997378Y-114098039D01*
X126719275Y-114042721D01*
X122953277Y-110276723D01*
X122552614Y-110009009D01*
X122080000Y-109915000D01*
X119719622Y-109915000D01*
X119876441Y-109814090D01*
X120021431Y-109601890D01*
X120072440Y-109350000D01*
X120072440Y-107350000D01*
X120041535Y-107185750D01*
X125065000Y-107185750D01*
X125065000Y-107876310D01*
X125161673Y-108109699D01*
X125340302Y-108288327D01*
X125573691Y-108385000D01*
X126264250Y-108385000D01*
X126423000Y-108226250D01*
X126423000Y-107027000D01*
X126677000Y-107027000D01*
X126677000Y-108226250D01*
X126835750Y-108385000D01*
X127526309Y-108385000D01*
X127759698Y-108288327D01*
X127938327Y-108109699D01*
X128035000Y-107876310D01*
X128035000Y-107185750D01*
X127876250Y-107027000D01*
X126677000Y-107027000D01*
X126423000Y-107027000D01*
X125223750Y-107027000D01*
X125065000Y-107185750D01*
X120041535Y-107185750D01*
X120028162Y-107114683D01*
X119889090Y-106898559D01*
X119676890Y-106753569D01*
X119425000Y-106702560D01*
X116125000Y-106702560D01*
X115889683Y-106746838D01*
X115673559Y-106885910D01*
X115528569Y-107098110D01*
X115477560Y-107350000D01*
X115477560Y-109350000D01*
X115521838Y-109585317D01*
X115660910Y-109801441D01*
X115827109Y-109915000D01*
X114285000Y-109915000D01*
X114285000Y-106035750D01*
X120940000Y-106035750D01*
X120940000Y-106326309D01*
X121036673Y-106559698D01*
X121215301Y-106738327D01*
X121448690Y-106835000D01*
X122539250Y-106835000D01*
X122698000Y-106676250D01*
X122698000Y-105877000D01*
X122952000Y-105877000D01*
X122952000Y-106676250D01*
X123110750Y-106835000D01*
X124201310Y-106835000D01*
X124434699Y-106738327D01*
X124613327Y-106559698D01*
X124710000Y-106326309D01*
X124710000Y-106035750D01*
X124551250Y-105877000D01*
X122952000Y-105877000D01*
X122698000Y-105877000D01*
X121098750Y-105877000D01*
X120940000Y-106035750D01*
X114285000Y-106035750D01*
X114285000Y-99361554D01*
X114496554Y-99150000D01*
X115477560Y-99150000D01*
X115477560Y-101150000D01*
X115521838Y-101385317D01*
X115660910Y-101601441D01*
X115873110Y-101746431D01*
X116125000Y-101797440D01*
X119425000Y-101797440D01*
X119660317Y-101753162D01*
X119876441Y-101614090D01*
X120021431Y-101401890D01*
X120072440Y-101150000D01*
X120072440Y-99150000D01*
X120028162Y-98914683D01*
X119889090Y-98698559D01*
X119676890Y-98553569D01*
X119425000Y-98502560D01*
X116125000Y-98502560D01*
X115889683Y-98546838D01*
X115673559Y-98685910D01*
X115528569Y-98898110D01*
X115477560Y-99150000D01*
X114496554Y-99150000D01*
X116411554Y-97235000D01*
X128600000Y-97235000D01*
X129072614Y-97140991D01*
X129473277Y-96873277D01*
X130415000Y-95931554D01*
X130415000Y-96208446D01*
X126230725Y-100392721D01*
X125952622Y-100448039D01*
X125470853Y-100769946D01*
X125148946Y-101251715D01*
X125035907Y-101820000D01*
X125044858Y-101865000D01*
X124549669Y-101865000D01*
X124539090Y-101848559D01*
X124326890Y-101703569D01*
X124075000Y-101652560D01*
X121575000Y-101652560D01*
X121339683Y-101696838D01*
X121123559Y-101835910D01*
X120978569Y-102048110D01*
X120927560Y-102300000D01*
X120927560Y-103200000D01*
X120971838Y-103435317D01*
X121012481Y-103498478D01*
X120978569Y-103548110D01*
X120927560Y-103800000D01*
X120927560Y-104700000D01*
X120971838Y-104935317D01*
X121012539Y-104998568D01*
X120940000Y-105173691D01*
X120940000Y-105464250D01*
X121098750Y-105623000D01*
X122698000Y-105623000D01*
X122698000Y-105603000D01*
X122952000Y-105603000D01*
X122952000Y-105623000D01*
X124551250Y-105623000D01*
X124710000Y-105464250D01*
X124710000Y-105173691D01*
X124693974Y-105135000D01*
X125287068Y-105135000D01*
X125470853Y-105410054D01*
X125514777Y-105439403D01*
X125340302Y-105511673D01*
X125161673Y-105690301D01*
X125065000Y-105923690D01*
X125065000Y-106614250D01*
X125223750Y-106773000D01*
X126423000Y-106773000D01*
X126423000Y-106753000D01*
X126677000Y-106753000D01*
X126677000Y-106773000D01*
X127876250Y-106773000D01*
X128035000Y-106614250D01*
X128035000Y-105923690D01*
X127938327Y-105690301D01*
X127759698Y-105511673D01*
X127585223Y-105439403D01*
X127629147Y-105410054D01*
X127951054Y-104928285D01*
X128064093Y-104360000D01*
X127951054Y-103791715D01*
X127629147Y-103309946D01*
X127299974Y-103090000D01*
X127629147Y-102870054D01*
X127951054Y-102388285D01*
X128006372Y-102110182D01*
X132523277Y-97593277D01*
X132790991Y-97192614D01*
X132885000Y-96720000D01*
X132885000Y-95072038D01*
X132985317Y-95053162D01*
X133201441Y-94914090D01*
X133344535Y-94704664D01*
X133759679Y-94705272D01*
M02*
