G04 #@! TF.FileFunction,Legend,Top*
%FSLAX46Y46*%
G04 Gerber Fmt 4.6, Leading zero omitted, Abs format (unit mm)*
G04 Created by KiCad (PCBNEW 4.0.6) date 06/28/17 12:26:05*
%MOMM*%
%LPD*%
G01*
G04 APERTURE LIST*
%ADD10C,0.100000*%
%ADD11C,0.250000*%
%ADD12C,0.150000*%
%ADD13C,0.120000*%
G04 APERTURE END LIST*
D10*
D11*
X138902381Y-100480952D02*
X138711905Y-100433333D01*
X138616666Y-100385714D01*
X138521428Y-100290476D01*
X138521428Y-100242857D01*
X138616666Y-100147619D01*
X138711905Y-100100000D01*
X138902381Y-100052381D01*
X139283333Y-100052381D01*
X139473809Y-100100000D01*
X139569047Y-100147619D01*
X139664286Y-100242857D01*
X139664286Y-100290476D01*
X139569047Y-100385714D01*
X139473809Y-100433333D01*
X139283333Y-100480952D01*
X138902381Y-100480952D01*
X138711905Y-100528571D01*
X138616666Y-100576190D01*
X138521428Y-100671429D01*
X138521428Y-100861905D01*
X138616666Y-100957143D01*
X138711905Y-101004762D01*
X138902381Y-101052381D01*
X139283333Y-101052381D01*
X139473809Y-101004762D01*
X139569047Y-100957143D01*
X139664286Y-100861905D01*
X139664286Y-100671429D01*
X139569047Y-100576190D01*
X139473809Y-100528571D01*
X139283333Y-100480952D01*
X141378571Y-100385714D02*
X141378571Y-101052381D01*
X140902381Y-100004762D02*
X140426190Y-100719048D01*
X141664286Y-100719048D01*
X142330952Y-100147619D02*
X142426190Y-100100000D01*
X142616667Y-100052381D01*
X143092857Y-100052381D01*
X143283333Y-100100000D01*
X143378571Y-100147619D01*
X143473810Y-100242857D01*
X143473810Y-100338095D01*
X143378571Y-100480952D01*
X142235714Y-101052381D01*
X143473810Y-101052381D01*
X145378572Y-101052381D02*
X144235714Y-101052381D01*
X144807143Y-101052381D02*
X144807143Y-100052381D01*
X144616667Y-100195238D01*
X144426191Y-100290476D01*
X144235714Y-100338095D01*
X136307143Y-101935714D02*
X136307143Y-102602381D01*
X135950000Y-101554762D02*
X135592857Y-102269048D01*
X136521429Y-102269048D01*
X137092857Y-102221429D02*
X138235714Y-102221429D01*
X139450000Y-102078571D02*
X139664286Y-102126190D01*
X139735714Y-102173810D01*
X139807143Y-102269048D01*
X139807143Y-102411905D01*
X139735714Y-102507143D01*
X139664286Y-102554762D01*
X139521428Y-102602381D01*
X138950000Y-102602381D01*
X138950000Y-101602381D01*
X139450000Y-101602381D01*
X139592857Y-101650000D01*
X139664286Y-101697619D01*
X139735714Y-101792857D01*
X139735714Y-101888095D01*
X139664286Y-101983333D01*
X139592857Y-102030952D01*
X139450000Y-102078571D01*
X138950000Y-102078571D01*
X140450000Y-102602381D02*
X140450000Y-101935714D01*
X140450000Y-101602381D02*
X140378571Y-101650000D01*
X140450000Y-101697619D01*
X140521428Y-101650000D01*
X140450000Y-101602381D01*
X140450000Y-101697619D01*
X140950000Y-101935714D02*
X141521429Y-101935714D01*
X141164286Y-101602381D02*
X141164286Y-102459524D01*
X141235714Y-102554762D01*
X141378572Y-102602381D01*
X141521429Y-102602381D01*
X143092857Y-102554762D02*
X143307143Y-102602381D01*
X143664286Y-102602381D01*
X143807143Y-102554762D01*
X143878572Y-102507143D01*
X143950000Y-102411905D01*
X143950000Y-102316667D01*
X143878572Y-102221429D01*
X143807143Y-102173810D01*
X143664286Y-102126190D01*
X143378572Y-102078571D01*
X143235714Y-102030952D01*
X143164286Y-101983333D01*
X143092857Y-101888095D01*
X143092857Y-101792857D01*
X143164286Y-101697619D01*
X143235714Y-101650000D01*
X143378572Y-101602381D01*
X143735714Y-101602381D01*
X143950000Y-101650000D01*
X144378571Y-101935714D02*
X144950000Y-101935714D01*
X144592857Y-101602381D02*
X144592857Y-102459524D01*
X144664285Y-102554762D01*
X144807143Y-102602381D01*
X144950000Y-102602381D01*
X146092857Y-102602381D02*
X146092857Y-102078571D01*
X146021428Y-101983333D01*
X145878571Y-101935714D01*
X145592857Y-101935714D01*
X145450000Y-101983333D01*
X146092857Y-102554762D02*
X145950000Y-102602381D01*
X145592857Y-102602381D01*
X145450000Y-102554762D01*
X145378571Y-102459524D01*
X145378571Y-102364286D01*
X145450000Y-102269048D01*
X145592857Y-102221429D01*
X145950000Y-102221429D01*
X146092857Y-102173810D01*
X146592857Y-101935714D02*
X147164286Y-101935714D01*
X146807143Y-101602381D02*
X146807143Y-102459524D01*
X146878571Y-102554762D01*
X147021429Y-102602381D01*
X147164286Y-102602381D01*
X148235714Y-102554762D02*
X148092857Y-102602381D01*
X147807143Y-102602381D01*
X147664286Y-102554762D01*
X147592857Y-102459524D01*
X147592857Y-102078571D01*
X147664286Y-101983333D01*
X147807143Y-101935714D01*
X148092857Y-101935714D01*
X148235714Y-101983333D01*
X148307143Y-102078571D01*
X148307143Y-102173810D01*
X147592857Y-102269048D01*
D12*
X162350000Y-91450000D02*
X162350000Y-91450000D01*
X154750000Y-91450000D02*
X154750000Y-91450000D01*
X139550000Y-91450000D02*
X139550000Y-91450000D01*
X147150000Y-91450000D02*
X147150000Y-91450000D01*
X131950000Y-91450000D02*
X131950000Y-91450000D01*
X131950000Y-91450000D02*
X131950000Y-91450000D01*
X147150000Y-91450000D02*
X147150000Y-91450000D01*
X139550000Y-91450000D02*
X139550000Y-91450000D01*
X154750000Y-91450000D02*
X154750000Y-91450000D01*
X162350000Y-91450000D02*
X162350000Y-91450000D01*
X170750000Y-87750000D02*
X170750000Y-94350000D01*
X126750000Y-87750000D02*
X126750000Y-94350000D01*
X129450000Y-87750000D02*
X126750000Y-87750000D01*
X168050000Y-87750000D02*
X170750000Y-87750000D01*
X167750000Y-89750000D02*
G75*
G03X168050000Y-89450000I0J300000D01*
G01*
X167450000Y-89450000D02*
G75*
G03X167750000Y-89750000I300000J0D01*
G01*
X168050000Y-87750000D02*
X168050000Y-89450000D01*
X167450000Y-89450000D02*
X167450000Y-87750000D01*
X163650000Y-89450000D02*
X163650000Y-87750000D01*
X164250000Y-87750000D02*
X164250000Y-89450000D01*
X164250000Y-87750000D02*
X167450000Y-87750000D01*
X163650000Y-89450000D02*
G75*
G03X163950000Y-89750000I300000J0D01*
G01*
X163950000Y-89750000D02*
G75*
G03X164250000Y-89450000I0J300000D01*
G01*
X160150000Y-89750000D02*
G75*
G03X160450000Y-89450000I0J300000D01*
G01*
X159850000Y-89450000D02*
G75*
G03X160150000Y-89750000I300000J0D01*
G01*
X160450000Y-87750000D02*
X163650000Y-87750000D01*
X160450000Y-87750000D02*
X160450000Y-89450000D01*
X159850000Y-89450000D02*
X159850000Y-87750000D01*
X156050000Y-89450000D02*
X156050000Y-87750000D01*
X156650000Y-87750000D02*
X156650000Y-89450000D01*
X156650000Y-87750000D02*
X159850000Y-87750000D01*
X156050000Y-89450000D02*
G75*
G03X156350000Y-89750000I300000J0D01*
G01*
X156350000Y-89750000D02*
G75*
G03X156650000Y-89450000I0J300000D01*
G01*
X152550000Y-89750000D02*
G75*
G03X152850000Y-89450000I0J300000D01*
G01*
X152250000Y-89450000D02*
G75*
G03X152550000Y-89750000I300000J0D01*
G01*
X152850000Y-87750000D02*
X156050000Y-87750000D01*
X152850000Y-87750000D02*
X152850000Y-89450000D01*
X152250000Y-89450000D02*
X152250000Y-87750000D01*
X148450000Y-89450000D02*
X148450000Y-87750000D01*
X149050000Y-87750000D02*
X149050000Y-89450000D01*
X149050000Y-87750000D02*
X152250000Y-87750000D01*
X148450000Y-89450000D02*
G75*
G03X148750000Y-89750000I300000J0D01*
G01*
X148750000Y-89750000D02*
G75*
G03X149050000Y-89450000I0J300000D01*
G01*
X144950000Y-89750000D02*
G75*
G03X145250000Y-89450000I0J300000D01*
G01*
X144650000Y-89450000D02*
G75*
G03X144950000Y-89750000I300000J0D01*
G01*
X145250000Y-87750000D02*
X148450000Y-87750000D01*
X145250000Y-87750000D02*
X145250000Y-89450000D01*
X144650000Y-89450000D02*
X144650000Y-87750000D01*
X140850000Y-89450000D02*
X140850000Y-87750000D01*
X141450000Y-87750000D02*
X141450000Y-89450000D01*
X141450000Y-87750000D02*
X144650000Y-87750000D01*
X140850000Y-89450000D02*
G75*
G03X141150000Y-89750000I300000J0D01*
G01*
X141150000Y-89750000D02*
G75*
G03X141450000Y-89450000I0J300000D01*
G01*
X137350000Y-89750000D02*
G75*
G03X137650000Y-89450000I0J300000D01*
G01*
X137050000Y-89450000D02*
G75*
G03X137350000Y-89750000I300000J0D01*
G01*
X137650000Y-87750000D02*
X140850000Y-87750000D01*
X137650000Y-87750000D02*
X137650000Y-89450000D01*
X137050000Y-89450000D02*
X137050000Y-87750000D01*
X133550000Y-89750000D02*
G75*
G03X133850000Y-89450000I0J300000D01*
G01*
X133250000Y-89450000D02*
G75*
G03X133550000Y-89750000I300000J0D01*
G01*
X133850000Y-87750000D02*
X137050000Y-87750000D01*
X133850000Y-87750000D02*
X133850000Y-89450000D01*
X133250000Y-89450000D02*
X133250000Y-87750000D01*
X129450000Y-89450000D02*
X129450000Y-87750000D01*
X130050000Y-87750000D02*
X130050000Y-89450000D01*
X130050000Y-87750000D02*
X133250000Y-87750000D01*
X129450000Y-89450000D02*
G75*
G03X129750000Y-89750000I300000J0D01*
G01*
X129750000Y-89750000D02*
G75*
G03X130050000Y-89450000I0J300000D01*
G01*
D13*
X137430000Y-148120000D02*
X134830000Y-148120000D01*
X134830000Y-148120000D02*
X134830000Y-150780000D01*
X134830000Y-150780000D02*
X137430000Y-150780000D01*
X137430000Y-150780000D02*
X137430000Y-148120000D01*
X138700000Y-148120000D02*
X140030000Y-148120000D01*
X140030000Y-148120000D02*
X140030000Y-149450000D01*
X171720000Y-114770000D02*
X171720000Y-117370000D01*
X171720000Y-117370000D02*
X174380000Y-117370000D01*
X174380000Y-117370000D02*
X174380000Y-114770000D01*
X174380000Y-114770000D02*
X171720000Y-114770000D01*
X171720000Y-113500000D02*
X171720000Y-112170000D01*
X171720000Y-112170000D02*
X173050000Y-112170000D01*
X160080000Y-96220000D02*
X157480000Y-96220000D01*
X157480000Y-96220000D02*
X157480000Y-98880000D01*
X157480000Y-98880000D02*
X160080000Y-98880000D01*
X160080000Y-98880000D02*
X160080000Y-96220000D01*
X161350000Y-96220000D02*
X162680000Y-96220000D01*
X162680000Y-96220000D02*
X162680000Y-97550000D01*
D12*
X141249560Y-156500580D02*
X141249560Y-152299420D01*
X141550220Y-156500580D02*
X141550220Y-152299420D01*
X132949780Y-156500580D02*
X132949780Y-152299420D01*
X135253560Y-152294340D02*
X132967560Y-152294340D01*
X132967560Y-156505660D02*
X135253560Y-156505660D01*
X139248980Y-156505660D02*
X141534980Y-156505660D01*
X141532440Y-152294340D02*
X139246440Y-152294340D01*
D13*
X160130000Y-111320000D02*
X157530000Y-111320000D01*
X157530000Y-111320000D02*
X157530000Y-113980000D01*
X157530000Y-113980000D02*
X160130000Y-113980000D01*
X160130000Y-113980000D02*
X160130000Y-111320000D01*
X161400000Y-111320000D02*
X162730000Y-111320000D01*
X162730000Y-111320000D02*
X162730000Y-112650000D01*
D12*
X179125580Y-111125440D02*
X174924420Y-111125440D01*
X179125580Y-110824780D02*
X174924420Y-110824780D01*
X179125580Y-119425220D02*
X174924420Y-119425220D01*
X174919340Y-117121440D02*
X174919340Y-119407440D01*
X179130660Y-119407440D02*
X179130660Y-117121440D01*
X179130660Y-113126020D02*
X179130660Y-110840020D01*
X174919340Y-110842560D02*
X174919340Y-113128560D01*
X164099560Y-104100580D02*
X164099560Y-99899420D01*
X164400220Y-104100580D02*
X164400220Y-99899420D01*
X155799780Y-104100580D02*
X155799780Y-99899420D01*
X158103560Y-99894340D02*
X155817560Y-99894340D01*
X155817560Y-104105660D02*
X158103560Y-104105660D01*
X162098980Y-104105660D02*
X164384980Y-104105660D01*
X164382440Y-99894340D02*
X162096440Y-99894340D01*
X164124560Y-118875580D02*
X164124560Y-114674420D01*
X164425220Y-118875580D02*
X164425220Y-114674420D01*
X155824780Y-118875580D02*
X155824780Y-114674420D01*
X158128560Y-114669340D02*
X155842560Y-114669340D01*
X155842560Y-118880660D02*
X158128560Y-118880660D01*
X162123980Y-118880660D02*
X164409980Y-118880660D01*
X164407440Y-114669340D02*
X162121440Y-114669340D01*
D13*
X176850000Y-113475000D02*
X176550000Y-112875000D01*
X176550000Y-112875000D02*
X177150000Y-112875000D01*
X177150000Y-112875000D02*
X176850000Y-113475000D01*
X177650000Y-116875000D02*
X177650000Y-119125000D01*
X177650000Y-119125000D02*
X180250000Y-119125000D01*
X180250000Y-119125000D02*
X180250000Y-118325000D01*
X180250000Y-118325000D02*
X178450000Y-118325000D01*
X178450000Y-118325000D02*
X178450000Y-116875000D01*
X178450000Y-116875000D02*
X177650000Y-116875000D01*
X177650000Y-113475000D02*
X177650000Y-111225000D01*
X177650000Y-111225000D02*
X180250000Y-111225000D01*
X180250000Y-111225000D02*
X180250000Y-112025000D01*
X180250000Y-112025000D02*
X178450000Y-112025000D01*
X178450000Y-112025000D02*
X178450000Y-113475000D01*
X178450000Y-113475000D02*
X177650000Y-113475000D01*
X182350000Y-117025000D02*
X183850000Y-117025000D01*
X183850000Y-117025000D02*
X183850000Y-113325000D01*
X183850000Y-113325000D02*
X182350000Y-113325000D01*
X182350000Y-113325000D02*
X182350000Y-117025000D01*
X182750000Y-115025000D02*
X183450000Y-115025000D01*
X183450000Y-115025000D02*
X183450000Y-115325000D01*
X183450000Y-115325000D02*
X182750000Y-115325000D01*
X182750000Y-115325000D02*
X182750000Y-115025000D01*
X182350000Y-115425000D02*
X183850000Y-115425000D01*
X182350000Y-114925000D02*
X183850000Y-114925000D01*
X138950000Y-155425000D02*
X139550000Y-155125000D01*
X139550000Y-155125000D02*
X139550000Y-155725000D01*
X139550000Y-155725000D02*
X138950000Y-155425000D01*
X135550000Y-156225000D02*
X133300000Y-156225000D01*
X133300000Y-156225000D02*
X133300000Y-158825000D01*
X133300000Y-158825000D02*
X134100000Y-158825000D01*
X134100000Y-158825000D02*
X134100000Y-157025000D01*
X134100000Y-157025000D02*
X135550000Y-157025000D01*
X135550000Y-157025000D02*
X135550000Y-156225000D01*
X138950000Y-156225000D02*
X141200000Y-156225000D01*
X141200000Y-156225000D02*
X141200000Y-158825000D01*
X141200000Y-158825000D02*
X140400000Y-158825000D01*
X140400000Y-158825000D02*
X140400000Y-157025000D01*
X140400000Y-157025000D02*
X138950000Y-157025000D01*
X138950000Y-157025000D02*
X138950000Y-156225000D01*
X135400000Y-160925000D02*
X135400000Y-162425000D01*
X135400000Y-162425000D02*
X139100000Y-162425000D01*
X139100000Y-162425000D02*
X139100000Y-160925000D01*
X139100000Y-160925000D02*
X135400000Y-160925000D01*
X137400000Y-161325000D02*
X137400000Y-162025000D01*
X137400000Y-162025000D02*
X137100000Y-162025000D01*
X137100000Y-162025000D02*
X137100000Y-161325000D01*
X137100000Y-161325000D02*
X137400000Y-161325000D01*
X137000000Y-160925000D02*
X137000000Y-162425000D01*
X137500000Y-160925000D02*
X137500000Y-162425000D01*
X161775000Y-101750000D02*
X162375000Y-101450000D01*
X162375000Y-101450000D02*
X162375000Y-102050000D01*
X162375000Y-102050000D02*
X161775000Y-101750000D01*
X158375000Y-102550000D02*
X156125000Y-102550000D01*
X156125000Y-102550000D02*
X156125000Y-105150000D01*
X156125000Y-105150000D02*
X156925000Y-105150000D01*
X156925000Y-105150000D02*
X156925000Y-103350000D01*
X156925000Y-103350000D02*
X158375000Y-103350000D01*
X158375000Y-103350000D02*
X158375000Y-102550000D01*
X161775000Y-102550000D02*
X164025000Y-102550000D01*
X164025000Y-102550000D02*
X164025000Y-105150000D01*
X164025000Y-105150000D02*
X163225000Y-105150000D01*
X163225000Y-105150000D02*
X163225000Y-103350000D01*
X163225000Y-103350000D02*
X161775000Y-103350000D01*
X161775000Y-103350000D02*
X161775000Y-102550000D01*
X158225000Y-107250000D02*
X158225000Y-108750000D01*
X158225000Y-108750000D02*
X161925000Y-108750000D01*
X161925000Y-108750000D02*
X161925000Y-107250000D01*
X161925000Y-107250000D02*
X158225000Y-107250000D01*
X160225000Y-107650000D02*
X160225000Y-108350000D01*
X160225000Y-108350000D02*
X159925000Y-108350000D01*
X159925000Y-108350000D02*
X159925000Y-107650000D01*
X159925000Y-107650000D02*
X160225000Y-107650000D01*
X159825000Y-107250000D02*
X159825000Y-108750000D01*
X160325000Y-107250000D02*
X160325000Y-108750000D01*
X161825000Y-116550000D02*
X162425000Y-116250000D01*
X162425000Y-116250000D02*
X162425000Y-116850000D01*
X162425000Y-116850000D02*
X161825000Y-116550000D01*
X158425000Y-117350000D02*
X156175000Y-117350000D01*
X156175000Y-117350000D02*
X156175000Y-119950000D01*
X156175000Y-119950000D02*
X156975000Y-119950000D01*
X156975000Y-119950000D02*
X156975000Y-118150000D01*
X156975000Y-118150000D02*
X158425000Y-118150000D01*
X158425000Y-118150000D02*
X158425000Y-117350000D01*
X161825000Y-117350000D02*
X164075000Y-117350000D01*
X164075000Y-117350000D02*
X164075000Y-119950000D01*
X164075000Y-119950000D02*
X163275000Y-119950000D01*
X163275000Y-119950000D02*
X163275000Y-118150000D01*
X163275000Y-118150000D02*
X161825000Y-118150000D01*
X161825000Y-118150000D02*
X161825000Y-117350000D01*
X158275000Y-122050000D02*
X158275000Y-123550000D01*
X158275000Y-123550000D02*
X161975000Y-123550000D01*
X161975000Y-123550000D02*
X161975000Y-122050000D01*
X161975000Y-122050000D02*
X158275000Y-122050000D01*
X160275000Y-122450000D02*
X160275000Y-123150000D01*
X160275000Y-123150000D02*
X159975000Y-123150000D01*
X159975000Y-123150000D02*
X159975000Y-122450000D01*
X159975000Y-122450000D02*
X160275000Y-122450000D01*
X159875000Y-122050000D02*
X159875000Y-123550000D01*
X160375000Y-122050000D02*
X160375000Y-123550000D01*
X171520000Y-128320000D02*
X171520000Y-130920000D01*
X171520000Y-130920000D02*
X174180000Y-130920000D01*
X174180000Y-130920000D02*
X174180000Y-128320000D01*
X174180000Y-128320000D02*
X171520000Y-128320000D01*
X171520000Y-127050000D02*
X171520000Y-125720000D01*
X171520000Y-125720000D02*
X172850000Y-125720000D01*
X171570000Y-137820000D02*
X171570000Y-140420000D01*
X171570000Y-140420000D02*
X174230000Y-140420000D01*
X174230000Y-140420000D02*
X174230000Y-137820000D01*
X174230000Y-137820000D02*
X171570000Y-137820000D01*
X171570000Y-136550000D02*
X171570000Y-135220000D01*
X171570000Y-135220000D02*
X172900000Y-135220000D01*
X171020000Y-147620000D02*
X171020000Y-150220000D01*
X171020000Y-150220000D02*
X173680000Y-150220000D01*
X173680000Y-150220000D02*
X173680000Y-147620000D01*
X173680000Y-147620000D02*
X171020000Y-147620000D01*
X171020000Y-146350000D02*
X171020000Y-145020000D01*
X171020000Y-145020000D02*
X172350000Y-145020000D01*
X171520000Y-157320000D02*
X171520000Y-159920000D01*
X171520000Y-159920000D02*
X174180000Y-159920000D01*
X174180000Y-159920000D02*
X174180000Y-157320000D01*
X174180000Y-157320000D02*
X171520000Y-157320000D01*
X171520000Y-156050000D02*
X171520000Y-154720000D01*
X171520000Y-154720000D02*
X172850000Y-154720000D01*
D12*
X179950580Y-123700440D02*
X175749420Y-123700440D01*
X179950580Y-123399780D02*
X175749420Y-123399780D01*
X179950580Y-132000220D02*
X175749420Y-132000220D01*
X175744340Y-129696440D02*
X175744340Y-131982440D01*
X179955660Y-131982440D02*
X179955660Y-129696440D01*
X179955660Y-125701020D02*
X179955660Y-123415020D01*
X175744340Y-123417560D02*
X175744340Y-125703560D01*
X180050580Y-133600440D02*
X175849420Y-133600440D01*
X180050580Y-133299780D02*
X175849420Y-133299780D01*
X180050580Y-141900220D02*
X175849420Y-141900220D01*
X175844340Y-139596440D02*
X175844340Y-141882440D01*
X180055660Y-141882440D02*
X180055660Y-139596440D01*
X180055660Y-135601020D02*
X180055660Y-133315020D01*
X175844340Y-133317560D02*
X175844340Y-135603560D01*
X179900580Y-143350440D02*
X175699420Y-143350440D01*
X179900580Y-143049780D02*
X175699420Y-143049780D01*
X179900580Y-151650220D02*
X175699420Y-151650220D01*
X175694340Y-149346440D02*
X175694340Y-151632440D01*
X179905660Y-151632440D02*
X179905660Y-149346440D01*
X179905660Y-145351020D02*
X179905660Y-143065020D01*
X175694340Y-143067560D02*
X175694340Y-145353560D01*
X179900580Y-153650440D02*
X175699420Y-153650440D01*
X179900580Y-153349780D02*
X175699420Y-153349780D01*
X179900580Y-161950220D02*
X175699420Y-161950220D01*
X175694340Y-159646440D02*
X175694340Y-161932440D01*
X179905660Y-161932440D02*
X179905660Y-159646440D01*
X179905660Y-155651020D02*
X179905660Y-153365020D01*
X175694340Y-153367560D02*
X175694340Y-155653560D01*
D13*
X177375000Y-126050000D02*
X177075000Y-125450000D01*
X177075000Y-125450000D02*
X177675000Y-125450000D01*
X177675000Y-125450000D02*
X177375000Y-126050000D01*
X178175000Y-129450000D02*
X178175000Y-131700000D01*
X178175000Y-131700000D02*
X180775000Y-131700000D01*
X180775000Y-131700000D02*
X180775000Y-130900000D01*
X180775000Y-130900000D02*
X178975000Y-130900000D01*
X178975000Y-130900000D02*
X178975000Y-129450000D01*
X178975000Y-129450000D02*
X178175000Y-129450000D01*
X178175000Y-126050000D02*
X178175000Y-123800000D01*
X178175000Y-123800000D02*
X180775000Y-123800000D01*
X180775000Y-123800000D02*
X180775000Y-124600000D01*
X180775000Y-124600000D02*
X178975000Y-124600000D01*
X178975000Y-124600000D02*
X178975000Y-126050000D01*
X178975000Y-126050000D02*
X178175000Y-126050000D01*
X182875000Y-129600000D02*
X184375000Y-129600000D01*
X184375000Y-129600000D02*
X184375000Y-125900000D01*
X184375000Y-125900000D02*
X182875000Y-125900000D01*
X182875000Y-125900000D02*
X182875000Y-129600000D01*
X183275000Y-127600000D02*
X183975000Y-127600000D01*
X183975000Y-127600000D02*
X183975000Y-127900000D01*
X183975000Y-127900000D02*
X183275000Y-127900000D01*
X183275000Y-127900000D02*
X183275000Y-127600000D01*
X182875000Y-128000000D02*
X184375000Y-128000000D01*
X182875000Y-127500000D02*
X184375000Y-127500000D01*
X177475000Y-135950000D02*
X177175000Y-135350000D01*
X177175000Y-135350000D02*
X177775000Y-135350000D01*
X177775000Y-135350000D02*
X177475000Y-135950000D01*
X178275000Y-139350000D02*
X178275000Y-141600000D01*
X178275000Y-141600000D02*
X180875000Y-141600000D01*
X180875000Y-141600000D02*
X180875000Y-140800000D01*
X180875000Y-140800000D02*
X179075000Y-140800000D01*
X179075000Y-140800000D02*
X179075000Y-139350000D01*
X179075000Y-139350000D02*
X178275000Y-139350000D01*
X178275000Y-135950000D02*
X178275000Y-133700000D01*
X178275000Y-133700000D02*
X180875000Y-133700000D01*
X180875000Y-133700000D02*
X180875000Y-134500000D01*
X180875000Y-134500000D02*
X179075000Y-134500000D01*
X179075000Y-134500000D02*
X179075000Y-135950000D01*
X179075000Y-135950000D02*
X178275000Y-135950000D01*
X182975000Y-139500000D02*
X184475000Y-139500000D01*
X184475000Y-139500000D02*
X184475000Y-135800000D01*
X184475000Y-135800000D02*
X182975000Y-135800000D01*
X182975000Y-135800000D02*
X182975000Y-139500000D01*
X183375000Y-137500000D02*
X184075000Y-137500000D01*
X184075000Y-137500000D02*
X184075000Y-137800000D01*
X184075000Y-137800000D02*
X183375000Y-137800000D01*
X183375000Y-137800000D02*
X183375000Y-137500000D01*
X182975000Y-137900000D02*
X184475000Y-137900000D01*
X182975000Y-137400000D02*
X184475000Y-137400000D01*
X177475000Y-145700000D02*
X177175000Y-145100000D01*
X177175000Y-145100000D02*
X177775000Y-145100000D01*
X177775000Y-145100000D02*
X177475000Y-145700000D01*
X178275000Y-149100000D02*
X178275000Y-151350000D01*
X178275000Y-151350000D02*
X180875000Y-151350000D01*
X180875000Y-151350000D02*
X180875000Y-150550000D01*
X180875000Y-150550000D02*
X179075000Y-150550000D01*
X179075000Y-150550000D02*
X179075000Y-149100000D01*
X179075000Y-149100000D02*
X178275000Y-149100000D01*
X178275000Y-145700000D02*
X178275000Y-143450000D01*
X178275000Y-143450000D02*
X180875000Y-143450000D01*
X180875000Y-143450000D02*
X180875000Y-144250000D01*
X180875000Y-144250000D02*
X179075000Y-144250000D01*
X179075000Y-144250000D02*
X179075000Y-145700000D01*
X179075000Y-145700000D02*
X178275000Y-145700000D01*
X182975000Y-149250000D02*
X184475000Y-149250000D01*
X184475000Y-149250000D02*
X184475000Y-145550000D01*
X184475000Y-145550000D02*
X182975000Y-145550000D01*
X182975000Y-145550000D02*
X182975000Y-149250000D01*
X183375000Y-147250000D02*
X184075000Y-147250000D01*
X184075000Y-147250000D02*
X184075000Y-147550000D01*
X184075000Y-147550000D02*
X183375000Y-147550000D01*
X183375000Y-147550000D02*
X183375000Y-147250000D01*
X182975000Y-147650000D02*
X184475000Y-147650000D01*
X182975000Y-147150000D02*
X184475000Y-147150000D01*
X177575000Y-155900000D02*
X177275000Y-155300000D01*
X177275000Y-155300000D02*
X177875000Y-155300000D01*
X177875000Y-155300000D02*
X177575000Y-155900000D01*
X178375000Y-159300000D02*
X178375000Y-161550000D01*
X178375000Y-161550000D02*
X180975000Y-161550000D01*
X180975000Y-161550000D02*
X180975000Y-160750000D01*
X180975000Y-160750000D02*
X179175000Y-160750000D01*
X179175000Y-160750000D02*
X179175000Y-159300000D01*
X179175000Y-159300000D02*
X178375000Y-159300000D01*
X178375000Y-155900000D02*
X178375000Y-153650000D01*
X178375000Y-153650000D02*
X180975000Y-153650000D01*
X180975000Y-153650000D02*
X180975000Y-154450000D01*
X180975000Y-154450000D02*
X179175000Y-154450000D01*
X179175000Y-154450000D02*
X179175000Y-155900000D01*
X179175000Y-155900000D02*
X178375000Y-155900000D01*
X183075000Y-159450000D02*
X184575000Y-159450000D01*
X184575000Y-159450000D02*
X184575000Y-155750000D01*
X184575000Y-155750000D02*
X183075000Y-155750000D01*
X183075000Y-155750000D02*
X183075000Y-159450000D01*
X183475000Y-157450000D02*
X184175000Y-157450000D01*
X184175000Y-157450000D02*
X184175000Y-157750000D01*
X184175000Y-157750000D02*
X183475000Y-157750000D01*
X183475000Y-157750000D02*
X183475000Y-157450000D01*
X183075000Y-157850000D02*
X184575000Y-157850000D01*
X183075000Y-157350000D02*
X184575000Y-157350000D01*
X148705000Y-148745000D02*
X146105000Y-148745000D01*
X146105000Y-148745000D02*
X146105000Y-151405000D01*
X146105000Y-151405000D02*
X148705000Y-151405000D01*
X148705000Y-151405000D02*
X148705000Y-148745000D01*
X149975000Y-148745000D02*
X151305000Y-148745000D01*
X151305000Y-148745000D02*
X151305000Y-150075000D01*
D12*
X154174560Y-156925580D02*
X154174560Y-152724420D01*
X154475220Y-156925580D02*
X154475220Y-152724420D01*
X145874780Y-156925580D02*
X145874780Y-152724420D01*
X148178560Y-152719340D02*
X145892560Y-152719340D01*
X145892560Y-156930660D02*
X148178560Y-156930660D01*
X152173980Y-156930660D02*
X154459980Y-156930660D01*
X154457440Y-152719340D02*
X152171440Y-152719340D01*
D13*
X151775000Y-154600000D02*
X152375000Y-154300000D01*
X152375000Y-154300000D02*
X152375000Y-154900000D01*
X152375000Y-154900000D02*
X151775000Y-154600000D01*
X148375000Y-155400000D02*
X146125000Y-155400000D01*
X146125000Y-155400000D02*
X146125000Y-158000000D01*
X146125000Y-158000000D02*
X146925000Y-158000000D01*
X146925000Y-158000000D02*
X146925000Y-156200000D01*
X146925000Y-156200000D02*
X148375000Y-156200000D01*
X148375000Y-156200000D02*
X148375000Y-155400000D01*
X151775000Y-155400000D02*
X154025000Y-155400000D01*
X154025000Y-155400000D02*
X154025000Y-158000000D01*
X154025000Y-158000000D02*
X153225000Y-158000000D01*
X153225000Y-158000000D02*
X153225000Y-156200000D01*
X153225000Y-156200000D02*
X151775000Y-156200000D01*
X151775000Y-156200000D02*
X151775000Y-155400000D01*
X148225000Y-160100000D02*
X148225000Y-161600000D01*
X148225000Y-161600000D02*
X151925000Y-161600000D01*
X151925000Y-161600000D02*
X151925000Y-160100000D01*
X151925000Y-160100000D02*
X148225000Y-160100000D01*
X150225000Y-160500000D02*
X150225000Y-161200000D01*
X150225000Y-161200000D02*
X149925000Y-161200000D01*
X149925000Y-161200000D02*
X149925000Y-160500000D01*
X149925000Y-160500000D02*
X150225000Y-160500000D01*
X149825000Y-160100000D02*
X149825000Y-161600000D01*
X150325000Y-160100000D02*
X150325000Y-161600000D01*
X127930000Y-147130000D02*
X127930000Y-141990000D01*
X127930000Y-141990000D02*
X125270000Y-141990000D01*
X125270000Y-141990000D02*
X125270000Y-147130000D01*
X125270000Y-147130000D02*
X127930000Y-147130000D01*
X127930000Y-148400000D02*
X127930000Y-149730000D01*
X127930000Y-149730000D02*
X126600000Y-149730000D01*
X127880000Y-132980000D02*
X127880000Y-127840000D01*
X127880000Y-127840000D02*
X125220000Y-127840000D01*
X125220000Y-127840000D02*
X125220000Y-132980000D01*
X125220000Y-132980000D02*
X127880000Y-132980000D01*
X127880000Y-134250000D02*
X127880000Y-135580000D01*
X127880000Y-135580000D02*
X126550000Y-135580000D01*
X127730000Y-119280000D02*
X127730000Y-114140000D01*
X127730000Y-114140000D02*
X125070000Y-114140000D01*
X125070000Y-114140000D02*
X125070000Y-119280000D01*
X125070000Y-119280000D02*
X127730000Y-119280000D01*
X127730000Y-120550000D02*
X127730000Y-121880000D01*
X127730000Y-121880000D02*
X126400000Y-121880000D01*
X127880000Y-105630000D02*
X127880000Y-100490000D01*
X127880000Y-100490000D02*
X125220000Y-100490000D01*
X125220000Y-100490000D02*
X125220000Y-105630000D01*
X125220000Y-105630000D02*
X127880000Y-105630000D01*
X127880000Y-106900000D02*
X127880000Y-108230000D01*
X127880000Y-108230000D02*
X126550000Y-108230000D01*
X123425000Y-148300000D02*
X123725000Y-148900000D01*
X123725000Y-148900000D02*
X123125000Y-148900000D01*
X123125000Y-148900000D02*
X123425000Y-148300000D01*
X122625000Y-143400000D02*
X122625000Y-141150000D01*
X122625000Y-141150000D02*
X120025000Y-141150000D01*
X120025000Y-141150000D02*
X120025000Y-141950000D01*
X120025000Y-141950000D02*
X121825000Y-141950000D01*
X121825000Y-141950000D02*
X121825000Y-143400000D01*
X121825000Y-143400000D02*
X122625000Y-143400000D01*
X122625000Y-148300000D02*
X122625000Y-150550000D01*
X122625000Y-150550000D02*
X120025000Y-150550000D01*
X120025000Y-150550000D02*
X120025000Y-149750000D01*
X120025000Y-149750000D02*
X121825000Y-149750000D01*
X121825000Y-149750000D02*
X121825000Y-148300000D01*
X121825000Y-148300000D02*
X122625000Y-148300000D01*
X117925000Y-143250000D02*
X116425000Y-143250000D01*
X116425000Y-143250000D02*
X116425000Y-148450000D01*
X116425000Y-148450000D02*
X117925000Y-148450000D01*
X117925000Y-148450000D02*
X117925000Y-143250000D01*
X117525000Y-145250000D02*
X116825000Y-145250000D01*
X116825000Y-145250000D02*
X116825000Y-146450000D01*
X116825000Y-146450000D02*
X117525000Y-146450000D01*
X117525000Y-146450000D02*
X117525000Y-145250000D01*
X117925000Y-144850000D02*
X116425000Y-144850000D01*
X117925000Y-146850000D02*
X116425000Y-146850000D01*
X123475000Y-134250000D02*
X123775000Y-134850000D01*
X123775000Y-134850000D02*
X123175000Y-134850000D01*
X123175000Y-134850000D02*
X123475000Y-134250000D01*
X122675000Y-129350000D02*
X122675000Y-127100000D01*
X122675000Y-127100000D02*
X120075000Y-127100000D01*
X120075000Y-127100000D02*
X120075000Y-127900000D01*
X120075000Y-127900000D02*
X121875000Y-127900000D01*
X121875000Y-127900000D02*
X121875000Y-129350000D01*
X121875000Y-129350000D02*
X122675000Y-129350000D01*
X122675000Y-134250000D02*
X122675000Y-136500000D01*
X122675000Y-136500000D02*
X120075000Y-136500000D01*
X120075000Y-136500000D02*
X120075000Y-135700000D01*
X120075000Y-135700000D02*
X121875000Y-135700000D01*
X121875000Y-135700000D02*
X121875000Y-134250000D01*
X121875000Y-134250000D02*
X122675000Y-134250000D01*
X117975000Y-129200000D02*
X116475000Y-129200000D01*
X116475000Y-129200000D02*
X116475000Y-134400000D01*
X116475000Y-134400000D02*
X117975000Y-134400000D01*
X117975000Y-134400000D02*
X117975000Y-129200000D01*
X117575000Y-131200000D02*
X116875000Y-131200000D01*
X116875000Y-131200000D02*
X116875000Y-132400000D01*
X116875000Y-132400000D02*
X117575000Y-132400000D01*
X117575000Y-132400000D02*
X117575000Y-131200000D01*
X117975000Y-130800000D02*
X116475000Y-130800000D01*
X117975000Y-132800000D02*
X116475000Y-132800000D01*
X123325000Y-120400000D02*
X123625000Y-121000000D01*
X123625000Y-121000000D02*
X123025000Y-121000000D01*
X123025000Y-121000000D02*
X123325000Y-120400000D01*
X122525000Y-115500000D02*
X122525000Y-113250000D01*
X122525000Y-113250000D02*
X119925000Y-113250000D01*
X119925000Y-113250000D02*
X119925000Y-114050000D01*
X119925000Y-114050000D02*
X121725000Y-114050000D01*
X121725000Y-114050000D02*
X121725000Y-115500000D01*
X121725000Y-115500000D02*
X122525000Y-115500000D01*
X122525000Y-120400000D02*
X122525000Y-122650000D01*
X122525000Y-122650000D02*
X119925000Y-122650000D01*
X119925000Y-122650000D02*
X119925000Y-121850000D01*
X119925000Y-121850000D02*
X121725000Y-121850000D01*
X121725000Y-121850000D02*
X121725000Y-120400000D01*
X121725000Y-120400000D02*
X122525000Y-120400000D01*
X117825000Y-115350000D02*
X116325000Y-115350000D01*
X116325000Y-115350000D02*
X116325000Y-120550000D01*
X116325000Y-120550000D02*
X117825000Y-120550000D01*
X117825000Y-120550000D02*
X117825000Y-115350000D01*
X117425000Y-117350000D02*
X116725000Y-117350000D01*
X116725000Y-117350000D02*
X116725000Y-118550000D01*
X116725000Y-118550000D02*
X117425000Y-118550000D01*
X117425000Y-118550000D02*
X117425000Y-117350000D01*
X117825000Y-116950000D02*
X116325000Y-116950000D01*
X117825000Y-118950000D02*
X116325000Y-118950000D01*
X123325000Y-106700000D02*
X123625000Y-107300000D01*
X123625000Y-107300000D02*
X123025000Y-107300000D01*
X123025000Y-107300000D02*
X123325000Y-106700000D01*
X122525000Y-101800000D02*
X122525000Y-99550000D01*
X122525000Y-99550000D02*
X119925000Y-99550000D01*
X119925000Y-99550000D02*
X119925000Y-100350000D01*
X119925000Y-100350000D02*
X121725000Y-100350000D01*
X121725000Y-100350000D02*
X121725000Y-101800000D01*
X121725000Y-101800000D02*
X122525000Y-101800000D01*
X122525000Y-106700000D02*
X122525000Y-108950000D01*
X122525000Y-108950000D02*
X119925000Y-108950000D01*
X119925000Y-108950000D02*
X119925000Y-108150000D01*
X119925000Y-108150000D02*
X121725000Y-108150000D01*
X121725000Y-108150000D02*
X121725000Y-106700000D01*
X121725000Y-106700000D02*
X122525000Y-106700000D01*
X117825000Y-101650000D02*
X116325000Y-101650000D01*
X116325000Y-101650000D02*
X116325000Y-106850000D01*
X116325000Y-106850000D02*
X117825000Y-106850000D01*
X117825000Y-106850000D02*
X117825000Y-101650000D01*
X117425000Y-103650000D02*
X116725000Y-103650000D01*
X116725000Y-103650000D02*
X116725000Y-104850000D01*
X116725000Y-104850000D02*
X117425000Y-104850000D01*
X117425000Y-104850000D02*
X117425000Y-103650000D01*
X117825000Y-103250000D02*
X116325000Y-103250000D01*
X117825000Y-105250000D02*
X116325000Y-105250000D01*
X146290000Y-99320000D02*
X146290000Y-96780000D01*
X144510000Y-96780000D02*
X144510000Y-99320000D01*
X144510000Y-96780000D02*
X146290000Y-96780000D01*
X146290000Y-99320000D02*
X144510000Y-99320000D01*
X144090000Y-99320000D02*
X144090000Y-96780000D01*
X142310000Y-96780000D02*
X142310000Y-99320000D01*
X142310000Y-96780000D02*
X144090000Y-96780000D01*
X144090000Y-99320000D02*
X142310000Y-99320000D01*
X141890000Y-99320000D02*
X141890000Y-96780000D01*
X140110000Y-96780000D02*
X140110000Y-99320000D01*
X140110000Y-96780000D02*
X141890000Y-96780000D01*
X141890000Y-99320000D02*
X140110000Y-99320000D01*
X139690000Y-99320000D02*
X139690000Y-96780000D01*
X137910000Y-96780000D02*
X137910000Y-99320000D01*
X137910000Y-96780000D02*
X139690000Y-96780000D01*
X139690000Y-99320000D02*
X137910000Y-99320000D01*
X171095000Y-104945000D02*
X171095000Y-107545000D01*
X171095000Y-107545000D02*
X173755000Y-107545000D01*
X173755000Y-107545000D02*
X173755000Y-104945000D01*
X173755000Y-104945000D02*
X171095000Y-104945000D01*
X171095000Y-103675000D02*
X171095000Y-102345000D01*
X171095000Y-102345000D02*
X172425000Y-102345000D01*
D12*
X178725580Y-100975440D02*
X174524420Y-100975440D01*
X178725580Y-100674780D02*
X174524420Y-100674780D01*
X178725580Y-109275220D02*
X174524420Y-109275220D01*
X174519340Y-106971440D02*
X174519340Y-109257440D01*
X178730660Y-109257440D02*
X178730660Y-106971440D01*
X178730660Y-102976020D02*
X178730660Y-100690020D01*
X174519340Y-100692560D02*
X174519340Y-102978560D01*
D13*
X176300000Y-103275000D02*
X176000000Y-102675000D01*
X176000000Y-102675000D02*
X176600000Y-102675000D01*
X176600000Y-102675000D02*
X176300000Y-103275000D01*
X177100000Y-106675000D02*
X177100000Y-108925000D01*
X177100000Y-108925000D02*
X179700000Y-108925000D01*
X179700000Y-108925000D02*
X179700000Y-108125000D01*
X179700000Y-108125000D02*
X177900000Y-108125000D01*
X177900000Y-108125000D02*
X177900000Y-106675000D01*
X177900000Y-106675000D02*
X177100000Y-106675000D01*
X177100000Y-103275000D02*
X177100000Y-101025000D01*
X177100000Y-101025000D02*
X179700000Y-101025000D01*
X179700000Y-101025000D02*
X179700000Y-101825000D01*
X179700000Y-101825000D02*
X177900000Y-101825000D01*
X177900000Y-101825000D02*
X177900000Y-103275000D01*
X177900000Y-103275000D02*
X177100000Y-103275000D01*
X181800000Y-106825000D02*
X183300000Y-106825000D01*
X183300000Y-106825000D02*
X183300000Y-103125000D01*
X183300000Y-103125000D02*
X181800000Y-103125000D01*
X181800000Y-103125000D02*
X181800000Y-106825000D01*
X182200000Y-104825000D02*
X182900000Y-104825000D01*
X182900000Y-104825000D02*
X182900000Y-105125000D01*
X182900000Y-105125000D02*
X182200000Y-105125000D01*
X182200000Y-105125000D02*
X182200000Y-104825000D01*
X181800000Y-105225000D02*
X183300000Y-105225000D01*
X181800000Y-104725000D02*
X183300000Y-104725000D01*
D12*
X127502381Y-91411905D02*
X128311905Y-91411905D01*
X128407143Y-91364286D01*
X128454762Y-91316667D01*
X128502381Y-91221429D01*
X128502381Y-91030952D01*
X128454762Y-90935714D01*
X128407143Y-90888095D01*
X128311905Y-90840476D01*
X127502381Y-90840476D01*
X128502381Y-89840476D02*
X128502381Y-90411905D01*
X128502381Y-90126191D02*
X127502381Y-90126191D01*
X127645238Y-90221429D01*
X127740476Y-90316667D01*
X127788095Y-90411905D01*
X140482381Y-149783333D02*
X141196667Y-149783333D01*
X141339524Y-149830953D01*
X141434762Y-149926191D01*
X141482381Y-150069048D01*
X141482381Y-150164286D01*
X141482381Y-148783333D02*
X141482381Y-149354762D01*
X141482381Y-149069048D02*
X140482381Y-149069048D01*
X140625238Y-149164286D01*
X140720476Y-149259524D01*
X140768095Y-149354762D01*
X172716667Y-110622381D02*
X172716667Y-111336667D01*
X172669047Y-111479524D01*
X172573809Y-111574762D01*
X172430952Y-111622381D01*
X172335714Y-111622381D01*
X173145238Y-110717619D02*
X173192857Y-110670000D01*
X173288095Y-110622381D01*
X173526191Y-110622381D01*
X173621429Y-110670000D01*
X173669048Y-110717619D01*
X173716667Y-110812857D01*
X173716667Y-110908095D01*
X173669048Y-111050952D01*
X173097619Y-111622381D01*
X173716667Y-111622381D01*
X163132381Y-97883333D02*
X163846667Y-97883333D01*
X163989524Y-97930953D01*
X164084762Y-98026191D01*
X164132381Y-98169048D01*
X164132381Y-98264286D01*
X163132381Y-97502381D02*
X163132381Y-96883333D01*
X163513333Y-97216667D01*
X163513333Y-97073809D01*
X163560952Y-96978571D01*
X163608571Y-96930952D01*
X163703810Y-96883333D01*
X163941905Y-96883333D01*
X164037143Y-96930952D01*
X164084762Y-96978571D01*
X164132381Y-97073809D01*
X164132381Y-97359524D01*
X164084762Y-97454762D01*
X164037143Y-97502381D01*
X137502481Y-154733333D02*
X138216767Y-154733333D01*
X138359624Y-154780953D01*
X138454862Y-154876191D01*
X138502481Y-155019048D01*
X138502481Y-155114286D01*
X137835814Y-153828571D02*
X138502481Y-153828571D01*
X137454862Y-154066667D02*
X138169148Y-154304762D01*
X138169148Y-153685714D01*
X141468988Y-152170189D02*
X142230893Y-152170189D01*
X141849941Y-152551141D02*
X141849941Y-151789236D01*
X163182381Y-112983333D02*
X163896667Y-112983333D01*
X164039524Y-113030953D01*
X164134762Y-113126191D01*
X164182381Y-113269048D01*
X164182381Y-113364286D01*
X163182381Y-112030952D02*
X163182381Y-112507143D01*
X163658571Y-112554762D01*
X163610952Y-112507143D01*
X163563333Y-112411905D01*
X163563333Y-112173809D01*
X163610952Y-112078571D01*
X163658571Y-112030952D01*
X163753810Y-111983333D01*
X163991905Y-111983333D01*
X164087143Y-112030952D01*
X164134762Y-112078571D01*
X164182381Y-112173809D01*
X164182381Y-112411905D01*
X164134762Y-112507143D01*
X164087143Y-112554762D01*
X176691667Y-113777281D02*
X176691667Y-114491567D01*
X176644047Y-114634424D01*
X176548809Y-114729662D01*
X176405952Y-114777281D01*
X176310714Y-114777281D01*
X177596429Y-113777281D02*
X177405952Y-113777281D01*
X177310714Y-113824900D01*
X177263095Y-113872519D01*
X177167857Y-114015376D01*
X177120238Y-114205852D01*
X177120238Y-114586805D01*
X177167857Y-114682043D01*
X177215476Y-114729662D01*
X177310714Y-114777281D01*
X177501191Y-114777281D01*
X177596429Y-114729662D01*
X177644048Y-114682043D01*
X177691667Y-114586805D01*
X177691667Y-114348710D01*
X177644048Y-114253471D01*
X177596429Y-114205852D01*
X177501191Y-114158233D01*
X177310714Y-114158233D01*
X177215476Y-114205852D01*
X177167857Y-114253471D01*
X177120238Y-114348710D01*
X174795189Y-110906012D02*
X174795189Y-110144107D01*
X175176141Y-110525059D02*
X174414236Y-110525059D01*
X160352481Y-102333333D02*
X161066767Y-102333333D01*
X161209624Y-102380953D01*
X161304862Y-102476191D01*
X161352481Y-102619048D01*
X161352481Y-102714286D01*
X160352481Y-101952381D02*
X160352481Y-101285714D01*
X161352481Y-101714286D01*
X164318988Y-99770189D02*
X165080893Y-99770189D01*
X164699941Y-100151141D02*
X164699941Y-99389236D01*
X160377481Y-117108333D02*
X161091767Y-117108333D01*
X161234624Y-117155953D01*
X161329862Y-117251191D01*
X161377481Y-117394048D01*
X161377481Y-117489286D01*
X160806052Y-116489286D02*
X160758433Y-116584524D01*
X160710814Y-116632143D01*
X160615576Y-116679762D01*
X160567957Y-116679762D01*
X160472719Y-116632143D01*
X160425100Y-116584524D01*
X160377481Y-116489286D01*
X160377481Y-116298809D01*
X160425100Y-116203571D01*
X160472719Y-116155952D01*
X160567957Y-116108333D01*
X160615576Y-116108333D01*
X160710814Y-116155952D01*
X160758433Y-116203571D01*
X160806052Y-116298809D01*
X160806052Y-116489286D01*
X160853671Y-116584524D01*
X160901290Y-116632143D01*
X160996529Y-116679762D01*
X161187005Y-116679762D01*
X161282243Y-116632143D01*
X161329862Y-116584524D01*
X161377481Y-116489286D01*
X161377481Y-116298809D01*
X161329862Y-116203571D01*
X161282243Y-116155952D01*
X161187005Y-116108333D01*
X160996529Y-116108333D01*
X160901290Y-116155952D01*
X160853671Y-116203571D01*
X160806052Y-116298809D01*
X164343988Y-114545189D02*
X165105893Y-114545189D01*
X164724941Y-114926141D02*
X164724941Y-114164236D01*
X174327381Y-115508333D02*
X175041667Y-115508333D01*
X175184524Y-115555953D01*
X175279762Y-115651191D01*
X175327381Y-115794048D01*
X175327381Y-115889286D01*
X175327381Y-114984524D02*
X175327381Y-114794048D01*
X175279762Y-114698809D01*
X175232143Y-114651190D01*
X175089286Y-114555952D01*
X174898810Y-114508333D01*
X174517857Y-114508333D01*
X174422619Y-114555952D01*
X174375000Y-114603571D01*
X174327381Y-114698809D01*
X174327381Y-114889286D01*
X174375000Y-114984524D01*
X174422619Y-115032143D01*
X174517857Y-115079762D01*
X174755952Y-115079762D01*
X174851190Y-115032143D01*
X174898810Y-114984524D01*
X174946429Y-114889286D01*
X174946429Y-114698809D01*
X174898810Y-114603571D01*
X174851190Y-114555952D01*
X174755952Y-114508333D01*
X136440477Y-152902381D02*
X136440477Y-153616667D01*
X136392857Y-153759524D01*
X136297619Y-153854762D01*
X136154762Y-153902381D01*
X136059524Y-153902381D01*
X137440477Y-153902381D02*
X136869048Y-153902381D01*
X137154762Y-153902381D02*
X137154762Y-152902381D01*
X137059524Y-153045238D01*
X136964286Y-153140476D01*
X136869048Y-153188095D01*
X138059524Y-152902381D02*
X138154763Y-152902381D01*
X138250001Y-152950000D01*
X138297620Y-152997619D01*
X138345239Y-153092857D01*
X138392858Y-153283333D01*
X138392858Y-153521429D01*
X138345239Y-153711905D01*
X138297620Y-153807143D01*
X138250001Y-153854762D01*
X138154763Y-153902381D01*
X138059524Y-153902381D01*
X137964286Y-153854762D01*
X137916667Y-153807143D01*
X137869048Y-153711905D01*
X137821429Y-153521429D01*
X137821429Y-153283333D01*
X137869048Y-153092857D01*
X137916667Y-152997619D01*
X137964286Y-152950000D01*
X138059524Y-152902381D01*
X159265477Y-99227381D02*
X159265477Y-99941667D01*
X159217857Y-100084524D01*
X159122619Y-100179762D01*
X158979762Y-100227381D01*
X158884524Y-100227381D01*
X160265477Y-100227381D02*
X159694048Y-100227381D01*
X159979762Y-100227381D02*
X159979762Y-99227381D01*
X159884524Y-99370238D01*
X159789286Y-99465476D01*
X159694048Y-99513095D01*
X161217858Y-100227381D02*
X160646429Y-100227381D01*
X160932143Y-100227381D02*
X160932143Y-99227381D01*
X160836905Y-99370238D01*
X160741667Y-99465476D01*
X160646429Y-99513095D01*
X159315477Y-114027381D02*
X159315477Y-114741667D01*
X159267857Y-114884524D01*
X159172619Y-114979762D01*
X159029762Y-115027381D01*
X158934524Y-115027381D01*
X160315477Y-115027381D02*
X159744048Y-115027381D01*
X160029762Y-115027381D02*
X160029762Y-114027381D01*
X159934524Y-114170238D01*
X159839286Y-114265476D01*
X159744048Y-114313095D01*
X160696429Y-114122619D02*
X160744048Y-114075000D01*
X160839286Y-114027381D01*
X161077382Y-114027381D01*
X161172620Y-114075000D01*
X161220239Y-114122619D01*
X161267858Y-114217857D01*
X161267858Y-114313095D01*
X161220239Y-114455952D01*
X160648810Y-115027381D01*
X161267858Y-115027381D01*
X172040477Y-124172381D02*
X172040477Y-124886667D01*
X171992857Y-125029524D01*
X171897619Y-125124762D01*
X171754762Y-125172381D01*
X171659524Y-125172381D01*
X173040477Y-125172381D02*
X172469048Y-125172381D01*
X172754762Y-125172381D02*
X172754762Y-124172381D01*
X172659524Y-124315238D01*
X172564286Y-124410476D01*
X172469048Y-124458095D01*
X173373810Y-124172381D02*
X173992858Y-124172381D01*
X173659524Y-124553333D01*
X173802382Y-124553333D01*
X173897620Y-124600952D01*
X173945239Y-124648571D01*
X173992858Y-124743810D01*
X173992858Y-124981905D01*
X173945239Y-125077143D01*
X173897620Y-125124762D01*
X173802382Y-125172381D01*
X173516667Y-125172381D01*
X173421429Y-125124762D01*
X173373810Y-125077143D01*
X172090477Y-133672381D02*
X172090477Y-134386667D01*
X172042857Y-134529524D01*
X171947619Y-134624762D01*
X171804762Y-134672381D01*
X171709524Y-134672381D01*
X173090477Y-134672381D02*
X172519048Y-134672381D01*
X172804762Y-134672381D02*
X172804762Y-133672381D01*
X172709524Y-133815238D01*
X172614286Y-133910476D01*
X172519048Y-133958095D01*
X173947620Y-134005714D02*
X173947620Y-134672381D01*
X173709524Y-133624762D02*
X173471429Y-134339048D01*
X174090477Y-134339048D01*
X171540477Y-143472381D02*
X171540477Y-144186667D01*
X171492857Y-144329524D01*
X171397619Y-144424762D01*
X171254762Y-144472381D01*
X171159524Y-144472381D01*
X172540477Y-144472381D02*
X171969048Y-144472381D01*
X172254762Y-144472381D02*
X172254762Y-143472381D01*
X172159524Y-143615238D01*
X172064286Y-143710476D01*
X171969048Y-143758095D01*
X173445239Y-143472381D02*
X172969048Y-143472381D01*
X172921429Y-143948571D01*
X172969048Y-143900952D01*
X173064286Y-143853333D01*
X173302382Y-143853333D01*
X173397620Y-143900952D01*
X173445239Y-143948571D01*
X173492858Y-144043810D01*
X173492858Y-144281905D01*
X173445239Y-144377143D01*
X173397620Y-144424762D01*
X173302382Y-144472381D01*
X173064286Y-144472381D01*
X172969048Y-144424762D01*
X172921429Y-144377143D01*
X172040477Y-153172381D02*
X172040477Y-153886667D01*
X171992857Y-154029524D01*
X171897619Y-154124762D01*
X171754762Y-154172381D01*
X171659524Y-154172381D01*
X173040477Y-154172381D02*
X172469048Y-154172381D01*
X172754762Y-154172381D02*
X172754762Y-153172381D01*
X172659524Y-153315238D01*
X172564286Y-153410476D01*
X172469048Y-153458095D01*
X173897620Y-153172381D02*
X173707143Y-153172381D01*
X173611905Y-153220000D01*
X173564286Y-153267619D01*
X173469048Y-153410476D01*
X173421429Y-153600952D01*
X173421429Y-153981905D01*
X173469048Y-154077143D01*
X173516667Y-154124762D01*
X173611905Y-154172381D01*
X173802382Y-154172381D01*
X173897620Y-154124762D01*
X173945239Y-154077143D01*
X173992858Y-153981905D01*
X173992858Y-153743810D01*
X173945239Y-153648571D01*
X173897620Y-153600952D01*
X173802382Y-153553333D01*
X173611905Y-153553333D01*
X173516667Y-153600952D01*
X173469048Y-153648571D01*
X173421429Y-153743810D01*
X177040477Y-126352281D02*
X177040477Y-127066567D01*
X176992857Y-127209424D01*
X176897619Y-127304662D01*
X176754762Y-127352281D01*
X176659524Y-127352281D01*
X178040477Y-127352281D02*
X177469048Y-127352281D01*
X177754762Y-127352281D02*
X177754762Y-126352281D01*
X177659524Y-126495138D01*
X177564286Y-126590376D01*
X177469048Y-126637995D01*
X178373810Y-126352281D02*
X179040477Y-126352281D01*
X178611905Y-127352281D01*
X175620189Y-123481012D02*
X175620189Y-122719107D01*
X176001141Y-123100059D02*
X175239236Y-123100059D01*
X177140477Y-136252281D02*
X177140477Y-136966567D01*
X177092857Y-137109424D01*
X176997619Y-137204662D01*
X176854762Y-137252281D01*
X176759524Y-137252281D01*
X178140477Y-137252281D02*
X177569048Y-137252281D01*
X177854762Y-137252281D02*
X177854762Y-136252281D01*
X177759524Y-136395138D01*
X177664286Y-136490376D01*
X177569048Y-136537995D01*
X178711905Y-136680852D02*
X178616667Y-136633233D01*
X178569048Y-136585614D01*
X178521429Y-136490376D01*
X178521429Y-136442757D01*
X178569048Y-136347519D01*
X178616667Y-136299900D01*
X178711905Y-136252281D01*
X178902382Y-136252281D01*
X178997620Y-136299900D01*
X179045239Y-136347519D01*
X179092858Y-136442757D01*
X179092858Y-136490376D01*
X179045239Y-136585614D01*
X178997620Y-136633233D01*
X178902382Y-136680852D01*
X178711905Y-136680852D01*
X178616667Y-136728471D01*
X178569048Y-136776090D01*
X178521429Y-136871329D01*
X178521429Y-137061805D01*
X178569048Y-137157043D01*
X178616667Y-137204662D01*
X178711905Y-137252281D01*
X178902382Y-137252281D01*
X178997620Y-137204662D01*
X179045239Y-137157043D01*
X179092858Y-137061805D01*
X179092858Y-136871329D01*
X179045239Y-136776090D01*
X178997620Y-136728471D01*
X178902382Y-136680852D01*
X175720189Y-133381012D02*
X175720189Y-132619107D01*
X176101141Y-133000059D02*
X175339236Y-133000059D01*
X176990477Y-146002281D02*
X176990477Y-146716567D01*
X176942857Y-146859424D01*
X176847619Y-146954662D01*
X176704762Y-147002281D01*
X176609524Y-147002281D01*
X177990477Y-147002281D02*
X177419048Y-147002281D01*
X177704762Y-147002281D02*
X177704762Y-146002281D01*
X177609524Y-146145138D01*
X177514286Y-146240376D01*
X177419048Y-146287995D01*
X178466667Y-147002281D02*
X178657143Y-147002281D01*
X178752382Y-146954662D01*
X178800001Y-146907043D01*
X178895239Y-146764186D01*
X178942858Y-146573710D01*
X178942858Y-146192757D01*
X178895239Y-146097519D01*
X178847620Y-146049900D01*
X178752382Y-146002281D01*
X178561905Y-146002281D01*
X178466667Y-146049900D01*
X178419048Y-146097519D01*
X178371429Y-146192757D01*
X178371429Y-146430852D01*
X178419048Y-146526090D01*
X178466667Y-146573710D01*
X178561905Y-146621329D01*
X178752382Y-146621329D01*
X178847620Y-146573710D01*
X178895239Y-146526090D01*
X178942858Y-146430852D01*
X175570189Y-143131012D02*
X175570189Y-142369107D01*
X175951141Y-142750059D02*
X175189236Y-142750059D01*
X176990477Y-156302281D02*
X176990477Y-157016567D01*
X176942857Y-157159424D01*
X176847619Y-157254662D01*
X176704762Y-157302281D01*
X176609524Y-157302281D01*
X177419048Y-156397519D02*
X177466667Y-156349900D01*
X177561905Y-156302281D01*
X177800001Y-156302281D01*
X177895239Y-156349900D01*
X177942858Y-156397519D01*
X177990477Y-156492757D01*
X177990477Y-156587995D01*
X177942858Y-156730852D01*
X177371429Y-157302281D01*
X177990477Y-157302281D01*
X178609524Y-156302281D02*
X178704763Y-156302281D01*
X178800001Y-156349900D01*
X178847620Y-156397519D01*
X178895239Y-156492757D01*
X178942858Y-156683233D01*
X178942858Y-156921329D01*
X178895239Y-157111805D01*
X178847620Y-157207043D01*
X178800001Y-157254662D01*
X178704763Y-157302281D01*
X178609524Y-157302281D01*
X178514286Y-157254662D01*
X178466667Y-157207043D01*
X178419048Y-157111805D01*
X178371429Y-156921329D01*
X178371429Y-156683233D01*
X178419048Y-156492757D01*
X178466667Y-156397519D01*
X178514286Y-156349900D01*
X178609524Y-156302281D01*
X175570189Y-153431012D02*
X175570189Y-152669107D01*
X175951141Y-153050059D02*
X175189236Y-153050059D01*
X174852381Y-128559523D02*
X175566667Y-128559523D01*
X175709524Y-128607143D01*
X175804762Y-128702381D01*
X175852381Y-128845238D01*
X175852381Y-128940476D01*
X174947619Y-128130952D02*
X174900000Y-128083333D01*
X174852381Y-127988095D01*
X174852381Y-127749999D01*
X174900000Y-127654761D01*
X174947619Y-127607142D01*
X175042857Y-127559523D01*
X175138095Y-127559523D01*
X175280952Y-127607142D01*
X175852381Y-128178571D01*
X175852381Y-127559523D01*
X175852381Y-126607142D02*
X175852381Y-127178571D01*
X175852381Y-126892857D02*
X174852381Y-126892857D01*
X174995238Y-126988095D01*
X175090476Y-127083333D01*
X175138095Y-127178571D01*
X174952381Y-138459523D02*
X175666667Y-138459523D01*
X175809524Y-138507143D01*
X175904762Y-138602381D01*
X175952381Y-138745238D01*
X175952381Y-138840476D01*
X175047619Y-138030952D02*
X175000000Y-137983333D01*
X174952381Y-137888095D01*
X174952381Y-137649999D01*
X175000000Y-137554761D01*
X175047619Y-137507142D01*
X175142857Y-137459523D01*
X175238095Y-137459523D01*
X175380952Y-137507142D01*
X175952381Y-138078571D01*
X175952381Y-137459523D01*
X175047619Y-137078571D02*
X175000000Y-137030952D01*
X174952381Y-136935714D01*
X174952381Y-136697618D01*
X175000000Y-136602380D01*
X175047619Y-136554761D01*
X175142857Y-136507142D01*
X175238095Y-136507142D01*
X175380952Y-136554761D01*
X175952381Y-137126190D01*
X175952381Y-136507142D01*
X174952381Y-148209523D02*
X175666667Y-148209523D01*
X175809524Y-148257143D01*
X175904762Y-148352381D01*
X175952381Y-148495238D01*
X175952381Y-148590476D01*
X175047619Y-147780952D02*
X175000000Y-147733333D01*
X174952381Y-147638095D01*
X174952381Y-147399999D01*
X175000000Y-147304761D01*
X175047619Y-147257142D01*
X175142857Y-147209523D01*
X175238095Y-147209523D01*
X175380952Y-147257142D01*
X175952381Y-147828571D01*
X175952381Y-147209523D01*
X174952381Y-146876190D02*
X174952381Y-146257142D01*
X175333333Y-146590476D01*
X175333333Y-146447618D01*
X175380952Y-146352380D01*
X175428571Y-146304761D01*
X175523810Y-146257142D01*
X175761905Y-146257142D01*
X175857143Y-146304761D01*
X175904762Y-146352380D01*
X175952381Y-146447618D01*
X175952381Y-146733333D01*
X175904762Y-146828571D01*
X175857143Y-146876190D01*
X175052381Y-158409523D02*
X175766667Y-158409523D01*
X175909524Y-158457143D01*
X176004762Y-158552381D01*
X176052381Y-158695238D01*
X176052381Y-158790476D01*
X175147619Y-157980952D02*
X175100000Y-157933333D01*
X175052381Y-157838095D01*
X175052381Y-157599999D01*
X175100000Y-157504761D01*
X175147619Y-157457142D01*
X175242857Y-157409523D01*
X175338095Y-157409523D01*
X175480952Y-157457142D01*
X176052381Y-158028571D01*
X176052381Y-157409523D01*
X175385714Y-156552380D02*
X176052381Y-156552380D01*
X175004762Y-156790476D02*
X175719048Y-157028571D01*
X175719048Y-156409523D01*
X151757381Y-150884523D02*
X152471667Y-150884523D01*
X152614524Y-150932143D01*
X152709762Y-151027381D01*
X152757381Y-151170238D01*
X152757381Y-151265476D01*
X151852619Y-150455952D02*
X151805000Y-150408333D01*
X151757381Y-150313095D01*
X151757381Y-150074999D01*
X151805000Y-149979761D01*
X151852619Y-149932142D01*
X151947857Y-149884523D01*
X152043095Y-149884523D01*
X152185952Y-149932142D01*
X152757381Y-150503571D01*
X152757381Y-149884523D01*
X151757381Y-148979761D02*
X151757381Y-149455952D01*
X152233571Y-149503571D01*
X152185952Y-149455952D01*
X152138333Y-149360714D01*
X152138333Y-149122618D01*
X152185952Y-149027380D01*
X152233571Y-148979761D01*
X152328810Y-148932142D01*
X152566905Y-148932142D01*
X152662143Y-148979761D01*
X152709762Y-149027380D01*
X152757381Y-149122618D01*
X152757381Y-149360714D01*
X152709762Y-149455952D01*
X152662143Y-149503571D01*
X150427481Y-155634523D02*
X151141767Y-155634523D01*
X151284624Y-155682143D01*
X151379862Y-155777381D01*
X151427481Y-155920238D01*
X151427481Y-156015476D01*
X150427481Y-155253571D02*
X150427481Y-154634523D01*
X150808433Y-154967857D01*
X150808433Y-154824999D01*
X150856052Y-154729761D01*
X150903671Y-154682142D01*
X150998910Y-154634523D01*
X151237005Y-154634523D01*
X151332243Y-154682142D01*
X151379862Y-154729761D01*
X151427481Y-154824999D01*
X151427481Y-155110714D01*
X151379862Y-155205952D01*
X151332243Y-155253571D01*
X150427481Y-154015476D02*
X150427481Y-153920237D01*
X150475100Y-153824999D01*
X150522719Y-153777380D01*
X150617957Y-153729761D01*
X150808433Y-153682142D01*
X151046529Y-153682142D01*
X151237005Y-153729761D01*
X151332243Y-153777380D01*
X151379862Y-153824999D01*
X151427481Y-153920237D01*
X151427481Y-154015476D01*
X151379862Y-154110714D01*
X151332243Y-154158333D01*
X151237005Y-154205952D01*
X151046529Y-154253571D01*
X150808433Y-154253571D01*
X150617957Y-154205952D01*
X150522719Y-154158333D01*
X150475100Y-154110714D01*
X150427481Y-154015476D01*
X154393988Y-152595189D02*
X155155893Y-152595189D01*
X154774941Y-152976141D02*
X154774941Y-152214236D01*
X149265477Y-152077381D02*
X149265477Y-152791667D01*
X149217857Y-152934524D01*
X149122619Y-153029762D01*
X148979762Y-153077381D01*
X148884524Y-153077381D01*
X149646429Y-152077381D02*
X150265477Y-152077381D01*
X149932143Y-152458333D01*
X150075001Y-152458333D01*
X150170239Y-152505952D01*
X150217858Y-152553571D01*
X150265477Y-152648810D01*
X150265477Y-152886905D01*
X150217858Y-152982143D01*
X150170239Y-153029762D01*
X150075001Y-153077381D01*
X149789286Y-153077381D01*
X149694048Y-153029762D01*
X149646429Y-152982143D01*
X151170239Y-152077381D02*
X150694048Y-152077381D01*
X150646429Y-152553571D01*
X150694048Y-152505952D01*
X150789286Y-152458333D01*
X151027382Y-152458333D01*
X151122620Y-152505952D01*
X151170239Y-152553571D01*
X151217858Y-152648810D01*
X151217858Y-152886905D01*
X151170239Y-152982143D01*
X151122620Y-153029762D01*
X151027382Y-153077381D01*
X150789286Y-153077381D01*
X150694048Y-153029762D01*
X150646429Y-152982143D01*
X125790477Y-150182381D02*
X125790477Y-150896667D01*
X125742857Y-151039524D01*
X125647619Y-151134762D01*
X125504762Y-151182381D01*
X125409524Y-151182381D01*
X126695239Y-150515714D02*
X126695239Y-151182381D01*
X126457143Y-150134762D02*
X126219048Y-150849048D01*
X126838096Y-150849048D01*
X127409524Y-150182381D02*
X127504763Y-150182381D01*
X127600001Y-150230000D01*
X127647620Y-150277619D01*
X127695239Y-150372857D01*
X127742858Y-150563333D01*
X127742858Y-150801429D01*
X127695239Y-150991905D01*
X127647620Y-151087143D01*
X127600001Y-151134762D01*
X127504763Y-151182381D01*
X127409524Y-151182381D01*
X127314286Y-151134762D01*
X127266667Y-151087143D01*
X127219048Y-150991905D01*
X127171429Y-150801429D01*
X127171429Y-150563333D01*
X127219048Y-150372857D01*
X127266667Y-150277619D01*
X127314286Y-150230000D01*
X127409524Y-150182381D01*
X125740477Y-136032381D02*
X125740477Y-136746667D01*
X125692857Y-136889524D01*
X125597619Y-136984762D01*
X125454762Y-137032381D01*
X125359524Y-137032381D01*
X126645239Y-136365714D02*
X126645239Y-137032381D01*
X126407143Y-135984762D02*
X126169048Y-136699048D01*
X126788096Y-136699048D01*
X127692858Y-137032381D02*
X127121429Y-137032381D01*
X127407143Y-137032381D02*
X127407143Y-136032381D01*
X127311905Y-136175238D01*
X127216667Y-136270476D01*
X127121429Y-136318095D01*
X125590477Y-122332381D02*
X125590477Y-123046667D01*
X125542857Y-123189524D01*
X125447619Y-123284762D01*
X125304762Y-123332381D01*
X125209524Y-123332381D01*
X126495239Y-122665714D02*
X126495239Y-123332381D01*
X126257143Y-122284762D02*
X126019048Y-122999048D01*
X126638096Y-122999048D01*
X126971429Y-122427619D02*
X127019048Y-122380000D01*
X127114286Y-122332381D01*
X127352382Y-122332381D01*
X127447620Y-122380000D01*
X127495239Y-122427619D01*
X127542858Y-122522857D01*
X127542858Y-122618095D01*
X127495239Y-122760952D01*
X126923810Y-123332381D01*
X127542858Y-123332381D01*
X125740477Y-108682381D02*
X125740477Y-109396667D01*
X125692857Y-109539524D01*
X125597619Y-109634762D01*
X125454762Y-109682381D01*
X125359524Y-109682381D01*
X126645239Y-109015714D02*
X126645239Y-109682381D01*
X126407143Y-108634762D02*
X126169048Y-109349048D01*
X126788096Y-109349048D01*
X127073810Y-108682381D02*
X127692858Y-108682381D01*
X127359524Y-109063333D01*
X127502382Y-109063333D01*
X127597620Y-109110952D01*
X127645239Y-109158571D01*
X127692858Y-109253810D01*
X127692858Y-109491905D01*
X127645239Y-109587143D01*
X127597620Y-109634762D01*
X127502382Y-109682381D01*
X127216667Y-109682381D01*
X127121429Y-109634762D01*
X127073810Y-109587143D01*
X124852381Y-146659523D02*
X125566667Y-146659523D01*
X125709524Y-146707143D01*
X125804762Y-146802381D01*
X125852381Y-146945238D01*
X125852381Y-147040476D01*
X125185714Y-145754761D02*
X125852381Y-145754761D01*
X124804762Y-145992857D02*
X125519048Y-146230952D01*
X125519048Y-145611904D01*
X125280952Y-145088095D02*
X125233333Y-145183333D01*
X125185714Y-145230952D01*
X125090476Y-145278571D01*
X125042857Y-145278571D01*
X124947619Y-145230952D01*
X124900000Y-145183333D01*
X124852381Y-145088095D01*
X124852381Y-144897618D01*
X124900000Y-144802380D01*
X124947619Y-144754761D01*
X125042857Y-144707142D01*
X125090476Y-144707142D01*
X125185714Y-144754761D01*
X125233333Y-144802380D01*
X125280952Y-144897618D01*
X125280952Y-145088095D01*
X125328571Y-145183333D01*
X125376190Y-145230952D01*
X125471429Y-145278571D01*
X125661905Y-145278571D01*
X125757143Y-145230952D01*
X125804762Y-145183333D01*
X125852381Y-145088095D01*
X125852381Y-144897618D01*
X125804762Y-144802380D01*
X125757143Y-144754761D01*
X125661905Y-144707142D01*
X125471429Y-144707142D01*
X125376190Y-144754761D01*
X125328571Y-144802380D01*
X125280952Y-144897618D01*
X124902381Y-132609523D02*
X125616667Y-132609523D01*
X125759524Y-132657143D01*
X125854762Y-132752381D01*
X125902381Y-132895238D01*
X125902381Y-132990476D01*
X125235714Y-131704761D02*
X125902381Y-131704761D01*
X124854762Y-131942857D02*
X125569048Y-132180952D01*
X125569048Y-131561904D01*
X125902381Y-131133333D02*
X125902381Y-130942857D01*
X125854762Y-130847618D01*
X125807143Y-130799999D01*
X125664286Y-130704761D01*
X125473810Y-130657142D01*
X125092857Y-130657142D01*
X124997619Y-130704761D01*
X124950000Y-130752380D01*
X124902381Y-130847618D01*
X124902381Y-131038095D01*
X124950000Y-131133333D01*
X124997619Y-131180952D01*
X125092857Y-131228571D01*
X125330952Y-131228571D01*
X125426190Y-131180952D01*
X125473810Y-131133333D01*
X125521429Y-131038095D01*
X125521429Y-130847618D01*
X125473810Y-130752380D01*
X125426190Y-130704761D01*
X125330952Y-130657142D01*
X124752381Y-118759523D02*
X125466667Y-118759523D01*
X125609524Y-118807143D01*
X125704762Y-118902381D01*
X125752381Y-119045238D01*
X125752381Y-119140476D01*
X124752381Y-117807142D02*
X124752381Y-118283333D01*
X125228571Y-118330952D01*
X125180952Y-118283333D01*
X125133333Y-118188095D01*
X125133333Y-117949999D01*
X125180952Y-117854761D01*
X125228571Y-117807142D01*
X125323810Y-117759523D01*
X125561905Y-117759523D01*
X125657143Y-117807142D01*
X125704762Y-117854761D01*
X125752381Y-117949999D01*
X125752381Y-118188095D01*
X125704762Y-118283333D01*
X125657143Y-118330952D01*
X124752381Y-117140476D02*
X124752381Y-117045237D01*
X124800000Y-116949999D01*
X124847619Y-116902380D01*
X124942857Y-116854761D01*
X125133333Y-116807142D01*
X125371429Y-116807142D01*
X125561905Y-116854761D01*
X125657143Y-116902380D01*
X125704762Y-116949999D01*
X125752381Y-117045237D01*
X125752381Y-117140476D01*
X125704762Y-117235714D01*
X125657143Y-117283333D01*
X125561905Y-117330952D01*
X125371429Y-117378571D01*
X125133333Y-117378571D01*
X124942857Y-117330952D01*
X124847619Y-117283333D01*
X124800000Y-117235714D01*
X124752381Y-117140476D01*
X124752381Y-105059523D02*
X125466667Y-105059523D01*
X125609524Y-105107143D01*
X125704762Y-105202381D01*
X125752381Y-105345238D01*
X125752381Y-105440476D01*
X124752381Y-104107142D02*
X124752381Y-104583333D01*
X125228571Y-104630952D01*
X125180952Y-104583333D01*
X125133333Y-104488095D01*
X125133333Y-104249999D01*
X125180952Y-104154761D01*
X125228571Y-104107142D01*
X125323810Y-104059523D01*
X125561905Y-104059523D01*
X125657143Y-104107142D01*
X125704762Y-104154761D01*
X125752381Y-104249999D01*
X125752381Y-104488095D01*
X125704762Y-104583333D01*
X125657143Y-104630952D01*
X125752381Y-103107142D02*
X125752381Y-103678571D01*
X125752381Y-103392857D02*
X124752381Y-103392857D01*
X124895238Y-103488095D01*
X124990476Y-103583333D01*
X125038095Y-103678571D01*
X143072381Y-98811905D02*
X143881905Y-98811905D01*
X143977143Y-98764286D01*
X144024762Y-98716667D01*
X144072381Y-98621429D01*
X144072381Y-98430952D01*
X144024762Y-98335714D01*
X143977143Y-98288095D01*
X143881905Y-98240476D01*
X143072381Y-98240476D01*
X143167619Y-97811905D02*
X143120000Y-97764286D01*
X143072381Y-97669048D01*
X143072381Y-97430952D01*
X143120000Y-97335714D01*
X143167619Y-97288095D01*
X143262857Y-97240476D01*
X143358095Y-97240476D01*
X143500952Y-97288095D01*
X144072381Y-97859524D01*
X144072381Y-97240476D01*
X140872381Y-98811905D02*
X141681905Y-98811905D01*
X141777143Y-98764286D01*
X141824762Y-98716667D01*
X141872381Y-98621429D01*
X141872381Y-98430952D01*
X141824762Y-98335714D01*
X141777143Y-98288095D01*
X141681905Y-98240476D01*
X140872381Y-98240476D01*
X140872381Y-97859524D02*
X140872381Y-97240476D01*
X141253333Y-97573810D01*
X141253333Y-97430952D01*
X141300952Y-97335714D01*
X141348571Y-97288095D01*
X141443810Y-97240476D01*
X141681905Y-97240476D01*
X141777143Y-97288095D01*
X141824762Y-97335714D01*
X141872381Y-97430952D01*
X141872381Y-97716667D01*
X141824762Y-97811905D01*
X141777143Y-97859524D01*
X138672381Y-98811905D02*
X139481905Y-98811905D01*
X139577143Y-98764286D01*
X139624762Y-98716667D01*
X139672381Y-98621429D01*
X139672381Y-98430952D01*
X139624762Y-98335714D01*
X139577143Y-98288095D01*
X139481905Y-98240476D01*
X138672381Y-98240476D01*
X139005714Y-97335714D02*
X139672381Y-97335714D01*
X138624762Y-97573810D02*
X139339048Y-97811905D01*
X139339048Y-97192857D01*
X136472381Y-98811905D02*
X137281905Y-98811905D01*
X137377143Y-98764286D01*
X137424762Y-98716667D01*
X137472381Y-98621429D01*
X137472381Y-98430952D01*
X137424762Y-98335714D01*
X137377143Y-98288095D01*
X137281905Y-98240476D01*
X136472381Y-98240476D01*
X136472381Y-97288095D02*
X136472381Y-97764286D01*
X136948571Y-97811905D01*
X136900952Y-97764286D01*
X136853333Y-97669048D01*
X136853333Y-97430952D01*
X136900952Y-97335714D01*
X136948571Y-97288095D01*
X137043810Y-97240476D01*
X137281905Y-97240476D01*
X137377143Y-97288095D01*
X137424762Y-97335714D01*
X137472381Y-97430952D01*
X137472381Y-97669048D01*
X137424762Y-97764286D01*
X137377143Y-97811905D01*
X171615477Y-100797381D02*
X171615477Y-101511667D01*
X171567857Y-101654524D01*
X171472619Y-101749762D01*
X171329762Y-101797381D01*
X171234524Y-101797381D01*
X172044048Y-100892619D02*
X172091667Y-100845000D01*
X172186905Y-100797381D01*
X172425001Y-100797381D01*
X172520239Y-100845000D01*
X172567858Y-100892619D01*
X172615477Y-100987857D01*
X172615477Y-101083095D01*
X172567858Y-101225952D01*
X171996429Y-101797381D01*
X172615477Y-101797381D01*
X173472620Y-100797381D02*
X173282143Y-100797381D01*
X173186905Y-100845000D01*
X173139286Y-100892619D01*
X173044048Y-101035476D01*
X172996429Y-101225952D01*
X172996429Y-101606905D01*
X173044048Y-101702143D01*
X173091667Y-101749762D01*
X173186905Y-101797381D01*
X173377382Y-101797381D01*
X173472620Y-101749762D01*
X173520239Y-101702143D01*
X173567858Y-101606905D01*
X173567858Y-101368810D01*
X173520239Y-101273571D01*
X173472620Y-101225952D01*
X173377382Y-101178333D01*
X173186905Y-101178333D01*
X173091667Y-101225952D01*
X173044048Y-101273571D01*
X172996429Y-101368810D01*
X175815477Y-103627281D02*
X175815477Y-104341567D01*
X175767857Y-104484424D01*
X175672619Y-104579662D01*
X175529762Y-104627281D01*
X175434524Y-104627281D01*
X176244048Y-103722519D02*
X176291667Y-103674900D01*
X176386905Y-103627281D01*
X176625001Y-103627281D01*
X176720239Y-103674900D01*
X176767858Y-103722519D01*
X176815477Y-103817757D01*
X176815477Y-103912995D01*
X176767858Y-104055852D01*
X176196429Y-104627281D01*
X176815477Y-104627281D01*
X177148810Y-103627281D02*
X177815477Y-103627281D01*
X177386905Y-104627281D01*
X174395189Y-100756012D02*
X174395189Y-99994107D01*
X174776141Y-100375059D02*
X174014236Y-100375059D01*
X173777381Y-105784523D02*
X174491667Y-105784523D01*
X174634524Y-105832143D01*
X174729762Y-105927381D01*
X174777381Y-106070238D01*
X174777381Y-106165476D01*
X173872619Y-105355952D02*
X173825000Y-105308333D01*
X173777381Y-105213095D01*
X173777381Y-104974999D01*
X173825000Y-104879761D01*
X173872619Y-104832142D01*
X173967857Y-104784523D01*
X174063095Y-104784523D01*
X174205952Y-104832142D01*
X174777381Y-105403571D01*
X174777381Y-104784523D01*
X174205952Y-104213095D02*
X174158333Y-104308333D01*
X174110714Y-104355952D01*
X174015476Y-104403571D01*
X173967857Y-104403571D01*
X173872619Y-104355952D01*
X173825000Y-104308333D01*
X173777381Y-104213095D01*
X173777381Y-104022618D01*
X173825000Y-103927380D01*
X173872619Y-103879761D01*
X173967857Y-103832142D01*
X174015476Y-103832142D01*
X174110714Y-103879761D01*
X174158333Y-103927380D01*
X174205952Y-104022618D01*
X174205952Y-104213095D01*
X174253571Y-104308333D01*
X174301190Y-104355952D01*
X174396429Y-104403571D01*
X174586905Y-104403571D01*
X174682143Y-104355952D01*
X174729762Y-104308333D01*
X174777381Y-104213095D01*
X174777381Y-104022618D01*
X174729762Y-103927380D01*
X174682143Y-103879761D01*
X174586905Y-103832142D01*
X174396429Y-103832142D01*
X174301190Y-103879761D01*
X174253571Y-103927380D01*
X174205952Y-104022618D01*
M02*
