M48
;DRILL file {KiCad 4.0.6} date 06/28/17 12:26:08
;FORMAT={-:-/ absolute / inch / decimal}
FMAT,2
INCH,TZ
T1C0.028
T2C0.039
%
G90
G05
M72
T1
X5.0118Y-4.3504
X5.0945Y-4.8051
X5.1102Y-4.6339
X5.1201Y-4.0866
X5.1398Y-5.3189
X5.1496Y-5.8071
X5.1831Y-5.1102
X5.2677Y-4.1122
X5.2854Y-5.5
X5.3799Y-4.1831
X5.4803Y-5.7461
X5.5177Y-3.7638
X5.5945Y-4.4291
X5.6319Y-5.7244
X5.689Y-3.7598
X5.7047Y-4.4193
X5.8071Y-4.5157
X5.8701Y-3.7776
X6.0413Y-5.7579
X6.0866Y-5.3858
X6.1535Y-5.0787
X6.6142Y-4.8819
X6.6378Y-5.6693
X6.6555Y-6.0472
X6.6811Y-4.5079
X6.9469Y-3.8445
T2
X4.9764Y-4.5461
X4.9764Y-4.6461
X4.9764Y-4.7461
X4.9823Y-4.0087
X4.9823Y-4.1087
X4.9823Y-4.2087
X4.9823Y-5.0854
X4.9823Y-5.1854
X4.9823Y-5.2854
X4.9843Y-5.6425
X4.9843Y-5.7425
X4.9843Y-5.8425
X5.3606Y-5.8839
X5.4606Y-5.8839
X5.8045Y-5.9085
X5.9045Y-5.9085
X6.2524Y-3.8406
X6.2543Y-4.435
X6.3524Y-3.8406
X6.3543Y-4.435
X6.7854Y-5.7618
X6.7854Y-5.8618
X6.7884Y-4.0817
X6.7884Y-4.1817
X6.8051Y-5.002
X6.8051Y-5.102
X6.8051Y-6.1437
X6.8051Y-6.2437
X6.8071Y-5.376
X6.8071Y-5.476
X6.813Y-4.4685
X6.813Y-4.5685
T0
M30
