G04 #@! TF.FileFunction,Copper,L2,Bot,Signal*
%FSLAX46Y46*%
G04 Gerber Fmt 4.6, Leading zero omitted, Abs format (unit mm)*
G04 Created by KiCad (PCBNEW 4.0.6) date 06/28/17 12:26:05*
%MOMM*%
%LPD*%
G01*
G04 APERTURE LIST*
%ADD10C,0.100000*%
%ADD11R,2.200000X6.600000*%
%ADD12R,1.700000X1.700000*%
%ADD13O,1.700000X1.700000*%
%ADD14C,1.200000*%
%ADD15C,1.200000*%
%ADD16C,0.500000*%
%ADD17C,0.254000*%
G04 APERTURE END LIST*
D10*
D11*
X135450000Y-91150000D03*
X131650000Y-91150000D03*
X150650000Y-91150000D03*
X146850000Y-91150000D03*
X139250000Y-91150000D03*
X143050000Y-91150000D03*
X158250000Y-91150000D03*
X154450000Y-91150000D03*
X162050000Y-91150000D03*
X165850000Y-91150000D03*
D12*
X138700000Y-149450000D03*
D13*
X136160000Y-149450000D03*
D12*
X173050000Y-113500000D03*
D13*
X173050000Y-116040000D03*
D12*
X161350000Y-97550000D03*
D13*
X158810000Y-97550000D03*
D12*
X161400000Y-112650000D03*
D13*
X158860000Y-112650000D03*
D12*
X172850000Y-127050000D03*
D13*
X172850000Y-129590000D03*
D12*
X172900000Y-136550000D03*
D13*
X172900000Y-139090000D03*
D12*
X172350000Y-146350000D03*
D13*
X172350000Y-148890000D03*
D12*
X172850000Y-156050000D03*
D13*
X172850000Y-158590000D03*
D12*
X149975000Y-150075000D03*
D13*
X147435000Y-150075000D03*
D12*
X126600000Y-148400000D03*
D13*
X126600000Y-145860000D03*
X126600000Y-143320000D03*
D12*
X126550000Y-134250000D03*
D13*
X126550000Y-131710000D03*
X126550000Y-129170000D03*
D12*
X126400000Y-120550000D03*
D13*
X126400000Y-118010000D03*
X126400000Y-115470000D03*
D12*
X126550000Y-106900000D03*
D13*
X126550000Y-104360000D03*
X126550000Y-101820000D03*
D12*
X172425000Y-103675000D03*
D13*
X172425000Y-106215000D03*
D14*
X176450000Y-97650000D03*
X169700000Y-114500000D03*
X168000000Y-124000000D03*
X168600000Y-144000000D03*
X169050000Y-153600000D03*
X153450000Y-146250000D03*
X139200000Y-145950000D03*
X127300000Y-110500000D03*
X129400000Y-122050000D03*
X130800000Y-147500000D03*
X130550000Y-135100000D03*
X156300000Y-129000000D03*
X154600000Y-136800000D03*
X147500000Y-114700000D03*
X149100000Y-95950000D03*
X144900000Y-112250000D03*
X143050000Y-145400000D03*
X142100000Y-112500000D03*
X144500000Y-95500000D03*
X140150000Y-95600000D03*
X136650000Y-106250000D03*
X134250000Y-139700000D03*
X131650000Y-129800000D03*
X133800000Y-104450000D03*
X129800000Y-117700000D03*
X130050000Y-103800000D03*
D15*
X172425000Y-98350000D02*
X175750000Y-98350000D01*
X175750000Y-98350000D02*
X176450000Y-97650000D01*
X172850000Y-127050000D02*
X171050000Y-127050000D01*
X171050000Y-127050000D02*
X168000000Y-124000000D01*
X172850000Y-156050000D02*
X171500000Y-156050000D01*
X171500000Y-156050000D02*
X169050000Y-153600000D01*
X153500000Y-146300000D02*
X153550000Y-146300000D01*
X153450000Y-146250000D02*
X153500000Y-146300000D01*
X138700000Y-149450000D02*
X138700000Y-146450000D01*
X138700000Y-146450000D02*
X139200000Y-145950000D01*
X126400000Y-120550000D02*
X127900000Y-120550000D01*
X127900000Y-120550000D02*
X129400000Y-122050000D01*
X172425000Y-103675000D02*
X172425000Y-98350000D01*
X172425000Y-98350000D02*
X172425000Y-97725000D01*
X172425000Y-97725000D02*
X165850000Y-91150000D01*
D16*
X165850000Y-91150000D02*
X165850000Y-92400000D01*
X158250000Y-91150000D02*
X158250000Y-94050000D01*
X158250000Y-94050000D02*
X154200000Y-98100000D01*
X154200000Y-98100000D02*
X154200000Y-110900000D01*
X154200000Y-110900000D02*
X155950000Y-112650000D01*
X155950000Y-112650000D02*
X158860000Y-112650000D01*
X162050000Y-91150000D02*
X162050000Y-93900000D01*
X162050000Y-93900000D02*
X166050000Y-97900000D01*
X166050000Y-97900000D02*
X166050000Y-110800000D01*
X166050000Y-110800000D02*
X164200000Y-112650000D01*
X164200000Y-112650000D02*
X161400000Y-112650000D01*
X154450000Y-91150000D02*
X154450000Y-94650000D01*
X152250000Y-124950000D02*
X156300000Y-129000000D01*
X152250000Y-96850000D02*
X152250000Y-124950000D01*
X154450000Y-94650000D02*
X152250000Y-96850000D01*
X156890000Y-139090000D02*
X172900000Y-139090000D01*
X154600000Y-136800000D02*
X156890000Y-139090000D01*
X150650000Y-91150000D02*
X150650000Y-104350000D01*
X147500000Y-107500000D02*
X147500000Y-114700000D01*
X150650000Y-104350000D02*
X147500000Y-107500000D01*
X149100000Y-103300000D02*
X149100000Y-95950000D01*
X144500000Y-107900000D02*
X149100000Y-103300000D01*
X144500000Y-111850000D02*
X144500000Y-107900000D01*
X144900000Y-112250000D02*
X144500000Y-111850000D01*
X146850000Y-91150000D02*
X146850000Y-95350000D01*
X143050000Y-145400000D02*
X147435000Y-149785000D01*
X142100000Y-107800000D02*
X142100000Y-112500000D01*
X147700000Y-102200000D02*
X142100000Y-107800000D01*
X147700000Y-96200000D02*
X147700000Y-102200000D01*
X146850000Y-95350000D02*
X147700000Y-96200000D01*
X147435000Y-149785000D02*
X147435000Y-150075000D01*
X143050000Y-91150000D02*
X143050000Y-94050000D01*
X143050000Y-94050000D02*
X144500000Y-95500000D01*
X139250000Y-91150000D02*
X139250000Y-94700000D01*
X139250000Y-94700000D02*
X140150000Y-95600000D01*
X136650000Y-106250000D02*
X134250000Y-108650000D01*
X134250000Y-108650000D02*
X134250000Y-139700000D01*
X135450000Y-91150000D02*
X135450000Y-96250000D01*
X129740000Y-131710000D02*
X126550000Y-131710000D01*
X131650000Y-129800000D02*
X129740000Y-131710000D01*
X133800000Y-97900000D02*
X133800000Y-104450000D01*
X135450000Y-96250000D02*
X133800000Y-97900000D01*
X129800000Y-104050000D02*
X129800000Y-117700000D01*
X130050000Y-103800000D02*
X129800000Y-104050000D01*
X131650000Y-91150000D02*
X131650000Y-99260000D01*
X131650000Y-99260000D02*
X126550000Y-104360000D01*
D17*
G36*
X129956132Y-94699760D02*
X130085910Y-94901441D01*
X130298110Y-95046431D01*
X130550000Y-95097440D01*
X130765000Y-95097440D01*
X130765000Y-98893421D01*
X128026651Y-101631769D01*
X127951054Y-101251715D01*
X127629147Y-100769946D01*
X127147378Y-100448039D01*
X126579093Y-100335000D01*
X126520907Y-100335000D01*
X125952622Y-100448039D01*
X125470853Y-100769946D01*
X125148946Y-101251715D01*
X125035907Y-101820000D01*
X125148946Y-102388285D01*
X125470853Y-102870054D01*
X125800026Y-103090000D01*
X125470853Y-103309946D01*
X125148946Y-103791715D01*
X125035907Y-104360000D01*
X125148946Y-104928285D01*
X125470853Y-105410054D01*
X125514777Y-105439403D01*
X125340302Y-105511673D01*
X125161673Y-105690301D01*
X125065000Y-105923690D01*
X125065000Y-106614250D01*
X125223750Y-106773000D01*
X126423000Y-106773000D01*
X126423000Y-106753000D01*
X126677000Y-106753000D01*
X126677000Y-106773000D01*
X127876250Y-106773000D01*
X128035000Y-106614250D01*
X128035000Y-105923690D01*
X127938327Y-105690301D01*
X127759698Y-105511673D01*
X127585223Y-105439403D01*
X127629147Y-105410054D01*
X127951054Y-104928285D01*
X128064093Y-104360000D01*
X128020539Y-104141041D01*
X128962134Y-103199445D01*
X128815215Y-103553266D01*
X128814786Y-104044579D01*
X128915000Y-104287114D01*
X128915000Y-116838426D01*
X128753629Y-116999515D01*
X128565215Y-117453266D01*
X128564786Y-117944579D01*
X128752408Y-118398657D01*
X129099515Y-118746371D01*
X129553266Y-118934785D01*
X130044579Y-118935214D01*
X130498657Y-118747592D01*
X130846371Y-118400485D01*
X131034785Y-117946734D01*
X131035214Y-117455421D01*
X130847592Y-117001343D01*
X130685000Y-116838467D01*
X130685000Y-104873895D01*
X130748657Y-104847592D01*
X131096371Y-104500485D01*
X131284785Y-104046734D01*
X131285214Y-103555421D01*
X131097592Y-103101343D01*
X130750485Y-102753629D01*
X130296734Y-102565215D01*
X129805421Y-102564786D01*
X129449891Y-102711689D01*
X132275787Y-99885792D01*
X132275790Y-99885790D01*
X132467633Y-99598675D01*
X132504416Y-99413757D01*
X132535001Y-99260000D01*
X132535000Y-99259995D01*
X132535000Y-95097440D01*
X132750000Y-95097440D01*
X132985317Y-95053162D01*
X133201441Y-94914090D01*
X133344499Y-94704717D01*
X133759713Y-94705325D01*
X133885910Y-94901441D01*
X134098110Y-95046431D01*
X134350000Y-95097440D01*
X134565000Y-95097440D01*
X134565000Y-95883421D01*
X133174210Y-97274210D01*
X132982367Y-97561325D01*
X132982367Y-97561326D01*
X132914999Y-97900000D01*
X132915000Y-97900005D01*
X132915000Y-103588426D01*
X132753629Y-103749515D01*
X132565215Y-104203266D01*
X132564786Y-104694579D01*
X132752408Y-105148657D01*
X133099515Y-105496371D01*
X133553266Y-105684785D01*
X134044579Y-105685214D01*
X134498657Y-105497592D01*
X134846371Y-105150485D01*
X135034785Y-104696734D01*
X135035214Y-104205421D01*
X134847592Y-103751343D01*
X134685000Y-103588467D01*
X134685000Y-98266580D01*
X136075787Y-96875792D01*
X136075790Y-96875790D01*
X136267633Y-96588675D01*
X136335000Y-96250000D01*
X136335000Y-95097440D01*
X136550000Y-95097440D01*
X136785317Y-95053162D01*
X137001441Y-94914090D01*
X137140704Y-94710271D01*
X137563294Y-94710890D01*
X137685910Y-94901441D01*
X137898110Y-95046431D01*
X138150000Y-95097440D01*
X138471632Y-95097440D01*
X138575751Y-95253266D01*
X138624210Y-95325790D01*
X138914985Y-95616565D01*
X138914786Y-95844579D01*
X139102408Y-96298657D01*
X139449515Y-96646371D01*
X139903266Y-96834785D01*
X140394579Y-96835214D01*
X140848657Y-96647592D01*
X141196371Y-96300485D01*
X141384785Y-95846734D01*
X141385214Y-95355421D01*
X141197592Y-94901343D01*
X141012509Y-94715936D01*
X141366874Y-94716455D01*
X141485910Y-94901441D01*
X141698110Y-95046431D01*
X141950000Y-95097440D01*
X142845860Y-95097440D01*
X143264985Y-95516565D01*
X143264786Y-95744579D01*
X143452408Y-96198657D01*
X143799515Y-96546371D01*
X144253266Y-96734785D01*
X144744579Y-96735214D01*
X145198657Y-96547592D01*
X145546371Y-96200485D01*
X145734785Y-95746734D01*
X145735214Y-95255421D01*
X145662626Y-95079746D01*
X145750000Y-95097440D01*
X145965000Y-95097440D01*
X145965000Y-95349995D01*
X145964999Y-95350000D01*
X146013211Y-95592371D01*
X146032367Y-95688675D01*
X146147728Y-95861326D01*
X146224210Y-95975790D01*
X146815000Y-96566579D01*
X146815000Y-101833421D01*
X141474210Y-107174210D01*
X141282367Y-107461325D01*
X141277615Y-107485214D01*
X141214999Y-107800000D01*
X141215000Y-107800005D01*
X141215000Y-111638426D01*
X141053629Y-111799515D01*
X140865215Y-112253266D01*
X140864786Y-112744579D01*
X141052408Y-113198657D01*
X141399515Y-113546371D01*
X141853266Y-113734785D01*
X142344579Y-113735214D01*
X142798657Y-113547592D01*
X143146371Y-113200485D01*
X143334785Y-112746734D01*
X143335214Y-112255421D01*
X143147592Y-111801343D01*
X142985000Y-111638467D01*
X142985000Y-108166580D01*
X143867847Y-107283732D01*
X143682367Y-107561325D01*
X143682367Y-107561326D01*
X143614999Y-107900000D01*
X143615000Y-107900005D01*
X143615000Y-111849995D01*
X143614999Y-111850000D01*
X143649653Y-112024211D01*
X143665129Y-112102013D01*
X143664786Y-112494579D01*
X143852408Y-112948657D01*
X144199515Y-113296371D01*
X144653266Y-113484785D01*
X145144579Y-113485214D01*
X145598657Y-113297592D01*
X145946371Y-112950485D01*
X146134785Y-112496734D01*
X146135214Y-112005421D01*
X145947592Y-111551343D01*
X145600485Y-111203629D01*
X145385000Y-111114152D01*
X145385000Y-108266580D01*
X149725787Y-103925792D01*
X149725790Y-103925790D01*
X149765000Y-103867108D01*
X149765000Y-103983421D01*
X146874210Y-106874210D01*
X146682367Y-107161325D01*
X146682367Y-107161326D01*
X146614999Y-107500000D01*
X146615000Y-107500005D01*
X146615000Y-113838426D01*
X146453629Y-113999515D01*
X146265215Y-114453266D01*
X146264786Y-114944579D01*
X146452408Y-115398657D01*
X146799515Y-115746371D01*
X147253266Y-115934785D01*
X147744579Y-115935214D01*
X148198657Y-115747592D01*
X148546371Y-115400485D01*
X148734785Y-114946734D01*
X148735214Y-114455421D01*
X148547592Y-114001343D01*
X148385000Y-113838467D01*
X148385000Y-107866580D01*
X151275787Y-104975792D01*
X151275790Y-104975790D01*
X151365000Y-104842277D01*
X151365000Y-124949995D01*
X151364999Y-124950000D01*
X151421190Y-125232484D01*
X151432367Y-125288675D01*
X151617000Y-125565000D01*
X151624210Y-125575790D01*
X155064985Y-129016564D01*
X155064786Y-129244579D01*
X155252408Y-129698657D01*
X155599515Y-130046371D01*
X156053266Y-130234785D01*
X156544579Y-130235214D01*
X156998657Y-130047592D01*
X157346371Y-129700485D01*
X157392248Y-129590000D01*
X171335907Y-129590000D01*
X171448946Y-130158285D01*
X171770853Y-130640054D01*
X172252622Y-130961961D01*
X172820907Y-131075000D01*
X172879093Y-131075000D01*
X173447378Y-130961961D01*
X173929147Y-130640054D01*
X174251054Y-130158285D01*
X174364093Y-129590000D01*
X174251054Y-129021715D01*
X173929147Y-128539946D01*
X173885223Y-128510597D01*
X174059698Y-128438327D01*
X174238327Y-128259699D01*
X174335000Y-128026310D01*
X174335000Y-127335750D01*
X174176250Y-127177000D01*
X172977000Y-127177000D01*
X172977000Y-127197000D01*
X172723000Y-127197000D01*
X172723000Y-127177000D01*
X171523750Y-127177000D01*
X171365000Y-127335750D01*
X171365000Y-128026310D01*
X171461673Y-128259699D01*
X171640302Y-128438327D01*
X171814777Y-128510597D01*
X171770853Y-128539946D01*
X171448946Y-129021715D01*
X171335907Y-129590000D01*
X157392248Y-129590000D01*
X157534785Y-129246734D01*
X157535214Y-128755421D01*
X157347592Y-128301343D01*
X157000485Y-127953629D01*
X156546734Y-127765215D01*
X156316593Y-127765014D01*
X154625270Y-126073690D01*
X171365000Y-126073690D01*
X171365000Y-126764250D01*
X171523750Y-126923000D01*
X172723000Y-126923000D01*
X172723000Y-125723750D01*
X172977000Y-125723750D01*
X172977000Y-126923000D01*
X174176250Y-126923000D01*
X174335000Y-126764250D01*
X174335000Y-126073690D01*
X174238327Y-125840301D01*
X174059698Y-125661673D01*
X173826309Y-125565000D01*
X173135750Y-125565000D01*
X172977000Y-125723750D01*
X172723000Y-125723750D01*
X172564250Y-125565000D01*
X171873691Y-125565000D01*
X171640302Y-125661673D01*
X171461673Y-125840301D01*
X171365000Y-126073690D01*
X154625270Y-126073690D01*
X153135000Y-124583420D01*
X153135000Y-116040000D01*
X171535907Y-116040000D01*
X171648946Y-116608285D01*
X171970853Y-117090054D01*
X172452622Y-117411961D01*
X173020907Y-117525000D01*
X173079093Y-117525000D01*
X173647378Y-117411961D01*
X174129147Y-117090054D01*
X174451054Y-116608285D01*
X174564093Y-116040000D01*
X174451054Y-115471715D01*
X174129147Y-114989946D01*
X174085223Y-114960597D01*
X174259698Y-114888327D01*
X174438327Y-114709699D01*
X174535000Y-114476310D01*
X174535000Y-113785750D01*
X174376250Y-113627000D01*
X173177000Y-113627000D01*
X173177000Y-113647000D01*
X172923000Y-113647000D01*
X172923000Y-113627000D01*
X171723750Y-113627000D01*
X171565000Y-113785750D01*
X171565000Y-114476310D01*
X171661673Y-114709699D01*
X171840302Y-114888327D01*
X172014777Y-114960597D01*
X171970853Y-114989946D01*
X171648946Y-115471715D01*
X171535907Y-116040000D01*
X153135000Y-116040000D01*
X153135000Y-97216580D01*
X155075787Y-95275792D01*
X155075790Y-95275790D01*
X155194959Y-95097440D01*
X155550000Y-95097440D01*
X155785317Y-95053162D01*
X156001441Y-94914090D01*
X156121730Y-94738042D01*
X156310104Y-94738317D01*
X153574210Y-97474210D01*
X153382367Y-97761325D01*
X153382367Y-97761326D01*
X153314999Y-98100000D01*
X153315000Y-98100005D01*
X153315000Y-110899995D01*
X153314999Y-110900000D01*
X153371190Y-111182484D01*
X153382367Y-111238675D01*
X153447337Y-111335910D01*
X153574210Y-111525790D01*
X155324208Y-113275787D01*
X155324210Y-113275790D01*
X155611325Y-113467633D01*
X155667516Y-113478810D01*
X155950000Y-113535001D01*
X155950005Y-113535000D01*
X157680221Y-113535000D01*
X157809946Y-113729147D01*
X158291715Y-114051054D01*
X158860000Y-114164093D01*
X159428285Y-114051054D01*
X159910054Y-113729147D01*
X159937850Y-113687548D01*
X159946838Y-113735317D01*
X160085910Y-113951441D01*
X160298110Y-114096431D01*
X160550000Y-114147440D01*
X162250000Y-114147440D01*
X162485317Y-114103162D01*
X162701441Y-113964090D01*
X162846431Y-113751890D01*
X162890352Y-113535000D01*
X164199995Y-113535000D01*
X164200000Y-113535001D01*
X164482484Y-113478810D01*
X164538675Y-113467633D01*
X164825790Y-113275790D01*
X165577889Y-112523690D01*
X171565000Y-112523690D01*
X171565000Y-113214250D01*
X171723750Y-113373000D01*
X172923000Y-113373000D01*
X172923000Y-112173750D01*
X173177000Y-112173750D01*
X173177000Y-113373000D01*
X174376250Y-113373000D01*
X174535000Y-113214250D01*
X174535000Y-112523690D01*
X174438327Y-112290301D01*
X174259698Y-112111673D01*
X174026309Y-112015000D01*
X173335750Y-112015000D01*
X173177000Y-112173750D01*
X172923000Y-112173750D01*
X172764250Y-112015000D01*
X172073691Y-112015000D01*
X171840302Y-112111673D01*
X171661673Y-112290301D01*
X171565000Y-112523690D01*
X165577889Y-112523690D01*
X166675787Y-111425792D01*
X166675790Y-111425790D01*
X166867633Y-111138675D01*
X166892191Y-111015215D01*
X166935001Y-110800000D01*
X166935000Y-110799995D01*
X166935000Y-106215000D01*
X170910907Y-106215000D01*
X171023946Y-106783285D01*
X171345853Y-107265054D01*
X171827622Y-107586961D01*
X172395907Y-107700000D01*
X172454093Y-107700000D01*
X173022378Y-107586961D01*
X173504147Y-107265054D01*
X173826054Y-106783285D01*
X173939093Y-106215000D01*
X173826054Y-105646715D01*
X173504147Y-105164946D01*
X173460223Y-105135597D01*
X173634698Y-105063327D01*
X173813327Y-104884699D01*
X173910000Y-104651310D01*
X173910000Y-103960750D01*
X173751250Y-103802000D01*
X172552000Y-103802000D01*
X172552000Y-103822000D01*
X172298000Y-103822000D01*
X172298000Y-103802000D01*
X171098750Y-103802000D01*
X170940000Y-103960750D01*
X170940000Y-104651310D01*
X171036673Y-104884699D01*
X171215302Y-105063327D01*
X171389777Y-105135597D01*
X171345853Y-105164946D01*
X171023946Y-105646715D01*
X170910907Y-106215000D01*
X166935000Y-106215000D01*
X166935000Y-102698690D01*
X170940000Y-102698690D01*
X170940000Y-103389250D01*
X171098750Y-103548000D01*
X172298000Y-103548000D01*
X172298000Y-102348750D01*
X172552000Y-102348750D01*
X172552000Y-103548000D01*
X173751250Y-103548000D01*
X173910000Y-103389250D01*
X173910000Y-102698690D01*
X173813327Y-102465301D01*
X173634698Y-102286673D01*
X173401309Y-102190000D01*
X172710750Y-102190000D01*
X172552000Y-102348750D01*
X172298000Y-102348750D01*
X172139250Y-102190000D01*
X171448691Y-102190000D01*
X171215302Y-102286673D01*
X171036673Y-102465301D01*
X170940000Y-102698690D01*
X166935000Y-102698690D01*
X166935000Y-97900005D01*
X166935001Y-97900000D01*
X166867633Y-97561325D01*
X166826657Y-97500000D01*
X166675790Y-97274210D01*
X166675787Y-97274208D01*
X164151370Y-94749790D01*
X164186879Y-94749842D01*
X164211673Y-94809699D01*
X164390302Y-94988327D01*
X164623691Y-95085000D01*
X165564250Y-95085000D01*
X165723000Y-94926250D01*
X165723000Y-94752089D01*
X165977000Y-94752461D01*
X165977000Y-94926250D01*
X166135750Y-95085000D01*
X167076309Y-95085000D01*
X167309698Y-94988327D01*
X167488327Y-94809699D01*
X167511106Y-94754705D01*
X171033150Y-94759858D01*
X171296882Y-94908169D01*
X171296883Y-94908169D01*
X171296884Y-94908170D01*
X171560201Y-94994242D01*
X172065303Y-95054930D01*
X172108000Y-95051646D01*
X172150000Y-95060000D01*
X182771212Y-95060000D01*
X183054383Y-95123631D01*
X189876125Y-101765853D01*
X190040000Y-102711089D01*
X190040000Y-163180069D01*
X189858948Y-164090278D01*
X186802152Y-166715988D01*
X186430069Y-166790000D01*
X119307211Y-166790000D01*
X111608164Y-159503403D01*
X111560000Y-159275722D01*
X111560000Y-158590000D01*
X171335907Y-158590000D01*
X171448946Y-159158285D01*
X171770853Y-159640054D01*
X172252622Y-159961961D01*
X172820907Y-160075000D01*
X172879093Y-160075000D01*
X173447378Y-159961961D01*
X173929147Y-159640054D01*
X174251054Y-159158285D01*
X174364093Y-158590000D01*
X174251054Y-158021715D01*
X173929147Y-157539946D01*
X173885223Y-157510597D01*
X174059698Y-157438327D01*
X174238327Y-157259699D01*
X174335000Y-157026310D01*
X174335000Y-156335750D01*
X174176250Y-156177000D01*
X172977000Y-156177000D01*
X172977000Y-156197000D01*
X172723000Y-156197000D01*
X172723000Y-156177000D01*
X171523750Y-156177000D01*
X171365000Y-156335750D01*
X171365000Y-157026310D01*
X171461673Y-157259699D01*
X171640302Y-157438327D01*
X171814777Y-157510597D01*
X171770853Y-157539946D01*
X171448946Y-158021715D01*
X171335907Y-158590000D01*
X111560000Y-158590000D01*
X111560000Y-155073690D01*
X171365000Y-155073690D01*
X171365000Y-155764250D01*
X171523750Y-155923000D01*
X172723000Y-155923000D01*
X172723000Y-154723750D01*
X172977000Y-154723750D01*
X172977000Y-155923000D01*
X174176250Y-155923000D01*
X174335000Y-155764250D01*
X174335000Y-155073690D01*
X174238327Y-154840301D01*
X174059698Y-154661673D01*
X173826309Y-154565000D01*
X173135750Y-154565000D01*
X172977000Y-154723750D01*
X172723000Y-154723750D01*
X172564250Y-154565000D01*
X171873691Y-154565000D01*
X171640302Y-154661673D01*
X171461673Y-154840301D01*
X171365000Y-155073690D01*
X111560000Y-155073690D01*
X111560000Y-148685750D01*
X125115000Y-148685750D01*
X125115000Y-149376310D01*
X125211673Y-149609699D01*
X125390302Y-149788327D01*
X125623691Y-149885000D01*
X126314250Y-149885000D01*
X126473000Y-149726250D01*
X126473000Y-148527000D01*
X126727000Y-148527000D01*
X126727000Y-149726250D01*
X126885750Y-149885000D01*
X127576309Y-149885000D01*
X127809698Y-149788327D01*
X127988327Y-149609699D01*
X128066527Y-149420907D01*
X134675000Y-149420907D01*
X134675000Y-149479093D01*
X134788039Y-150047378D01*
X135109946Y-150529147D01*
X135591715Y-150851054D01*
X136160000Y-150964093D01*
X136728285Y-150851054D01*
X137210054Y-150529147D01*
X137239403Y-150485223D01*
X137311673Y-150659698D01*
X137490301Y-150838327D01*
X137723690Y-150935000D01*
X138414250Y-150935000D01*
X138573000Y-150776250D01*
X138573000Y-149577000D01*
X138827000Y-149577000D01*
X138827000Y-150776250D01*
X138985750Y-150935000D01*
X139676310Y-150935000D01*
X139909699Y-150838327D01*
X140088327Y-150659698D01*
X140185000Y-150426309D01*
X140185000Y-149735750D01*
X140026250Y-149577000D01*
X138827000Y-149577000D01*
X138573000Y-149577000D01*
X138553000Y-149577000D01*
X138553000Y-149323000D01*
X138573000Y-149323000D01*
X138573000Y-148123750D01*
X138827000Y-148123750D01*
X138827000Y-149323000D01*
X140026250Y-149323000D01*
X140185000Y-149164250D01*
X140185000Y-148473691D01*
X140088327Y-148240302D01*
X139909699Y-148061673D01*
X139676310Y-147965000D01*
X138985750Y-147965000D01*
X138827000Y-148123750D01*
X138573000Y-148123750D01*
X138414250Y-147965000D01*
X137723690Y-147965000D01*
X137490301Y-148061673D01*
X137311673Y-148240302D01*
X137239403Y-148414777D01*
X137210054Y-148370853D01*
X136728285Y-148048946D01*
X136160000Y-147935907D01*
X135591715Y-148048946D01*
X135109946Y-148370853D01*
X134788039Y-148852622D01*
X134675000Y-149420907D01*
X128066527Y-149420907D01*
X128085000Y-149376310D01*
X128085000Y-148685750D01*
X127926250Y-148527000D01*
X126727000Y-148527000D01*
X126473000Y-148527000D01*
X125273750Y-148527000D01*
X125115000Y-148685750D01*
X111560000Y-148685750D01*
X111560000Y-143320000D01*
X125085907Y-143320000D01*
X125198946Y-143888285D01*
X125520853Y-144370054D01*
X125850026Y-144590000D01*
X125520853Y-144809946D01*
X125198946Y-145291715D01*
X125085907Y-145860000D01*
X125198946Y-146428285D01*
X125520853Y-146910054D01*
X125564777Y-146939403D01*
X125390302Y-147011673D01*
X125211673Y-147190301D01*
X125115000Y-147423690D01*
X125115000Y-148114250D01*
X125273750Y-148273000D01*
X126473000Y-148273000D01*
X126473000Y-148253000D01*
X126727000Y-148253000D01*
X126727000Y-148273000D01*
X127926250Y-148273000D01*
X128085000Y-148114250D01*
X128085000Y-147423690D01*
X127988327Y-147190301D01*
X127809698Y-147011673D01*
X127635223Y-146939403D01*
X127679147Y-146910054D01*
X128001054Y-146428285D01*
X128114093Y-145860000D01*
X128071244Y-145644579D01*
X141814786Y-145644579D01*
X142002408Y-146098657D01*
X142349515Y-146446371D01*
X142803266Y-146634785D01*
X143033406Y-146634986D01*
X146032014Y-149633593D01*
X145950000Y-150045907D01*
X145950000Y-150104093D01*
X146063039Y-150672378D01*
X146384946Y-151154147D01*
X146866715Y-151476054D01*
X147435000Y-151589093D01*
X148003285Y-151476054D01*
X148485054Y-151154147D01*
X148514403Y-151110223D01*
X148586673Y-151284698D01*
X148765301Y-151463327D01*
X148998690Y-151560000D01*
X149689250Y-151560000D01*
X149848000Y-151401250D01*
X149848000Y-150202000D01*
X150102000Y-150202000D01*
X150102000Y-151401250D01*
X150260750Y-151560000D01*
X150951310Y-151560000D01*
X151184699Y-151463327D01*
X151363327Y-151284698D01*
X151460000Y-151051309D01*
X151460000Y-150360750D01*
X151301250Y-150202000D01*
X150102000Y-150202000D01*
X149848000Y-150202000D01*
X149828000Y-150202000D01*
X149828000Y-149948000D01*
X149848000Y-149948000D01*
X149848000Y-148748750D01*
X150102000Y-148748750D01*
X150102000Y-149948000D01*
X151301250Y-149948000D01*
X151460000Y-149789250D01*
X151460000Y-149098691D01*
X151373558Y-148890000D01*
X170835907Y-148890000D01*
X170948946Y-149458285D01*
X171270853Y-149940054D01*
X171752622Y-150261961D01*
X172320907Y-150375000D01*
X172379093Y-150375000D01*
X172947378Y-150261961D01*
X173429147Y-149940054D01*
X173751054Y-149458285D01*
X173864093Y-148890000D01*
X173751054Y-148321715D01*
X173429147Y-147839946D01*
X173385223Y-147810597D01*
X173559698Y-147738327D01*
X173738327Y-147559699D01*
X173835000Y-147326310D01*
X173835000Y-146635750D01*
X173676250Y-146477000D01*
X172477000Y-146477000D01*
X172477000Y-146497000D01*
X172223000Y-146497000D01*
X172223000Y-146477000D01*
X171023750Y-146477000D01*
X170865000Y-146635750D01*
X170865000Y-147326310D01*
X170961673Y-147559699D01*
X171140302Y-147738327D01*
X171314777Y-147810597D01*
X171270853Y-147839946D01*
X170948946Y-148321715D01*
X170835907Y-148890000D01*
X151373558Y-148890000D01*
X151363327Y-148865302D01*
X151184699Y-148686673D01*
X150951310Y-148590000D01*
X150260750Y-148590000D01*
X150102000Y-148748750D01*
X149848000Y-148748750D01*
X149689250Y-148590000D01*
X148998690Y-148590000D01*
X148765301Y-148686673D01*
X148586673Y-148865302D01*
X148514403Y-149039777D01*
X148485054Y-148995853D01*
X148003285Y-148673946D01*
X147469311Y-148567732D01*
X144285015Y-145383435D01*
X144285023Y-145373690D01*
X170865000Y-145373690D01*
X170865000Y-146064250D01*
X171023750Y-146223000D01*
X172223000Y-146223000D01*
X172223000Y-145023750D01*
X172477000Y-145023750D01*
X172477000Y-146223000D01*
X173676250Y-146223000D01*
X173835000Y-146064250D01*
X173835000Y-145373690D01*
X173738327Y-145140301D01*
X173559698Y-144961673D01*
X173326309Y-144865000D01*
X172635750Y-144865000D01*
X172477000Y-145023750D01*
X172223000Y-145023750D01*
X172064250Y-144865000D01*
X171373691Y-144865000D01*
X171140302Y-144961673D01*
X170961673Y-145140301D01*
X170865000Y-145373690D01*
X144285023Y-145373690D01*
X144285214Y-145155421D01*
X144097592Y-144701343D01*
X143750485Y-144353629D01*
X143296734Y-144165215D01*
X142805421Y-144164786D01*
X142351343Y-144352408D01*
X142003629Y-144699515D01*
X141815215Y-145153266D01*
X141814786Y-145644579D01*
X128071244Y-145644579D01*
X128001054Y-145291715D01*
X127679147Y-144809946D01*
X127349974Y-144590000D01*
X127679147Y-144370054D01*
X128001054Y-143888285D01*
X128114093Y-143320000D01*
X128001054Y-142751715D01*
X127679147Y-142269946D01*
X127197378Y-141948039D01*
X126629093Y-141835000D01*
X126570907Y-141835000D01*
X126002622Y-141948039D01*
X125520853Y-142269946D01*
X125198946Y-142751715D01*
X125085907Y-143320000D01*
X111560000Y-143320000D01*
X111560000Y-139944579D01*
X133014786Y-139944579D01*
X133202408Y-140398657D01*
X133549515Y-140746371D01*
X134003266Y-140934785D01*
X134494579Y-140935214D01*
X134948657Y-140747592D01*
X135296371Y-140400485D01*
X135484785Y-139946734D01*
X135485214Y-139455421D01*
X135297592Y-139001343D01*
X135135000Y-138838467D01*
X135135000Y-137044579D01*
X153364786Y-137044579D01*
X153552408Y-137498657D01*
X153899515Y-137846371D01*
X154353266Y-138034785D01*
X154583406Y-138034986D01*
X156264208Y-139715787D01*
X156264210Y-139715790D01*
X156551325Y-139907633D01*
X156607516Y-139918810D01*
X156890000Y-139975001D01*
X156890005Y-139975000D01*
X171710568Y-139975000D01*
X171820853Y-140140054D01*
X172302622Y-140461961D01*
X172870907Y-140575000D01*
X172929093Y-140575000D01*
X173497378Y-140461961D01*
X173979147Y-140140054D01*
X174301054Y-139658285D01*
X174414093Y-139090000D01*
X174301054Y-138521715D01*
X173979147Y-138039946D01*
X173935223Y-138010597D01*
X174109698Y-137938327D01*
X174288327Y-137759699D01*
X174385000Y-137526310D01*
X174385000Y-136835750D01*
X174226250Y-136677000D01*
X173027000Y-136677000D01*
X173027000Y-136697000D01*
X172773000Y-136697000D01*
X172773000Y-136677000D01*
X171573750Y-136677000D01*
X171415000Y-136835750D01*
X171415000Y-137526310D01*
X171511673Y-137759699D01*
X171690302Y-137938327D01*
X171864777Y-138010597D01*
X171820853Y-138039946D01*
X171710568Y-138205000D01*
X157256579Y-138205000D01*
X155835015Y-136783435D01*
X155835214Y-136555421D01*
X155647592Y-136101343D01*
X155300485Y-135753629D01*
X154867145Y-135573690D01*
X171415000Y-135573690D01*
X171415000Y-136264250D01*
X171573750Y-136423000D01*
X172773000Y-136423000D01*
X172773000Y-135223750D01*
X173027000Y-135223750D01*
X173027000Y-136423000D01*
X174226250Y-136423000D01*
X174385000Y-136264250D01*
X174385000Y-135573690D01*
X174288327Y-135340301D01*
X174109698Y-135161673D01*
X173876309Y-135065000D01*
X173185750Y-135065000D01*
X173027000Y-135223750D01*
X172773000Y-135223750D01*
X172614250Y-135065000D01*
X171923691Y-135065000D01*
X171690302Y-135161673D01*
X171511673Y-135340301D01*
X171415000Y-135573690D01*
X154867145Y-135573690D01*
X154846734Y-135565215D01*
X154355421Y-135564786D01*
X153901343Y-135752408D01*
X153553629Y-136099515D01*
X153365215Y-136553266D01*
X153364786Y-137044579D01*
X135135000Y-137044579D01*
X135135000Y-109016580D01*
X136666564Y-107485015D01*
X136894579Y-107485214D01*
X137348657Y-107297592D01*
X137696371Y-106950485D01*
X137884785Y-106496734D01*
X137885214Y-106005421D01*
X137697592Y-105551343D01*
X137350485Y-105203629D01*
X136896734Y-105015215D01*
X136405421Y-105014786D01*
X135951343Y-105202408D01*
X135603629Y-105549515D01*
X135415215Y-106003266D01*
X135415014Y-106233407D01*
X133624210Y-108024210D01*
X133432367Y-108311325D01*
X133432367Y-108311326D01*
X133364999Y-108650000D01*
X133365000Y-108650005D01*
X133365000Y-138838426D01*
X133203629Y-138999515D01*
X133015215Y-139453266D01*
X133014786Y-139944579D01*
X111560000Y-139944579D01*
X111560000Y-134535750D01*
X125065000Y-134535750D01*
X125065000Y-135226310D01*
X125161673Y-135459699D01*
X125340302Y-135638327D01*
X125573691Y-135735000D01*
X126264250Y-135735000D01*
X126423000Y-135576250D01*
X126423000Y-134377000D01*
X126677000Y-134377000D01*
X126677000Y-135576250D01*
X126835750Y-135735000D01*
X127526309Y-135735000D01*
X127759698Y-135638327D01*
X127938327Y-135459699D01*
X128035000Y-135226310D01*
X128035000Y-134535750D01*
X127876250Y-134377000D01*
X126677000Y-134377000D01*
X126423000Y-134377000D01*
X125223750Y-134377000D01*
X125065000Y-134535750D01*
X111560000Y-134535750D01*
X111560000Y-129170000D01*
X125035907Y-129170000D01*
X125148946Y-129738285D01*
X125470853Y-130220054D01*
X125800026Y-130440000D01*
X125470853Y-130659946D01*
X125148946Y-131141715D01*
X125035907Y-131710000D01*
X125148946Y-132278285D01*
X125470853Y-132760054D01*
X125514777Y-132789403D01*
X125340302Y-132861673D01*
X125161673Y-133040301D01*
X125065000Y-133273690D01*
X125065000Y-133964250D01*
X125223750Y-134123000D01*
X126423000Y-134123000D01*
X126423000Y-134103000D01*
X126677000Y-134103000D01*
X126677000Y-134123000D01*
X127876250Y-134123000D01*
X128035000Y-133964250D01*
X128035000Y-133273690D01*
X127938327Y-133040301D01*
X127759698Y-132861673D01*
X127585223Y-132789403D01*
X127629147Y-132760054D01*
X127739432Y-132595000D01*
X129739995Y-132595000D01*
X129740000Y-132595001D01*
X130022484Y-132538810D01*
X130078675Y-132527633D01*
X130365790Y-132335790D01*
X131666564Y-131035015D01*
X131894579Y-131035214D01*
X132348657Y-130847592D01*
X132696371Y-130500485D01*
X132884785Y-130046734D01*
X132885214Y-129555421D01*
X132697592Y-129101343D01*
X132350485Y-128753629D01*
X131896734Y-128565215D01*
X131405421Y-128564786D01*
X130951343Y-128752408D01*
X130603629Y-129099515D01*
X130415215Y-129553266D01*
X130415014Y-129783407D01*
X129373420Y-130825000D01*
X127739432Y-130825000D01*
X127629147Y-130659946D01*
X127299974Y-130440000D01*
X127629147Y-130220054D01*
X127951054Y-129738285D01*
X128064093Y-129170000D01*
X127951054Y-128601715D01*
X127629147Y-128119946D01*
X127147378Y-127798039D01*
X126579093Y-127685000D01*
X126520907Y-127685000D01*
X125952622Y-127798039D01*
X125470853Y-128119946D01*
X125148946Y-128601715D01*
X125035907Y-129170000D01*
X111560000Y-129170000D01*
X111560000Y-120835750D01*
X124915000Y-120835750D01*
X124915000Y-121526310D01*
X125011673Y-121759699D01*
X125190302Y-121938327D01*
X125423691Y-122035000D01*
X126114250Y-122035000D01*
X126273000Y-121876250D01*
X126273000Y-120677000D01*
X126527000Y-120677000D01*
X126527000Y-121876250D01*
X126685750Y-122035000D01*
X127376309Y-122035000D01*
X127609698Y-121938327D01*
X127788327Y-121759699D01*
X127885000Y-121526310D01*
X127885000Y-120835750D01*
X127726250Y-120677000D01*
X126527000Y-120677000D01*
X126273000Y-120677000D01*
X125073750Y-120677000D01*
X124915000Y-120835750D01*
X111560000Y-120835750D01*
X111560000Y-115470000D01*
X124885907Y-115470000D01*
X124998946Y-116038285D01*
X125320853Y-116520054D01*
X125650026Y-116740000D01*
X125320853Y-116959946D01*
X124998946Y-117441715D01*
X124885907Y-118010000D01*
X124998946Y-118578285D01*
X125320853Y-119060054D01*
X125364777Y-119089403D01*
X125190302Y-119161673D01*
X125011673Y-119340301D01*
X124915000Y-119573690D01*
X124915000Y-120264250D01*
X125073750Y-120423000D01*
X126273000Y-120423000D01*
X126273000Y-120403000D01*
X126527000Y-120403000D01*
X126527000Y-120423000D01*
X127726250Y-120423000D01*
X127885000Y-120264250D01*
X127885000Y-119573690D01*
X127788327Y-119340301D01*
X127609698Y-119161673D01*
X127435223Y-119089403D01*
X127479147Y-119060054D01*
X127801054Y-118578285D01*
X127914093Y-118010000D01*
X127801054Y-117441715D01*
X127479147Y-116959946D01*
X127149974Y-116740000D01*
X127479147Y-116520054D01*
X127801054Y-116038285D01*
X127914093Y-115470000D01*
X127801054Y-114901715D01*
X127479147Y-114419946D01*
X126997378Y-114098039D01*
X126429093Y-113985000D01*
X126370907Y-113985000D01*
X125802622Y-114098039D01*
X125320853Y-114419946D01*
X124998946Y-114901715D01*
X124885907Y-115470000D01*
X111560000Y-115470000D01*
X111560000Y-107185750D01*
X125065000Y-107185750D01*
X125065000Y-107876310D01*
X125161673Y-108109699D01*
X125340302Y-108288327D01*
X125573691Y-108385000D01*
X126264250Y-108385000D01*
X126423000Y-108226250D01*
X126423000Y-107027000D01*
X126677000Y-107027000D01*
X126677000Y-108226250D01*
X126835750Y-108385000D01*
X127526309Y-108385000D01*
X127759698Y-108288327D01*
X127938327Y-108109699D01*
X128035000Y-107876310D01*
X128035000Y-107185750D01*
X127876250Y-107027000D01*
X126677000Y-107027000D01*
X126423000Y-107027000D01*
X125223750Y-107027000D01*
X125065000Y-107185750D01*
X111560000Y-107185750D01*
X111560000Y-97612696D01*
X114049560Y-95086525D01*
X114208746Y-95060000D01*
X125350000Y-95060000D01*
X125441472Y-95041805D01*
X125534528Y-95035601D01*
X126100941Y-94883152D01*
X126100942Y-94883152D01*
X126349264Y-94760348D01*
X126434740Y-94694608D01*
X129956132Y-94699760D01*
X129956132Y-94699760D01*
G37*
X129956132Y-94699760D02*
X130085910Y-94901441D01*
X130298110Y-95046431D01*
X130550000Y-95097440D01*
X130765000Y-95097440D01*
X130765000Y-98893421D01*
X128026651Y-101631769D01*
X127951054Y-101251715D01*
X127629147Y-100769946D01*
X127147378Y-100448039D01*
X126579093Y-100335000D01*
X126520907Y-100335000D01*
X125952622Y-100448039D01*
X125470853Y-100769946D01*
X125148946Y-101251715D01*
X125035907Y-101820000D01*
X125148946Y-102388285D01*
X125470853Y-102870054D01*
X125800026Y-103090000D01*
X125470853Y-103309946D01*
X125148946Y-103791715D01*
X125035907Y-104360000D01*
X125148946Y-104928285D01*
X125470853Y-105410054D01*
X125514777Y-105439403D01*
X125340302Y-105511673D01*
X125161673Y-105690301D01*
X125065000Y-105923690D01*
X125065000Y-106614250D01*
X125223750Y-106773000D01*
X126423000Y-106773000D01*
X126423000Y-106753000D01*
X126677000Y-106753000D01*
X126677000Y-106773000D01*
X127876250Y-106773000D01*
X128035000Y-106614250D01*
X128035000Y-105923690D01*
X127938327Y-105690301D01*
X127759698Y-105511673D01*
X127585223Y-105439403D01*
X127629147Y-105410054D01*
X127951054Y-104928285D01*
X128064093Y-104360000D01*
X128020539Y-104141041D01*
X128962134Y-103199445D01*
X128815215Y-103553266D01*
X128814786Y-104044579D01*
X128915000Y-104287114D01*
X128915000Y-116838426D01*
X128753629Y-116999515D01*
X128565215Y-117453266D01*
X128564786Y-117944579D01*
X128752408Y-118398657D01*
X129099515Y-118746371D01*
X129553266Y-118934785D01*
X130044579Y-118935214D01*
X130498657Y-118747592D01*
X130846371Y-118400485D01*
X131034785Y-117946734D01*
X131035214Y-117455421D01*
X130847592Y-117001343D01*
X130685000Y-116838467D01*
X130685000Y-104873895D01*
X130748657Y-104847592D01*
X131096371Y-104500485D01*
X131284785Y-104046734D01*
X131285214Y-103555421D01*
X131097592Y-103101343D01*
X130750485Y-102753629D01*
X130296734Y-102565215D01*
X129805421Y-102564786D01*
X129449891Y-102711689D01*
X132275787Y-99885792D01*
X132275790Y-99885790D01*
X132467633Y-99598675D01*
X132504416Y-99413757D01*
X132535001Y-99260000D01*
X132535000Y-99259995D01*
X132535000Y-95097440D01*
X132750000Y-95097440D01*
X132985317Y-95053162D01*
X133201441Y-94914090D01*
X133344499Y-94704717D01*
X133759713Y-94705325D01*
X133885910Y-94901441D01*
X134098110Y-95046431D01*
X134350000Y-95097440D01*
X134565000Y-95097440D01*
X134565000Y-95883421D01*
X133174210Y-97274210D01*
X132982367Y-97561325D01*
X132982367Y-97561326D01*
X132914999Y-97900000D01*
X132915000Y-97900005D01*
X132915000Y-103588426D01*
X132753629Y-103749515D01*
X132565215Y-104203266D01*
X132564786Y-104694579D01*
X132752408Y-105148657D01*
X133099515Y-105496371D01*
X133553266Y-105684785D01*
X134044579Y-105685214D01*
X134498657Y-105497592D01*
X134846371Y-105150485D01*
X135034785Y-104696734D01*
X135035214Y-104205421D01*
X134847592Y-103751343D01*
X134685000Y-103588467D01*
X134685000Y-98266580D01*
X136075787Y-96875792D01*
X136075790Y-96875790D01*
X136267633Y-96588675D01*
X136335000Y-96250000D01*
X136335000Y-95097440D01*
X136550000Y-95097440D01*
X136785317Y-95053162D01*
X137001441Y-94914090D01*
X137140704Y-94710271D01*
X137563294Y-94710890D01*
X137685910Y-94901441D01*
X137898110Y-95046431D01*
X138150000Y-95097440D01*
X138471632Y-95097440D01*
X138575751Y-95253266D01*
X138624210Y-95325790D01*
X138914985Y-95616565D01*
X138914786Y-95844579D01*
X139102408Y-96298657D01*
X139449515Y-96646371D01*
X139903266Y-96834785D01*
X140394579Y-96835214D01*
X140848657Y-96647592D01*
X141196371Y-96300485D01*
X141384785Y-95846734D01*
X141385214Y-95355421D01*
X141197592Y-94901343D01*
X141012509Y-94715936D01*
X141366874Y-94716455D01*
X141485910Y-94901441D01*
X141698110Y-95046431D01*
X141950000Y-95097440D01*
X142845860Y-95097440D01*
X143264985Y-95516565D01*
X143264786Y-95744579D01*
X143452408Y-96198657D01*
X143799515Y-96546371D01*
X144253266Y-96734785D01*
X144744579Y-96735214D01*
X145198657Y-96547592D01*
X145546371Y-96200485D01*
X145734785Y-95746734D01*
X145735214Y-95255421D01*
X145662626Y-95079746D01*
X145750000Y-95097440D01*
X145965000Y-95097440D01*
X145965000Y-95349995D01*
X145964999Y-95350000D01*
X146013211Y-95592371D01*
X146032367Y-95688675D01*
X146147728Y-95861326D01*
X146224210Y-95975790D01*
X146815000Y-96566579D01*
X146815000Y-101833421D01*
X141474210Y-107174210D01*
X141282367Y-107461325D01*
X141277615Y-107485214D01*
X141214999Y-107800000D01*
X141215000Y-107800005D01*
X141215000Y-111638426D01*
X141053629Y-111799515D01*
X140865215Y-112253266D01*
X140864786Y-112744579D01*
X141052408Y-113198657D01*
X141399515Y-113546371D01*
X141853266Y-113734785D01*
X142344579Y-113735214D01*
X142798657Y-113547592D01*
X143146371Y-113200485D01*
X143334785Y-112746734D01*
X143335214Y-112255421D01*
X143147592Y-111801343D01*
X142985000Y-111638467D01*
X142985000Y-108166580D01*
X143867847Y-107283732D01*
X143682367Y-107561325D01*
X143682367Y-107561326D01*
X143614999Y-107900000D01*
X143615000Y-107900005D01*
X143615000Y-111849995D01*
X143614999Y-111850000D01*
X143649653Y-112024211D01*
X143665129Y-112102013D01*
X143664786Y-112494579D01*
X143852408Y-112948657D01*
X144199515Y-113296371D01*
X144653266Y-113484785D01*
X145144579Y-113485214D01*
X145598657Y-113297592D01*
X145946371Y-112950485D01*
X146134785Y-112496734D01*
X146135214Y-112005421D01*
X145947592Y-111551343D01*
X145600485Y-111203629D01*
X145385000Y-111114152D01*
X145385000Y-108266580D01*
X149725787Y-103925792D01*
X149725790Y-103925790D01*
X149765000Y-103867108D01*
X149765000Y-103983421D01*
X146874210Y-106874210D01*
X146682367Y-107161325D01*
X146682367Y-107161326D01*
X146614999Y-107500000D01*
X146615000Y-107500005D01*
X146615000Y-113838426D01*
X146453629Y-113999515D01*
X146265215Y-114453266D01*
X146264786Y-114944579D01*
X146452408Y-115398657D01*
X146799515Y-115746371D01*
X147253266Y-115934785D01*
X147744579Y-115935214D01*
X148198657Y-115747592D01*
X148546371Y-115400485D01*
X148734785Y-114946734D01*
X148735214Y-114455421D01*
X148547592Y-114001343D01*
X148385000Y-113838467D01*
X148385000Y-107866580D01*
X151275787Y-104975792D01*
X151275790Y-104975790D01*
X151365000Y-104842277D01*
X151365000Y-124949995D01*
X151364999Y-124950000D01*
X151421190Y-125232484D01*
X151432367Y-125288675D01*
X151617000Y-125565000D01*
X151624210Y-125575790D01*
X155064985Y-129016564D01*
X155064786Y-129244579D01*
X155252408Y-129698657D01*
X155599515Y-130046371D01*
X156053266Y-130234785D01*
X156544579Y-130235214D01*
X156998657Y-130047592D01*
X157346371Y-129700485D01*
X157392248Y-129590000D01*
X171335907Y-129590000D01*
X171448946Y-130158285D01*
X171770853Y-130640054D01*
X172252622Y-130961961D01*
X172820907Y-131075000D01*
X172879093Y-131075000D01*
X173447378Y-130961961D01*
X173929147Y-130640054D01*
X174251054Y-130158285D01*
X174364093Y-129590000D01*
X174251054Y-129021715D01*
X173929147Y-128539946D01*
X173885223Y-128510597D01*
X174059698Y-128438327D01*
X174238327Y-128259699D01*
X174335000Y-128026310D01*
X174335000Y-127335750D01*
X174176250Y-127177000D01*
X172977000Y-127177000D01*
X172977000Y-127197000D01*
X172723000Y-127197000D01*
X172723000Y-127177000D01*
X171523750Y-127177000D01*
X171365000Y-127335750D01*
X171365000Y-128026310D01*
X171461673Y-128259699D01*
X171640302Y-128438327D01*
X171814777Y-128510597D01*
X171770853Y-128539946D01*
X171448946Y-129021715D01*
X171335907Y-129590000D01*
X157392248Y-129590000D01*
X157534785Y-129246734D01*
X157535214Y-128755421D01*
X157347592Y-128301343D01*
X157000485Y-127953629D01*
X156546734Y-127765215D01*
X156316593Y-127765014D01*
X154625270Y-126073690D01*
X171365000Y-126073690D01*
X171365000Y-126764250D01*
X171523750Y-126923000D01*
X172723000Y-126923000D01*
X172723000Y-125723750D01*
X172977000Y-125723750D01*
X172977000Y-126923000D01*
X174176250Y-126923000D01*
X174335000Y-126764250D01*
X174335000Y-126073690D01*
X174238327Y-125840301D01*
X174059698Y-125661673D01*
X173826309Y-125565000D01*
X173135750Y-125565000D01*
X172977000Y-125723750D01*
X172723000Y-125723750D01*
X172564250Y-125565000D01*
X171873691Y-125565000D01*
X171640302Y-125661673D01*
X171461673Y-125840301D01*
X171365000Y-126073690D01*
X154625270Y-126073690D01*
X153135000Y-124583420D01*
X153135000Y-116040000D01*
X171535907Y-116040000D01*
X171648946Y-116608285D01*
X171970853Y-117090054D01*
X172452622Y-117411961D01*
X173020907Y-117525000D01*
X173079093Y-117525000D01*
X173647378Y-117411961D01*
X174129147Y-117090054D01*
X174451054Y-116608285D01*
X174564093Y-116040000D01*
X174451054Y-115471715D01*
X174129147Y-114989946D01*
X174085223Y-114960597D01*
X174259698Y-114888327D01*
X174438327Y-114709699D01*
X174535000Y-114476310D01*
X174535000Y-113785750D01*
X174376250Y-113627000D01*
X173177000Y-113627000D01*
X173177000Y-113647000D01*
X172923000Y-113647000D01*
X172923000Y-113627000D01*
X171723750Y-113627000D01*
X171565000Y-113785750D01*
X171565000Y-114476310D01*
X171661673Y-114709699D01*
X171840302Y-114888327D01*
X172014777Y-114960597D01*
X171970853Y-114989946D01*
X171648946Y-115471715D01*
X171535907Y-116040000D01*
X153135000Y-116040000D01*
X153135000Y-97216580D01*
X155075787Y-95275792D01*
X155075790Y-95275790D01*
X155194959Y-95097440D01*
X155550000Y-95097440D01*
X155785317Y-95053162D01*
X156001441Y-94914090D01*
X156121730Y-94738042D01*
X156310104Y-94738317D01*
X153574210Y-97474210D01*
X153382367Y-97761325D01*
X153382367Y-97761326D01*
X153314999Y-98100000D01*
X153315000Y-98100005D01*
X153315000Y-110899995D01*
X153314999Y-110900000D01*
X153371190Y-111182484D01*
X153382367Y-111238675D01*
X153447337Y-111335910D01*
X153574210Y-111525790D01*
X155324208Y-113275787D01*
X155324210Y-113275790D01*
X155611325Y-113467633D01*
X155667516Y-113478810D01*
X155950000Y-113535001D01*
X155950005Y-113535000D01*
X157680221Y-113535000D01*
X157809946Y-113729147D01*
X158291715Y-114051054D01*
X158860000Y-114164093D01*
X159428285Y-114051054D01*
X159910054Y-113729147D01*
X159937850Y-113687548D01*
X159946838Y-113735317D01*
X160085910Y-113951441D01*
X160298110Y-114096431D01*
X160550000Y-114147440D01*
X162250000Y-114147440D01*
X162485317Y-114103162D01*
X162701441Y-113964090D01*
X162846431Y-113751890D01*
X162890352Y-113535000D01*
X164199995Y-113535000D01*
X164200000Y-113535001D01*
X164482484Y-113478810D01*
X164538675Y-113467633D01*
X164825790Y-113275790D01*
X165577889Y-112523690D01*
X171565000Y-112523690D01*
X171565000Y-113214250D01*
X171723750Y-113373000D01*
X172923000Y-113373000D01*
X172923000Y-112173750D01*
X173177000Y-112173750D01*
X173177000Y-113373000D01*
X174376250Y-113373000D01*
X174535000Y-113214250D01*
X174535000Y-112523690D01*
X174438327Y-112290301D01*
X174259698Y-112111673D01*
X174026309Y-112015000D01*
X173335750Y-112015000D01*
X173177000Y-112173750D01*
X172923000Y-112173750D01*
X172764250Y-112015000D01*
X172073691Y-112015000D01*
X171840302Y-112111673D01*
X171661673Y-112290301D01*
X171565000Y-112523690D01*
X165577889Y-112523690D01*
X166675787Y-111425792D01*
X166675790Y-111425790D01*
X166867633Y-111138675D01*
X166892191Y-111015215D01*
X166935001Y-110800000D01*
X166935000Y-110799995D01*
X166935000Y-106215000D01*
X170910907Y-106215000D01*
X171023946Y-106783285D01*
X171345853Y-107265054D01*
X171827622Y-107586961D01*
X172395907Y-107700000D01*
X172454093Y-107700000D01*
X173022378Y-107586961D01*
X173504147Y-107265054D01*
X173826054Y-106783285D01*
X173939093Y-106215000D01*
X173826054Y-105646715D01*
X173504147Y-105164946D01*
X173460223Y-105135597D01*
X173634698Y-105063327D01*
X173813327Y-104884699D01*
X173910000Y-104651310D01*
X173910000Y-103960750D01*
X173751250Y-103802000D01*
X172552000Y-103802000D01*
X172552000Y-103822000D01*
X172298000Y-103822000D01*
X172298000Y-103802000D01*
X171098750Y-103802000D01*
X170940000Y-103960750D01*
X170940000Y-104651310D01*
X171036673Y-104884699D01*
X171215302Y-105063327D01*
X171389777Y-105135597D01*
X171345853Y-105164946D01*
X171023946Y-105646715D01*
X170910907Y-106215000D01*
X166935000Y-106215000D01*
X166935000Y-102698690D01*
X170940000Y-102698690D01*
X170940000Y-103389250D01*
X171098750Y-103548000D01*
X172298000Y-103548000D01*
X172298000Y-102348750D01*
X172552000Y-102348750D01*
X172552000Y-103548000D01*
X173751250Y-103548000D01*
X173910000Y-103389250D01*
X173910000Y-102698690D01*
X173813327Y-102465301D01*
X173634698Y-102286673D01*
X173401309Y-102190000D01*
X172710750Y-102190000D01*
X172552000Y-102348750D01*
X172298000Y-102348750D01*
X172139250Y-102190000D01*
X171448691Y-102190000D01*
X171215302Y-102286673D01*
X171036673Y-102465301D01*
X170940000Y-102698690D01*
X166935000Y-102698690D01*
X166935000Y-97900005D01*
X166935001Y-97900000D01*
X166867633Y-97561325D01*
X166826657Y-97500000D01*
X166675790Y-97274210D01*
X166675787Y-97274208D01*
X164151370Y-94749790D01*
X164186879Y-94749842D01*
X164211673Y-94809699D01*
X164390302Y-94988327D01*
X164623691Y-95085000D01*
X165564250Y-95085000D01*
X165723000Y-94926250D01*
X165723000Y-94752089D01*
X165977000Y-94752461D01*
X165977000Y-94926250D01*
X166135750Y-95085000D01*
X167076309Y-95085000D01*
X167309698Y-94988327D01*
X167488327Y-94809699D01*
X167511106Y-94754705D01*
X171033150Y-94759858D01*
X171296882Y-94908169D01*
X171296883Y-94908169D01*
X171296884Y-94908170D01*
X171560201Y-94994242D01*
X172065303Y-95054930D01*
X172108000Y-95051646D01*
X172150000Y-95060000D01*
X182771212Y-95060000D01*
X183054383Y-95123631D01*
X189876125Y-101765853D01*
X190040000Y-102711089D01*
X190040000Y-163180069D01*
X189858948Y-164090278D01*
X186802152Y-166715988D01*
X186430069Y-166790000D01*
X119307211Y-166790000D01*
X111608164Y-159503403D01*
X111560000Y-159275722D01*
X111560000Y-158590000D01*
X171335907Y-158590000D01*
X171448946Y-159158285D01*
X171770853Y-159640054D01*
X172252622Y-159961961D01*
X172820907Y-160075000D01*
X172879093Y-160075000D01*
X173447378Y-159961961D01*
X173929147Y-159640054D01*
X174251054Y-159158285D01*
X174364093Y-158590000D01*
X174251054Y-158021715D01*
X173929147Y-157539946D01*
X173885223Y-157510597D01*
X174059698Y-157438327D01*
X174238327Y-157259699D01*
X174335000Y-157026310D01*
X174335000Y-156335750D01*
X174176250Y-156177000D01*
X172977000Y-156177000D01*
X172977000Y-156197000D01*
X172723000Y-156197000D01*
X172723000Y-156177000D01*
X171523750Y-156177000D01*
X171365000Y-156335750D01*
X171365000Y-157026310D01*
X171461673Y-157259699D01*
X171640302Y-157438327D01*
X171814777Y-157510597D01*
X171770853Y-157539946D01*
X171448946Y-158021715D01*
X171335907Y-158590000D01*
X111560000Y-158590000D01*
X111560000Y-155073690D01*
X171365000Y-155073690D01*
X171365000Y-155764250D01*
X171523750Y-155923000D01*
X172723000Y-155923000D01*
X172723000Y-154723750D01*
X172977000Y-154723750D01*
X172977000Y-155923000D01*
X174176250Y-155923000D01*
X174335000Y-155764250D01*
X174335000Y-155073690D01*
X174238327Y-154840301D01*
X174059698Y-154661673D01*
X173826309Y-154565000D01*
X173135750Y-154565000D01*
X172977000Y-154723750D01*
X172723000Y-154723750D01*
X172564250Y-154565000D01*
X171873691Y-154565000D01*
X171640302Y-154661673D01*
X171461673Y-154840301D01*
X171365000Y-155073690D01*
X111560000Y-155073690D01*
X111560000Y-148685750D01*
X125115000Y-148685750D01*
X125115000Y-149376310D01*
X125211673Y-149609699D01*
X125390302Y-149788327D01*
X125623691Y-149885000D01*
X126314250Y-149885000D01*
X126473000Y-149726250D01*
X126473000Y-148527000D01*
X126727000Y-148527000D01*
X126727000Y-149726250D01*
X126885750Y-149885000D01*
X127576309Y-149885000D01*
X127809698Y-149788327D01*
X127988327Y-149609699D01*
X128066527Y-149420907D01*
X134675000Y-149420907D01*
X134675000Y-149479093D01*
X134788039Y-150047378D01*
X135109946Y-150529147D01*
X135591715Y-150851054D01*
X136160000Y-150964093D01*
X136728285Y-150851054D01*
X137210054Y-150529147D01*
X137239403Y-150485223D01*
X137311673Y-150659698D01*
X137490301Y-150838327D01*
X137723690Y-150935000D01*
X138414250Y-150935000D01*
X138573000Y-150776250D01*
X138573000Y-149577000D01*
X138827000Y-149577000D01*
X138827000Y-150776250D01*
X138985750Y-150935000D01*
X139676310Y-150935000D01*
X139909699Y-150838327D01*
X140088327Y-150659698D01*
X140185000Y-150426309D01*
X140185000Y-149735750D01*
X140026250Y-149577000D01*
X138827000Y-149577000D01*
X138573000Y-149577000D01*
X138553000Y-149577000D01*
X138553000Y-149323000D01*
X138573000Y-149323000D01*
X138573000Y-148123750D01*
X138827000Y-148123750D01*
X138827000Y-149323000D01*
X140026250Y-149323000D01*
X140185000Y-149164250D01*
X140185000Y-148473691D01*
X140088327Y-148240302D01*
X139909699Y-148061673D01*
X139676310Y-147965000D01*
X138985750Y-147965000D01*
X138827000Y-148123750D01*
X138573000Y-148123750D01*
X138414250Y-147965000D01*
X137723690Y-147965000D01*
X137490301Y-148061673D01*
X137311673Y-148240302D01*
X137239403Y-148414777D01*
X137210054Y-148370853D01*
X136728285Y-148048946D01*
X136160000Y-147935907D01*
X135591715Y-148048946D01*
X135109946Y-148370853D01*
X134788039Y-148852622D01*
X134675000Y-149420907D01*
X128066527Y-149420907D01*
X128085000Y-149376310D01*
X128085000Y-148685750D01*
X127926250Y-148527000D01*
X126727000Y-148527000D01*
X126473000Y-148527000D01*
X125273750Y-148527000D01*
X125115000Y-148685750D01*
X111560000Y-148685750D01*
X111560000Y-143320000D01*
X125085907Y-143320000D01*
X125198946Y-143888285D01*
X125520853Y-144370054D01*
X125850026Y-144590000D01*
X125520853Y-144809946D01*
X125198946Y-145291715D01*
X125085907Y-145860000D01*
X125198946Y-146428285D01*
X125520853Y-146910054D01*
X125564777Y-146939403D01*
X125390302Y-147011673D01*
X125211673Y-147190301D01*
X125115000Y-147423690D01*
X125115000Y-148114250D01*
X125273750Y-148273000D01*
X126473000Y-148273000D01*
X126473000Y-148253000D01*
X126727000Y-148253000D01*
X126727000Y-148273000D01*
X127926250Y-148273000D01*
X128085000Y-148114250D01*
X128085000Y-147423690D01*
X127988327Y-147190301D01*
X127809698Y-147011673D01*
X127635223Y-146939403D01*
X127679147Y-146910054D01*
X128001054Y-146428285D01*
X128114093Y-145860000D01*
X128071244Y-145644579D01*
X141814786Y-145644579D01*
X142002408Y-146098657D01*
X142349515Y-146446371D01*
X142803266Y-146634785D01*
X143033406Y-146634986D01*
X146032014Y-149633593D01*
X145950000Y-150045907D01*
X145950000Y-150104093D01*
X146063039Y-150672378D01*
X146384946Y-151154147D01*
X146866715Y-151476054D01*
X147435000Y-151589093D01*
X148003285Y-151476054D01*
X148485054Y-151154147D01*
X148514403Y-151110223D01*
X148586673Y-151284698D01*
X148765301Y-151463327D01*
X148998690Y-151560000D01*
X149689250Y-151560000D01*
X149848000Y-151401250D01*
X149848000Y-150202000D01*
X150102000Y-150202000D01*
X150102000Y-151401250D01*
X150260750Y-151560000D01*
X150951310Y-151560000D01*
X151184699Y-151463327D01*
X151363327Y-151284698D01*
X151460000Y-151051309D01*
X151460000Y-150360750D01*
X151301250Y-150202000D01*
X150102000Y-150202000D01*
X149848000Y-150202000D01*
X149828000Y-150202000D01*
X149828000Y-149948000D01*
X149848000Y-149948000D01*
X149848000Y-148748750D01*
X150102000Y-148748750D01*
X150102000Y-149948000D01*
X151301250Y-149948000D01*
X151460000Y-149789250D01*
X151460000Y-149098691D01*
X151373558Y-148890000D01*
X170835907Y-148890000D01*
X170948946Y-149458285D01*
X171270853Y-149940054D01*
X171752622Y-150261961D01*
X172320907Y-150375000D01*
X172379093Y-150375000D01*
X172947378Y-150261961D01*
X173429147Y-149940054D01*
X173751054Y-149458285D01*
X173864093Y-148890000D01*
X173751054Y-148321715D01*
X173429147Y-147839946D01*
X173385223Y-147810597D01*
X173559698Y-147738327D01*
X173738327Y-147559699D01*
X173835000Y-147326310D01*
X173835000Y-146635750D01*
X173676250Y-146477000D01*
X172477000Y-146477000D01*
X172477000Y-146497000D01*
X172223000Y-146497000D01*
X172223000Y-146477000D01*
X171023750Y-146477000D01*
X170865000Y-146635750D01*
X170865000Y-147326310D01*
X170961673Y-147559699D01*
X171140302Y-147738327D01*
X171314777Y-147810597D01*
X171270853Y-147839946D01*
X170948946Y-148321715D01*
X170835907Y-148890000D01*
X151373558Y-148890000D01*
X151363327Y-148865302D01*
X151184699Y-148686673D01*
X150951310Y-148590000D01*
X150260750Y-148590000D01*
X150102000Y-148748750D01*
X149848000Y-148748750D01*
X149689250Y-148590000D01*
X148998690Y-148590000D01*
X148765301Y-148686673D01*
X148586673Y-148865302D01*
X148514403Y-149039777D01*
X148485054Y-148995853D01*
X148003285Y-148673946D01*
X147469311Y-148567732D01*
X144285015Y-145383435D01*
X144285023Y-145373690D01*
X170865000Y-145373690D01*
X170865000Y-146064250D01*
X171023750Y-146223000D01*
X172223000Y-146223000D01*
X172223000Y-145023750D01*
X172477000Y-145023750D01*
X172477000Y-146223000D01*
X173676250Y-146223000D01*
X173835000Y-146064250D01*
X173835000Y-145373690D01*
X173738327Y-145140301D01*
X173559698Y-144961673D01*
X173326309Y-144865000D01*
X172635750Y-144865000D01*
X172477000Y-145023750D01*
X172223000Y-145023750D01*
X172064250Y-144865000D01*
X171373691Y-144865000D01*
X171140302Y-144961673D01*
X170961673Y-145140301D01*
X170865000Y-145373690D01*
X144285023Y-145373690D01*
X144285214Y-145155421D01*
X144097592Y-144701343D01*
X143750485Y-144353629D01*
X143296734Y-144165215D01*
X142805421Y-144164786D01*
X142351343Y-144352408D01*
X142003629Y-144699515D01*
X141815215Y-145153266D01*
X141814786Y-145644579D01*
X128071244Y-145644579D01*
X128001054Y-145291715D01*
X127679147Y-144809946D01*
X127349974Y-144590000D01*
X127679147Y-144370054D01*
X128001054Y-143888285D01*
X128114093Y-143320000D01*
X128001054Y-142751715D01*
X127679147Y-142269946D01*
X127197378Y-141948039D01*
X126629093Y-141835000D01*
X126570907Y-141835000D01*
X126002622Y-141948039D01*
X125520853Y-142269946D01*
X125198946Y-142751715D01*
X125085907Y-143320000D01*
X111560000Y-143320000D01*
X111560000Y-139944579D01*
X133014786Y-139944579D01*
X133202408Y-140398657D01*
X133549515Y-140746371D01*
X134003266Y-140934785D01*
X134494579Y-140935214D01*
X134948657Y-140747592D01*
X135296371Y-140400485D01*
X135484785Y-139946734D01*
X135485214Y-139455421D01*
X135297592Y-139001343D01*
X135135000Y-138838467D01*
X135135000Y-137044579D01*
X153364786Y-137044579D01*
X153552408Y-137498657D01*
X153899515Y-137846371D01*
X154353266Y-138034785D01*
X154583406Y-138034986D01*
X156264208Y-139715787D01*
X156264210Y-139715790D01*
X156551325Y-139907633D01*
X156607516Y-139918810D01*
X156890000Y-139975001D01*
X156890005Y-139975000D01*
X171710568Y-139975000D01*
X171820853Y-140140054D01*
X172302622Y-140461961D01*
X172870907Y-140575000D01*
X172929093Y-140575000D01*
X173497378Y-140461961D01*
X173979147Y-140140054D01*
X174301054Y-139658285D01*
X174414093Y-139090000D01*
X174301054Y-138521715D01*
X173979147Y-138039946D01*
X173935223Y-138010597D01*
X174109698Y-137938327D01*
X174288327Y-137759699D01*
X174385000Y-137526310D01*
X174385000Y-136835750D01*
X174226250Y-136677000D01*
X173027000Y-136677000D01*
X173027000Y-136697000D01*
X172773000Y-136697000D01*
X172773000Y-136677000D01*
X171573750Y-136677000D01*
X171415000Y-136835750D01*
X171415000Y-137526310D01*
X171511673Y-137759699D01*
X171690302Y-137938327D01*
X171864777Y-138010597D01*
X171820853Y-138039946D01*
X171710568Y-138205000D01*
X157256579Y-138205000D01*
X155835015Y-136783435D01*
X155835214Y-136555421D01*
X155647592Y-136101343D01*
X155300485Y-135753629D01*
X154867145Y-135573690D01*
X171415000Y-135573690D01*
X171415000Y-136264250D01*
X171573750Y-136423000D01*
X172773000Y-136423000D01*
X172773000Y-135223750D01*
X173027000Y-135223750D01*
X173027000Y-136423000D01*
X174226250Y-136423000D01*
X174385000Y-136264250D01*
X174385000Y-135573690D01*
X174288327Y-135340301D01*
X174109698Y-135161673D01*
X173876309Y-135065000D01*
X173185750Y-135065000D01*
X173027000Y-135223750D01*
X172773000Y-135223750D01*
X172614250Y-135065000D01*
X171923691Y-135065000D01*
X171690302Y-135161673D01*
X171511673Y-135340301D01*
X171415000Y-135573690D01*
X154867145Y-135573690D01*
X154846734Y-135565215D01*
X154355421Y-135564786D01*
X153901343Y-135752408D01*
X153553629Y-136099515D01*
X153365215Y-136553266D01*
X153364786Y-137044579D01*
X135135000Y-137044579D01*
X135135000Y-109016580D01*
X136666564Y-107485015D01*
X136894579Y-107485214D01*
X137348657Y-107297592D01*
X137696371Y-106950485D01*
X137884785Y-106496734D01*
X137885214Y-106005421D01*
X137697592Y-105551343D01*
X137350485Y-105203629D01*
X136896734Y-105015215D01*
X136405421Y-105014786D01*
X135951343Y-105202408D01*
X135603629Y-105549515D01*
X135415215Y-106003266D01*
X135415014Y-106233407D01*
X133624210Y-108024210D01*
X133432367Y-108311325D01*
X133432367Y-108311326D01*
X133364999Y-108650000D01*
X133365000Y-108650005D01*
X133365000Y-138838426D01*
X133203629Y-138999515D01*
X133015215Y-139453266D01*
X133014786Y-139944579D01*
X111560000Y-139944579D01*
X111560000Y-134535750D01*
X125065000Y-134535750D01*
X125065000Y-135226310D01*
X125161673Y-135459699D01*
X125340302Y-135638327D01*
X125573691Y-135735000D01*
X126264250Y-135735000D01*
X126423000Y-135576250D01*
X126423000Y-134377000D01*
X126677000Y-134377000D01*
X126677000Y-135576250D01*
X126835750Y-135735000D01*
X127526309Y-135735000D01*
X127759698Y-135638327D01*
X127938327Y-135459699D01*
X128035000Y-135226310D01*
X128035000Y-134535750D01*
X127876250Y-134377000D01*
X126677000Y-134377000D01*
X126423000Y-134377000D01*
X125223750Y-134377000D01*
X125065000Y-134535750D01*
X111560000Y-134535750D01*
X111560000Y-129170000D01*
X125035907Y-129170000D01*
X125148946Y-129738285D01*
X125470853Y-130220054D01*
X125800026Y-130440000D01*
X125470853Y-130659946D01*
X125148946Y-131141715D01*
X125035907Y-131710000D01*
X125148946Y-132278285D01*
X125470853Y-132760054D01*
X125514777Y-132789403D01*
X125340302Y-132861673D01*
X125161673Y-133040301D01*
X125065000Y-133273690D01*
X125065000Y-133964250D01*
X125223750Y-134123000D01*
X126423000Y-134123000D01*
X126423000Y-134103000D01*
X126677000Y-134103000D01*
X126677000Y-134123000D01*
X127876250Y-134123000D01*
X128035000Y-133964250D01*
X128035000Y-133273690D01*
X127938327Y-133040301D01*
X127759698Y-132861673D01*
X127585223Y-132789403D01*
X127629147Y-132760054D01*
X127739432Y-132595000D01*
X129739995Y-132595000D01*
X129740000Y-132595001D01*
X130022484Y-132538810D01*
X130078675Y-132527633D01*
X130365790Y-132335790D01*
X131666564Y-131035015D01*
X131894579Y-131035214D01*
X132348657Y-130847592D01*
X132696371Y-130500485D01*
X132884785Y-130046734D01*
X132885214Y-129555421D01*
X132697592Y-129101343D01*
X132350485Y-128753629D01*
X131896734Y-128565215D01*
X131405421Y-128564786D01*
X130951343Y-128752408D01*
X130603629Y-129099515D01*
X130415215Y-129553266D01*
X130415014Y-129783407D01*
X129373420Y-130825000D01*
X127739432Y-130825000D01*
X127629147Y-130659946D01*
X127299974Y-130440000D01*
X127629147Y-130220054D01*
X127951054Y-129738285D01*
X128064093Y-129170000D01*
X127951054Y-128601715D01*
X127629147Y-128119946D01*
X127147378Y-127798039D01*
X126579093Y-127685000D01*
X126520907Y-127685000D01*
X125952622Y-127798039D01*
X125470853Y-128119946D01*
X125148946Y-128601715D01*
X125035907Y-129170000D01*
X111560000Y-129170000D01*
X111560000Y-120835750D01*
X124915000Y-120835750D01*
X124915000Y-121526310D01*
X125011673Y-121759699D01*
X125190302Y-121938327D01*
X125423691Y-122035000D01*
X126114250Y-122035000D01*
X126273000Y-121876250D01*
X126273000Y-120677000D01*
X126527000Y-120677000D01*
X126527000Y-121876250D01*
X126685750Y-122035000D01*
X127376309Y-122035000D01*
X127609698Y-121938327D01*
X127788327Y-121759699D01*
X127885000Y-121526310D01*
X127885000Y-120835750D01*
X127726250Y-120677000D01*
X126527000Y-120677000D01*
X126273000Y-120677000D01*
X125073750Y-120677000D01*
X124915000Y-120835750D01*
X111560000Y-120835750D01*
X111560000Y-115470000D01*
X124885907Y-115470000D01*
X124998946Y-116038285D01*
X125320853Y-116520054D01*
X125650026Y-116740000D01*
X125320853Y-116959946D01*
X124998946Y-117441715D01*
X124885907Y-118010000D01*
X124998946Y-118578285D01*
X125320853Y-119060054D01*
X125364777Y-119089403D01*
X125190302Y-119161673D01*
X125011673Y-119340301D01*
X124915000Y-119573690D01*
X124915000Y-120264250D01*
X125073750Y-120423000D01*
X126273000Y-120423000D01*
X126273000Y-120403000D01*
X126527000Y-120403000D01*
X126527000Y-120423000D01*
X127726250Y-120423000D01*
X127885000Y-120264250D01*
X127885000Y-119573690D01*
X127788327Y-119340301D01*
X127609698Y-119161673D01*
X127435223Y-119089403D01*
X127479147Y-119060054D01*
X127801054Y-118578285D01*
X127914093Y-118010000D01*
X127801054Y-117441715D01*
X127479147Y-116959946D01*
X127149974Y-116740000D01*
X127479147Y-116520054D01*
X127801054Y-116038285D01*
X127914093Y-115470000D01*
X127801054Y-114901715D01*
X127479147Y-114419946D01*
X126997378Y-114098039D01*
X126429093Y-113985000D01*
X126370907Y-113985000D01*
X125802622Y-114098039D01*
X125320853Y-114419946D01*
X124998946Y-114901715D01*
X124885907Y-115470000D01*
X111560000Y-115470000D01*
X111560000Y-107185750D01*
X125065000Y-107185750D01*
X125065000Y-107876310D01*
X125161673Y-108109699D01*
X125340302Y-108288327D01*
X125573691Y-108385000D01*
X126264250Y-108385000D01*
X126423000Y-108226250D01*
X126423000Y-107027000D01*
X126677000Y-107027000D01*
X126677000Y-108226250D01*
X126835750Y-108385000D01*
X127526309Y-108385000D01*
X127759698Y-108288327D01*
X127938327Y-108109699D01*
X128035000Y-107876310D01*
X128035000Y-107185750D01*
X127876250Y-107027000D01*
X126677000Y-107027000D01*
X126423000Y-107027000D01*
X125223750Y-107027000D01*
X125065000Y-107185750D01*
X111560000Y-107185750D01*
X111560000Y-97612696D01*
X114049560Y-95086525D01*
X114208746Y-95060000D01*
X125350000Y-95060000D01*
X125441472Y-95041805D01*
X125534528Y-95035601D01*
X126100941Y-94883152D01*
X126100942Y-94883152D01*
X126349264Y-94760348D01*
X126434740Y-94694608D01*
X129956132Y-94699760D01*
M02*
