M48
;DRILL file {KiCad 4.0.4-stable} date 03/19/17 00:00:47
;FORMAT={2:4/ absolute / inch / suppress trailing zeros}
FMAT,2
INCH,LZ
T1C0.026
T2C0.047
%
G90
G05
M72
T1
X056Y-04125
X056Y-04175
X056Y-04225
X056Y-04275
X056Y-04325
X056Y-04375
X056Y-04425
X056Y-04475
X056Y-04525
X056Y-04575
X056Y-04625
X056Y-04675
X059Y-04125
X059Y-04175
X059Y-04225
X059Y-04275
X059Y-04325
X059Y-04375
X059Y-04425
X059Y-04475
X059Y-04525
X059Y-04575
X059Y-04625
X059Y-04675
T2
X054Y-038
X054Y-039
X054Y-0405
X054Y-0415
X054Y-043
X054Y-044
X054Y-0455
X054Y-0465
X05675Y-03875
X05775Y-03875
X061Y-041
X061Y-042
X061Y-043
X061Y-0445
X061Y-0455
X061Y-0465
X06375Y-041
X06375Y-042
X06375Y-043
X06375Y-0445
X06375Y-0455
X06375Y-0465
T0
M30
